# Blender 3.5.1
# www.blender.org
o Cube210
v -367.694214 71.386444 299.860657
v -367.797974 72.000000 299.964386
v -367.828705 71.241905 299.258698
v -368.169495 72.000000 299.258698
v -367.092285 71.241905 299.995117
v -367.092285 72.000000 300.335876
v -366.609253 70.496353 298.775635
v -367.002441 70.755180 299.168884
v -367.731018 73.000000 299.897461
v -367.604980 73.510323 299.771393
v -368.037476 73.000000 299.258698
v -367.696686 73.589088 299.258698
v -367.092285 73.000000 300.203888
v -367.092285 73.589088 299.863098
v -367.092285 73.831978 299.258698
v -367.604980 87.489677 299.771393
v -367.731018 88.000000 299.897461
v -367.696686 87.410912 299.258698
v -368.037476 88.000000 299.258698
v -367.092285 87.410912 299.863098
v -367.092285 88.000000 300.203888
v -367.092285 87.168022 299.258698
v -367.797974 89.000000 299.964386
v -367.694214 89.613556 299.860657
v -368.169495 89.000000 299.258698
v -367.828705 89.758095 299.258698
v -367.092285 89.000000 300.335876
v -367.092285 89.758095 299.995117
v -367.002441 90.244820 299.168884
v -366.609253 90.503647 298.775635
v -367.828705 71.241905 298.258698
v -368.169495 72.000000 298.258698
v -367.694214 71.386444 297.656738
v -367.797974 72.000000 297.553009
v -366.609253 70.496353 298.741760
v -367.002441 70.755180 298.348511
v -367.092285 71.241905 297.522278
v -367.092285 72.000000 297.181519
v -368.037476 73.000000 298.258698
v -367.696686 73.589088 298.258698
v -367.731018 73.000000 297.619934
v -367.604980 73.510323 297.746002
v -367.092285 73.831978 298.258698
v -367.092285 73.000000 297.313507
v -367.092285 73.589088 297.654297
v -367.696686 87.410912 298.258698
v -368.037476 88.000000 298.258698
v -367.604980 87.489677 297.746002
v -367.731018 88.000000 297.619934
v -367.092285 87.168022 298.258698
v -367.092285 87.410912 297.654297
v -367.092285 88.000000 297.313507
v -368.169495 89.000000 298.258698
v -367.828705 89.758095 298.258698
v -367.797974 89.000000 297.553009
v -367.694214 89.613556 297.656738
v -367.002441 90.244820 298.348511
v -366.609253 90.503647 298.741760
v -367.092285 89.000000 297.181519
v -367.092285 89.758095 297.522278
v -366.092285 71.241905 299.995117
v -366.092285 72.000000 300.335876
v -366.575317 70.496353 298.775635
v -366.182129 70.755180 299.168884
v -365.490356 71.386444 299.860657
v -365.386597 72.000000 299.964386
v -365.355865 71.241905 299.258698
v -365.015076 72.000000 299.258698
v -366.092285 73.000000 300.203888
v -366.092285 73.589088 299.863098
v -366.092285 73.831978 299.258698
v -365.453552 73.000000 299.897461
v -365.579590 73.510323 299.771393
v -365.147095 73.000000 299.258698
v -365.487885 73.589088 299.258698
v -366.092285 87.410912 299.863098
v -366.092285 88.000000 300.203888
v -366.092285 87.168022 299.258698
v -365.579590 87.489677 299.771393
v -365.453552 88.000000 299.897461
v -365.487885 87.410912 299.258698
v -365.147095 88.000000 299.258698
v -366.092285 89.000000 300.335876
v -366.092285 89.758095 299.995117
v -366.182129 90.244820 299.168884
v -366.575317 90.503647 298.775635
v -365.386597 89.000000 299.964386
v -365.490356 89.613556 299.860657
v -365.015076 89.000000 299.258698
v -365.355865 89.758095 299.258698
v -366.575317 70.496353 298.741760
v -366.182129 70.755180 298.348511
v -366.092285 71.241905 297.522278
v -366.092285 72.000000 297.181519
v -365.355865 71.241905 298.258698
v -365.015076 72.000000 298.258698
v -365.490356 71.386444 297.656738
v -365.386597 72.000000 297.553009
v -366.092285 73.831978 298.258698
v -366.092285 73.000000 297.313507
v -366.092285 73.589088 297.654297
v -365.147095 73.000000 298.258698
v -365.487885 73.589088 298.258698
v -365.453552 73.000000 297.619934
v -365.579590 73.510323 297.746002
v -366.092285 87.168022 298.258698
v -366.092285 87.410912 297.654297
v -366.092285 88.000000 297.313507
v -365.487885 87.410912 298.258698
v -365.147095 88.000000 298.258698
v -365.579590 87.489677 297.746002
v -365.453552 88.000000 297.619934
v -366.182129 90.244820 298.348511
v -366.575317 90.503647 298.741760
v -366.092285 89.000000 297.181519
v -366.092285 89.758095 297.522278
v -365.015076 89.000000 298.258698
v -365.355865 89.758095 298.258698
v -365.386597 89.000000 297.553009
v -365.490356 89.613556 297.656738
vn -0.8741 -0.3115 0.3727
vn -0.3727 -0.3115 0.8741
vn -0.3834 -0.8403 0.3834
vn -0.8881 0.1033 0.4479
vn -0.8570 0.4010 0.3238
vn -0.4479 0.1033 0.8881
vn -0.3237 0.4010 0.8570
vn -0.2867 0.9141 0.2867
vn -0.8570 -0.4010 0.3238
vn -0.3237 -0.4010 0.8570
vn -0.2867 -0.9141 0.2867
vn -0.8881 -0.1033 0.4479
vn -0.8741 0.3115 0.3727
vn -0.4479 -0.1033 0.8881
vn -0.3727 0.3115 0.8741
vn -0.3834 0.8403 0.3834
vn -0.9121 -0.4100 -0.0000
vn -0.8741 -0.3115 -0.3727
vn -0.5498 -0.8353 -0.0000
vn -0.5076 -0.8616 -0.0000
vn -0.3834 -0.8403 -0.3834
vn -0.3727 -0.3115 -0.8741
vn -0.9914 0.1309 -0.0000
vn -0.8656 0.5007 -0.0000
vn -0.8881 0.1033 -0.4479
vn -0.8570 0.4010 -0.3238
vn -0.3729 0.9279 -0.0000
vn -0.4479 0.1033 -0.8881
vn -0.3237 0.4010 -0.8570
vn -0.2867 0.9141 -0.2867
vn -0.8656 -0.5007 -0.0000
vn -0.8570 -0.4010 -0.3238
vn -0.3729 -0.9279 -0.0000
vn -0.2867 -0.9141 -0.2867
vn -0.3237 -0.4010 -0.8570
vn -0.9914 -0.1309 -0.0000
vn -0.9121 0.4100 -0.0000
vn -0.8881 -0.1033 -0.4479
vn -0.8741 0.3115 -0.3727
vn -0.5076 0.8616 -0.0000
vn -0.5498 0.8353 -0.0000
vn -0.4479 -0.1033 -0.8881
vn -0.3727 0.3115 -0.8741
vn -0.3834 0.8403 -0.3834
vn -0.0000 -0.4100 0.9121
vn -0.0000 -0.8353 0.5498
vn -0.0000 -0.8616 0.5076
vn 0.3727 -0.3115 0.8741
vn 0.3834 -0.8403 0.3834
vn 0.8741 -0.3115 0.3727
vn -0.0000 0.1309 0.9914
vn -0.0000 0.5007 0.8656
vn -0.0000 0.9279 0.3729
vn 0.4479 0.1033 0.8881
vn 0.3237 0.4010 0.8570
vn 0.8881 0.1033 0.4479
vn 0.8570 0.4010 0.3238
vn 0.2867 0.9141 0.2867
vn -0.0000 -0.5007 0.8656
vn -0.0000 -0.9279 0.3729
vn 0.3237 -0.4010 0.8570
vn 0.2867 -0.9141 0.2867
vn 0.8570 -0.4010 0.3238
vn -0.0000 -0.1309 0.9914
vn -0.0000 0.4100 0.9121
vn -0.0000 0.8616 0.5076
vn -0.0000 0.8353 0.5498
vn 0.4479 -0.1033 0.8881
vn 0.3727 0.3115 0.8741
vn 0.8881 -0.1033 0.4479
vn 0.8741 0.3115 0.3727
vn 0.3834 0.8403 0.3834
vn -0.0000 -1.0000 -0.0000
vn 0.5498 -0.8353 -0.0000
vn -0.0000 -0.8353 -0.5498
vn -0.0000 -0.8616 -0.5076
vn -0.0000 -0.4100 -0.9121
vn 0.5076 -0.8616 -0.0000
vn 0.9121 -0.4100 -0.0000
vn 0.3834 -0.8403 -0.3834
vn 0.8741 -0.3115 -0.3727
vn 0.3727 -0.3115 -0.8741
vn -0.0000 1.0000 -0.0000
vn -0.0000 0.1309 -0.9914
vn -0.0000 0.5007 -0.8656
vn -0.0000 0.9279 -0.3729
vn 0.9914 0.1309 -0.0000
vn 0.8656 0.5007 -0.0000
vn 0.3729 0.9279 -0.0000
vn 0.8881 0.1033 -0.4479
vn 0.4479 0.1033 -0.8881
vn 0.8570 0.4010 -0.3238
vn 0.3237 0.4010 -0.8570
vn 0.2867 0.9141 -0.2867
vn -0.0000 -0.9279 -0.3729
vn -0.0000 -0.5007 -0.8656
vn 0.3729 -0.9279 -0.0000
vn 0.8656 -0.5007 -0.0000
vn 0.2867 -0.9141 -0.2867
vn 0.8570 -0.4010 -0.3238
vn 0.3237 -0.4010 -0.8570
vn 0.5498 0.8353 -0.0000
vn -0.0000 0.8353 -0.5498
vn -0.0000 -0.1309 -0.9914
vn -0.0000 0.4100 -0.9121
vn -0.0000 0.8616 -0.5076
vn 0.9914 -0.1309 -0.0000
vn 0.9121 0.4100 -0.0000
vn 0.5076 0.8616 -0.0000
vn 0.8881 -0.1033 -0.4479
vn 0.4479 -0.1033 -0.8881
vn 0.8741 0.3115 -0.3727
vn 0.3727 0.3115 -0.8741
vn 0.3834 0.8403 -0.3834
s 0
f 3//1 1//1 2//1 4//1
f 2//2 1//2 5//2 6//2
f 8//3 5//3 1//3 3//3
f 4//4 2//4 9//4 11//4
f 11//5 9//5 10//5 12//5
f 9//6 2//6 6//6 13//6
f 10//7 9//7 13//7 14//7
f 12//8 10//8 14//8 15//8
f 18//9 16//9 17//9 19//9
f 17//10 16//10 20//10 21//10
f 22//11 20//11 16//11 18//11
f 19//12 17//12 23//12 25//12
f 25//13 23//13 24//13 26//13
f 23//14 17//14 21//14 27//14
f 24//15 23//15 27//15 28//15
f 26//16 24//16 28//16 29//16
f 31//17 3//17 4//17 32//17
f 33//18 31//18 32//18 34//18
f 35//19 7//19 8//19 36//19
f 36//20 8//20 3//20 31//20
f 37//21 36//21 31//21 33//21
f 38//22 37//22 33//22 34//22
f 32//23 4//23 11//23 39//23
f 39//24 11//24 12//24 40//24
f 34//25 32//25 39//25 41//25
f 41//26 39//26 40//26 42//26
f 40//27 12//27 15//27 43//27
f 44//28 38//28 34//28 41//28
f 45//29 44//29 41//29 42//29
f 42//30 40//30 43//30 45//30
f 46//31 18//31 19//31 47//31
f 48//32 46//32 47//32 49//32
f 50//33 22//33 18//33 46//33
f 51//34 50//34 46//34 48//34
f 52//35 51//35 48//35 49//35
f 47//36 19//36 25//36 53//36
f 53//37 25//37 26//37 54//37
f 49//38 47//38 53//38 55//38
f 55//39 53//39 54//39 56//39
f 54//40 26//40 29//40 57//40
f 57//41 29//41 30//41 58//41
f 59//42 52//42 49//42 55//42
f 60//43 59//43 55//43 56//43
f 56//44 54//44 57//44 60//44
f 6//45 5//45 61//45 62//45
f 8//46 7//46 63//46 64//46
f 64//47 61//47 5//47 8//47
f 62//48 61//48 65//48 66//48
f 67//49 65//49 61//49 64//49
f 68//50 66//50 65//50 67//50
f 13//51 6//51 62//51 69//51
f 14//52 13//52 69//52 70//52
f 15//53 14//53 70//53 71//53
f 69//54 62//54 66//54 72//54
f 70//55 69//55 72//55 73//55
f 74//56 72//56 66//56 68//56
f 75//57 73//57 72//57 74//57
f 71//58 70//58 73//58 75//58
f 21//59 20//59 76//59 77//59
f 78//60 76//60 20//60 22//60
f 77//61 76//61 79//61 80//61
f 81//62 79//62 76//62 78//62
f 82//63 80//63 79//63 81//63
f 27//64 21//64 77//64 83//64
f 28//65 27//65 83//65 84//65
f 29//66 28//66 84//66 85//66
f 30//67 29//67 85//67 86//67
f 83//68 77//68 80//68 87//68
f 84//69 83//69 87//69 88//69
f 89//70 87//70 80//70 82//70
f 90//71 88//71 87//71 89//71
f 85//72 84//72 88//72 90//72
f 91//73 63//73 7//73 35//73
f 92//74 64//74 63//74 91//74
f 92//75 91//75 35//75 36//75
f 93//76 92//76 36//76 37//76
f 94//77 93//77 37//77 38//77
f 95//78 67//78 64//78 92//78
f 96//79 68//79 67//79 95//79
f 97//80 95//80 92//80 93//80
f 98//81 96//81 95//81 97//81
f 98//82 97//82 93//82 94//82
f 43//83 15//83 71//83 99//83
f 100//84 94//84 38//84 44//84
f 101//85 100//85 44//85 45//85
f 45//86 43//86 99//86 101//86
f 102//87 74//87 68//87 96//87
f 103//88 75//88 74//88 102//88
f 99//89 71//89 75//89 103//89
f 104//90 102//90 96//90 98//90
f 104//91 98//91 94//91 100//91
f 105//92 103//92 102//92 104//92
f 105//93 104//93 100//93 101//93
f 101//94 99//94 103//94 105//94
f 106//73 78//73 22//73 50//73
f 107//95 106//95 50//95 51//95
f 108//96 107//96 51//96 52//96
f 109//97 81//97 78//97 106//97
f 110//98 82//98 81//98 109//98
f 111//99 109//99 106//99 107//99
f 112//100 110//100 109//100 111//100
f 112//101 111//101 107//101 108//101
f 114//102 86//102 85//102 113//102
f 114//103 113//103 57//103 58//103
f 58//83 30//83 86//83 114//83
f 115//104 108//104 52//104 59//104
f 116//105 115//105 59//105 60//105
f 60//106 57//106 113//106 116//106
f 117//107 89//107 82//107 110//107
f 118//108 90//108 89//108 117//108
f 113//109 85//109 90//109 118//109
f 119//110 117//110 110//110 112//110
f 119//111 112//111 108//111 115//111
f 120//112 118//112 117//112 119//112
f 120//113 119//113 115//113 116//113
f 116//114 113//114 118//114 120//114
