# Blender 3.5.1
# www.blender.org
o Cube210
v -368.614502 71.455482 299.795044
v -368.645508 72.000000 299.845612
v -368.677246 71.334198 299.258698
v -368.801819 72.000000 299.258698
v -367.628632 71.455482 300.780914
v -367.679199 72.000000 300.811920
v -367.670654 70.448936 299.837067
v -367.982971 71.122147 300.149384
v -368.179199 72.000000 300.345612
v -367.793610 70.370102 299.258698
v -368.293610 70.834198 299.258698
v -367.092285 71.334198 300.843658
v -367.092285 72.000000 300.968231
v -367.092285 70.370102 299.960022
v -367.092285 70.834198 300.460022
v -367.092285 70.135971 299.258698
v -368.641052 72.627968 299.838226
v -368.692047 72.976784 299.159210
v -368.592468 73.500214 298.759521
v -367.671814 72.627968 300.807434
v -368.078125 72.961304 300.244507
v -367.817749 73.683311 299.984131
v -368.484406 73.294632 299.426208
v -368.127563 73.781731 299.159210
v -366.992798 72.976784 300.858459
v -366.593140 73.500214 300.758881
v -367.259796 73.294632 300.650818
v -366.992798 73.781731 300.293976
v -367.106567 74.353210 299.272949
v -366.782745 74.536003 298.949158
v -368.641052 88.372032 299.838226
v -368.592468 87.499786 298.759521
v -368.692047 88.023216 299.159210
v -367.671814 88.372032 300.807434
v -367.817749 87.316689 299.984131
v -368.078125 88.038696 300.244507
v -368.127563 87.218269 299.159210
v -368.484406 87.705368 299.426208
v -366.593140 87.499786 300.758881
v -366.992798 88.023216 300.858459
v -366.992798 87.218269 300.293976
v -367.259796 87.705368 300.650818
v -366.782745 86.463997 298.949158
v -367.106567 86.646790 299.272949
v -368.645508 89.000000 299.845612
v -368.614502 89.544518 299.795044
v -368.801819 89.000000 299.258698
v -368.677246 89.665802 299.258698
v -367.679199 89.000000 300.811920
v -367.628632 89.544518 300.780914
v -368.179199 89.000000 300.345612
v -367.982971 89.877853 300.149384
v -367.670654 90.551064 299.837067
v -368.293610 90.165802 299.258698
v -367.793610 90.629898 299.258698
v -367.092285 89.000000 300.968231
v -367.092285 89.665802 300.843658
v -367.092285 90.165802 300.460022
v -367.092285 90.629898 299.960022
v -367.092285 90.864029 299.258698
v -368.677246 71.334198 298.258698
v -368.801819 72.000000 298.258698
v -368.614502 71.455482 297.722351
v -368.645508 72.000000 297.671783
v -367.793610 70.370102 298.258698
v -368.293610 70.834198 298.258698
v -367.670654 70.448936 297.680328
v -367.982971 71.122147 297.368011
v -368.179199 72.000000 297.171783
v -367.628632 71.455482 296.736481
v -367.679199 72.000000 296.705475
v -367.092285 70.135971 298.258698
v -367.092285 70.370102 297.557373
v -367.092285 70.834198 297.057373
v -367.092285 71.334198 296.673737
v -367.092285 72.000000 296.549164
v -368.692047 72.976784 298.358185
v -368.592468 73.500214 298.757874
v -368.641052 72.627968 297.679169
v -368.484406 73.294632 298.091187
v -368.127563 73.781731 298.358185
v -368.078125 72.961304 297.272888
v -367.817749 73.683311 297.533264
v -367.671814 72.627968 296.709961
v -367.106567 74.353210 298.244446
v -366.782745 74.536003 298.568237
v -367.259796 73.294632 296.866577
v -366.992798 73.781731 297.223419
v -366.992798 72.976784 296.658936
v -366.593140 73.500214 296.758514
v -368.592468 87.499786 298.757874
v -368.692047 88.023216 298.358185
v -368.641052 88.372032 297.679169
v -368.127563 87.218269 298.358185
v -368.484406 87.705368 298.091187
v -367.817749 87.316689 297.533264
v -368.078125 88.038696 297.272888
v -367.671814 88.372032 296.709961
v -366.782745 86.463997 298.568237
v -367.106567 86.646790 298.244446
v -366.992798 87.218269 297.223419
v -367.259796 87.705368 296.866577
v -366.593140 87.499786 296.758514
v -366.992798 88.023216 296.658936
v -368.801819 89.000000 298.258698
v -368.677246 89.665802 298.258698
v -368.645508 89.000000 297.671783
v -368.614502 89.544518 297.722351
v -368.293610 90.165802 298.258698
v -367.793610 90.629898 298.258698
v -368.179199 89.000000 297.171783
v -367.982971 89.877853 297.368011
v -367.670654 90.551064 297.680328
v -367.679199 89.000000 296.705475
v -367.628632 89.544518 296.736481
v -367.092285 90.864029 298.258698
v -367.092285 90.165802 297.057373
v -367.092285 90.629898 297.557373
v -367.092285 89.000000 296.549164
v -367.092285 89.665802 296.673737
v -366.092285 71.334198 300.843658
v -366.092285 72.000000 300.968231
v -366.092285 70.370102 299.960022
v -366.092285 70.834198 300.460022
v -366.092285 70.135971 299.258698
v -365.555939 71.455482 300.780914
v -365.505371 72.000000 300.811920
v -365.513916 70.448936 299.837067
v -365.201599 71.122147 300.149384
v -365.005371 72.000000 300.345612
v -365.390961 70.370102 299.258698
v -364.890961 70.834198 299.258698
v -364.570068 71.455482 299.795044
v -364.539062 72.000000 299.845612
v -364.507324 71.334198 299.258698
v -364.382751 72.000000 299.258698
v -366.191772 72.976784 300.858459
v -366.591431 73.500214 300.758881
v -365.924774 73.294632 300.650818
v -366.191772 73.781731 300.293976
v -366.078003 74.353210 299.272949
v -366.401825 74.536003 298.949158
v -365.512756 72.627968 300.807434
v -365.106445 72.961304 300.244507
v -365.366821 73.683311 299.984131
v -364.700165 73.294632 299.426208
v -365.057007 73.781731 299.159210
v -364.543518 72.627968 299.838226
v -364.492523 72.976784 299.159210
v -364.592102 73.500214 298.759521
v -366.591431 87.499786 300.758881
v -366.191772 88.023216 300.858459
v -366.191772 87.218269 300.293976
v -365.924774 87.705368 300.650818
v -366.401825 86.463997 298.949158
v -366.078003 86.646790 299.272949
v -365.512756 88.372032 300.807434
v -365.366821 87.316689 299.984131
v -365.106445 88.038696 300.244507
v -365.057007 87.218269 299.159210
v -364.700165 87.705368 299.426208
v -364.543518 88.372032 299.838226
v -364.592102 87.499786 298.759521
v -364.492523 88.023216 299.159210
v -366.092285 89.000000 300.968231
v -366.092285 89.665802 300.843658
v -366.092285 90.165802 300.460022
v -366.092285 90.629898 299.960022
v -366.092285 90.864029 299.258698
v -365.505371 89.000000 300.811920
v -365.555939 89.544518 300.780914
v -365.005371 89.000000 300.345612
v -365.201599 89.877853 300.149384
v -365.513916 90.551064 299.837067
v -364.890961 90.165802 299.258698
v -365.390961 90.629898 299.258698
v -364.539062 89.000000 299.845612
v -364.570068 89.544518 299.795044
v -364.382751 89.000000 299.258698
v -364.507324 89.665802 299.258698
v -366.092285 70.135971 298.258698
v -366.092285 70.370102 297.557373
v -366.092285 70.834198 297.057373
v -366.092285 71.334198 296.673737
v -366.092285 72.000000 296.549164
v -365.390961 70.370102 298.258698
v -364.890961 70.834198 298.258698
v -365.513916 70.448936 297.680328
v -365.201599 71.122147 297.368011
v -365.005371 72.000000 297.171783
v -365.555939 71.455482 296.736481
v -365.505371 72.000000 296.705475
v -364.507324 71.334198 298.258698
v -364.382751 72.000000 298.258698
v -364.570068 71.455482 297.722351
v -364.539062 72.000000 297.671783
v -366.078003 74.353210 298.244446
v -366.401825 74.536003 298.568237
v -365.924774 73.294632 296.866577
v -366.191772 73.781731 297.223419
v -366.191772 72.976784 296.658936
v -366.591431 73.500214 296.758514
v -364.700165 73.294632 298.091187
v -365.057007 73.781731 298.358185
v -365.106445 72.961304 297.272888
v -365.366821 73.683311 297.533264
v -365.512756 72.627968 296.709961
v -364.492523 72.976784 298.358185
v -364.592102 73.500214 298.757874
v -364.543518 72.627968 297.679169
v -366.401825 86.463997 298.568237
v -366.078003 86.646790 298.244446
v -366.191772 87.218269 297.223419
v -365.924774 87.705368 296.866577
v -366.591431 87.499786 296.758514
v -366.191772 88.023216 296.658936
v -365.057007 87.218269 298.358185
v -364.700165 87.705368 298.091187
v -365.366821 87.316689 297.533264
v -365.106445 88.038696 297.272888
v -365.512756 88.372032 296.709961
v -364.592102 87.499786 298.757874
v -364.492523 88.023216 298.358185
v -364.543518 88.372032 297.679169
v -366.092285 90.864029 298.258698
v -366.092285 90.165802 297.057373
v -366.092285 90.629898 297.557373
v -366.092285 89.000000 296.549164
v -366.092285 89.665802 296.673737
v -364.890961 90.165802 298.258698
v -365.390961 90.629898 298.258698
v -365.005371 89.000000 297.171783
v -365.201599 89.877853 297.368011
v -365.513916 90.551064 297.680328
v -365.505371 89.000000 296.705475
v -365.555939 89.544518 296.736481
v -364.382751 89.000000 298.258698
v -364.507324 89.665802 298.258698
v -364.539062 89.000000 297.671783
v -364.570068 89.544518 297.722351
vn -0.9700 -0.1332 0.2035
vn -0.7331 -0.2295 0.6402
vn -0.6402 -0.2295 0.7331
vn -0.7093 -0.6057 0.3606
vn -0.6637 -0.6549 0.3614
vn -0.2035 -0.1332 0.9700
vn -0.3606 -0.6057 0.7093
vn -0.3615 -0.6549 0.6637
vn -0.2527 -0.9340 0.2527
vn -0.9797 0.0819 0.1830
vn -0.7317 0.0948 0.6750
vn -0.6750 0.0948 0.7317
vn -0.7721 0.4554 0.4433
vn -0.7001 0.5539 0.4506
vn -0.7821 0.5485 0.2959
vn -0.1830 0.0819 0.9797
vn -0.4433 0.4554 0.7721
vn -0.2959 0.5485 0.7821
vn -0.4506 0.5539 0.7001
vn -0.3920 0.8323 0.3920
vn -0.7001 -0.5539 0.4506
vn -0.7821 -0.5485 0.2959
vn -0.7721 -0.4554 0.4433
vn -0.2959 -0.5485 0.7821
vn -0.4506 -0.5539 0.7001
vn -0.4433 -0.4554 0.7721
vn -0.3920 -0.8323 0.3920
vn -0.9797 -0.0819 0.1830
vn -0.9700 0.1332 0.2035
vn -0.7317 -0.0948 0.6750
vn -0.6750 -0.0948 0.7317
vn -0.7331 0.2295 0.6402
vn -0.6402 0.2295 0.7331
vn -0.6637 0.6549 0.3614
vn -0.7093 0.6057 0.3606
vn -0.1830 -0.0819 0.9797
vn -0.2035 0.1332 0.9700
vn -0.3614 0.6549 0.6637
vn -0.3606 0.6057 0.7093
vn -0.2527 0.9340 0.2527
vn -0.9829 -0.1839 -0.0000
vn -0.9700 -0.1332 -0.2035
vn -0.6803 -0.7329 -0.0000
vn -0.7934 -0.6087 -0.0000
vn -0.7093 -0.6057 -0.3606
vn -0.6637 -0.6549 -0.3614
vn -0.6402 -0.2295 -0.7331
vn -0.7331 -0.2295 -0.6402
vn -0.3167 -0.9485 -0.0000
vn -0.2527 -0.9340 -0.2527
vn -0.3606 -0.6057 -0.7093
vn -0.3614 -0.6549 -0.6637
vn -0.2035 -0.1332 -0.9700
vn -0.9937 0.1117 -0.0000
vn -0.9824 0.1869 -0.0000
vn -0.9797 0.0819 -0.1830
vn -0.7821 0.5485 -0.2959
vn -0.5180 0.8554 -0.0000
vn -0.6750 0.0948 -0.7317
vn -0.7721 0.4554 -0.4433
vn -0.7001 0.5539 -0.4506
vn -0.7317 0.0948 -0.6750
vn -0.4884 0.8726 -0.0000
vn -0.4916 0.8708 -0.0000
vn -0.4506 0.5539 -0.7001
vn -0.3920 0.8323 -0.3920
vn -0.1830 0.0819 -0.9797
vn -0.4433 0.4554 -0.7721
vn -0.2959 0.5485 -0.7821
vn -0.9824 -0.1869 -0.0000
vn -0.5180 -0.8554 -0.0000
vn -0.7821 -0.5485 -0.2959
vn -0.7001 -0.5539 -0.4506
vn -0.7721 -0.4554 -0.4433
vn -0.4916 -0.8708 -0.0000
vn -0.4884 -0.8726 -0.0000
vn -0.3920 -0.8323 -0.3920
vn -0.4506 -0.5539 -0.7001
vn -0.2959 -0.5485 -0.7821
vn -0.4433 -0.4554 -0.7721
vn -0.9937 -0.1117 -0.0000
vn -0.9829 0.1839 -0.0000
vn -0.9797 -0.0819 -0.1830
vn -0.9700 0.1332 -0.2035
vn -0.7934 0.6087 -0.0000
vn -0.6803 0.7329 -0.0000
vn -0.6750 -0.0948 -0.7317
vn -0.6402 0.2295 -0.7331
vn -0.6637 0.6549 -0.3614
vn -0.7093 0.6057 -0.3606
vn -0.7317 -0.0948 -0.6750
vn -0.7331 0.2295 -0.6402
vn -0.3167 0.9485 -0.0000
vn -0.3606 0.6057 -0.7093
vn -0.2527 0.9340 -0.2527
vn -0.1830 -0.0819 -0.9797
vn -0.2035 0.1332 -0.9700
vn -0.3615 0.6548 -0.6637
vn -0.0000 -0.1839 0.9829
vn -0.0000 -0.7329 0.6803
vn -0.0000 -0.6087 0.7934
vn -0.0000 -0.9485 0.3167
vn 0.2035 -0.1332 0.9700
vn 0.3606 -0.6057 0.7093
vn 0.3615 -0.6548 0.6637
vn 0.7331 -0.2295 0.6402
vn 0.2527 -0.9340 0.2527
vn 0.7093 -0.6057 0.3606
vn 0.6402 -0.2295 0.7331
vn 0.6637 -0.6549 0.3614
vn 0.9700 -0.1332 0.2035
vn -0.0000 0.1117 0.9937
vn -0.0000 0.1869 0.9824
vn 0.2959 0.5485 0.7821
vn -0.0000 0.8554 0.5180
vn -0.0000 0.8726 0.4884
vn -0.0000 0.8708 0.4916
vn 0.1830 0.0819 0.9797
vn 0.7317 0.0948 0.6750
vn 0.4433 0.4554 0.7721
vn 0.4506 0.5539 0.7001
vn 0.7001 0.5539 0.4506
vn 0.3920 0.8323 0.3920
vn 0.6750 0.0948 0.7317
vn 0.9797 0.0819 0.1830
vn 0.7721 0.4554 0.4433
vn 0.7821 0.5485 0.2959
vn -0.0000 -0.1869 0.9824
vn -0.0000 -0.8554 0.5180
vn 0.2959 -0.5485 0.7821
vn -0.0000 -0.8708 0.4916
vn -0.0000 -0.8726 0.4884
vn 0.4506 -0.5539 0.7001
vn 0.4433 -0.4554 0.7721
vn 0.3920 -0.8323 0.3920
vn 0.7001 -0.5539 0.4506
vn 0.7821 -0.5485 0.2959
vn 0.7721 -0.4554 0.4433
vn -0.0000 -0.1117 0.9937
vn -0.0000 0.1839 0.9829
vn -0.0000 0.6087 0.7934
vn -0.0000 0.7329 0.6803
vn -0.0000 0.9485 0.3167
vn 0.1830 -0.0819 0.9797
vn 0.2035 0.1332 0.9700
vn 0.7317 -0.0948 0.6750
vn 0.7331 0.2295 0.6402
vn 0.3615 0.6549 0.6637
vn 0.3606 0.6057 0.7093
vn 0.7093 0.6057 0.3606
vn 0.2527 0.9340 0.2527
vn 0.6750 -0.0948 0.7317
vn 0.6402 0.2295 0.7331
vn 0.9797 -0.0819 0.1830
vn 0.9700 0.1332 0.2035
vn 0.6637 0.6549 0.3614
vn -0.0000 -1.0000 -0.0000
vn -0.0000 -0.9485 -0.3167
vn -0.0000 -0.7329 -0.6803
vn -0.0000 -0.6087 -0.7934
vn -0.0000 -0.1839 -0.9829
vn 0.3167 -0.9485 -0.0000
vn 0.6803 -0.7329 -0.0000
vn 0.2527 -0.9340 -0.2527
vn 0.7093 -0.6057 -0.3606
vn 0.3606 -0.6057 -0.7093
vn 0.3615 -0.6548 -0.6637
vn 0.7331 -0.2295 -0.6402
vn 0.2035 -0.1332 -0.9700
vn 0.7934 -0.6087 -0.0000
vn 0.9829 -0.1839 -0.0000
vn 0.6637 -0.6549 -0.3614
vn 0.9700 -0.1332 -0.2035
vn 0.6402 -0.2295 -0.7331
vn 0.4916 0.8708 -0.0000
vn -0.0000 0.8708 -0.4916
vn -0.0000 1.0000 -0.0000
vn -0.0000 0.8726 -0.4884
vn -0.0000 0.1117 -0.9937
vn 0.2959 0.5485 -0.7821
vn -0.0000 0.1869 -0.9824
vn -0.0000 0.8554 -0.5180
vn 0.4884 0.8726 -0.0000
vn 0.7001 0.5539 -0.4506
vn 0.4506 0.5539 -0.7001
vn 0.3920 0.8323 -0.3920
vn 0.7317 0.0948 -0.6750
vn 0.1830 0.0819 -0.9797
vn 0.4433 0.4554 -0.7721
vn 0.9937 0.1117 -0.0000
vn 0.9824 0.1869 -0.0000
vn 0.7821 0.5485 -0.2959
vn 0.5180 0.8554 -0.0000
vn 0.9797 0.0819 -0.1830
vn 0.6750 0.0948 -0.7317
vn 0.7721 0.4554 -0.4433
vn 0.4916 -0.8708 -0.0000
vn -0.0000 -0.8708 -0.4916
vn -0.0000 -0.8726 -0.4884
vn -0.0000 -0.8554 -0.5180
vn 0.2959 -0.5485 -0.7821
vn -0.0000 -0.1869 -0.9824
vn 0.4884 -0.8726 -0.0000
vn 0.3920 -0.8323 -0.3920
vn 0.7001 -0.5539 -0.4506
vn 0.4506 -0.5539 -0.7001
vn 0.4433 -0.4554 -0.7721
vn 0.5180 -0.8554 -0.0000
vn 0.9824 -0.1869 -0.0000
vn 0.7821 -0.5485 -0.2959
vn 0.7721 -0.4554 -0.4433
vn -0.0000 0.7329 -0.6803
vn -0.0000 0.9485 -0.3167
vn -0.0000 -0.1117 -0.9937
vn -0.0000 0.1839 -0.9829
vn -0.0000 0.6087 -0.7934
vn 0.6803 0.7329 -0.0000
vn 0.3167 0.9485 -0.0000
vn 0.7093 0.6057 -0.3606
vn 0.3606 0.6057 -0.7093
vn 0.2527 0.9340 -0.2527
vn 0.7317 -0.0948 -0.6750
vn 0.1830 -0.0819 -0.9797
vn 0.7331 0.2295 -0.6402
vn 0.2035 0.1332 -0.9700
vn 0.3614 0.6549 -0.6637
vn 0.9937 -0.1117 -0.0000
vn 0.9829 0.1839 -0.0000
vn 0.7934 0.6087 -0.0000
vn 0.9797 -0.0819 -0.1830
vn 0.6750 -0.0948 -0.7317
vn 0.9700 0.1332 -0.2035
vn 0.6402 0.2295 -0.7331
vn 0.6637 0.6549 -0.3614
s 0
f 3//1 1//1 2//1 4//1
f 8//2 5//2 6//2 9//2
f 2//3 1//3 8//3 9//3
f 10//4 7//4 8//4 11//4
f 11//5 8//5 1//5 3//5
f 6//6 5//6 12//6 13//6
f 8//7 7//7 14//7 15//7
f 15//8 12//8 5//8 8//8
f 16//9 14//9 7//9 10//9
f 4//10 2//10 17//10 18//10
f 9//11 6//11 20//11 21//11
f 17//12 2//12 9//12 21//12
f 18//13 17//13 21//13 23//13
f 23//14 21//14 22//14 24//14
f 19//15 18//15 23//15 24//15
f 20//16 6//16 13//16 25//16
f 21//17 20//17 25//17 27//17
f 27//18 25//18 26//18 28//18
f 22//19 21//19 27//19 28//19
f 24//20 22//20 28//20 29//20
f 37//21 35//21 36//21 38//21
f 33//22 32//22 37//22 38//22
f 38//23 36//23 31//23 33//23
f 41//24 39//24 40//24 42//24
f 36//25 35//25 41//25 42//25
f 42//26 40//26 34//26 36//26
f 44//27 41//27 35//27 37//27
f 33//28 31//28 45//28 47//28
f 47//29 45//29 46//29 48//29
f 36//30 34//30 49//30 51//30
f 45//31 31//31 36//31 51//31
f 51//32 49//32 50//32 52//32
f 46//33 45//33 51//33 52//33
f 48//34 46//34 52//34 54//34
f 54//35 52//35 53//35 55//35
f 49//36 34//36 40//36 56//36
f 50//37 49//37 56//37 57//37
f 52//38 50//38 57//38 58//38
f 53//39 52//39 58//39 59//39
f 55//40 53//40 59//40 60//40
f 61//41 3//41 4//41 62//41
f 63//42 61//42 62//42 64//42
f 65//43 10//43 11//43 66//43
f 66//44 11//44 3//44 61//44
f 67//45 65//45 66//45 68//45
f 68//46 66//46 61//46 63//46
f 69//47 68//47 63//47 64//47
f 70//48 68//48 69//48 71//48
f 72//49 16//49 10//49 65//49
f 73//50 72//50 65//50 67//50
f 74//51 73//51 67//51 68//51
f 75//52 74//52 68//52 70//52
f 76//53 75//53 70//53 71//53
f 62//54 4//54 18//54 77//54
f 77//55 18//55 19//55 78//55
f 64//56 62//56 77//56 79//56
f 81//57 80//57 77//57 78//57
f 78//58 19//58 24//58 81//58
f 82//59 69//59 64//59 79//59
f 79//60 77//60 80//60 82//60
f 82//61 80//61 81//61 83//61
f 71//62 69//62 82//62 84//62
f 81//63 24//63 29//63 85//63
f 85//64 29//64 30//64 86//64
f 88//65 87//65 82//65 83//65
f 83//66 81//66 85//66 88//66
f 89//67 76//67 71//67 84//67
f 84//68 82//68 87//68 89//68
f 89//69 87//69 88//69 90//69
f 91//70 32//70 33//70 92//70
f 94//71 37//71 32//71 91//71
f 95//72 94//72 91//72 92//72
f 96//73 94//73 95//73 97//73
f 97//74 95//74 92//74 93//74
f 99//75 43//75 44//75 100//75
f 100//76 44//76 37//76 94//76
f 101//77 100//77 94//77 96//77
f 102//78 101//78 96//78 97//78
f 103//79 101//79 102//79 104//79
f 104//80 102//80 97//80 98//80
f 92//81 33//81 47//81 105//81
f 105//82 47//82 48//82 106//82
f 93//83 92//83 105//83 107//83
f 107//84 105//84 106//84 108//84
f 106//85 48//85 54//85 109//85
f 109//86 54//86 55//86 110//86
f 111//87 97//87 93//87 107//87
f 112//88 111//88 107//88 108//88
f 108//89 106//89 109//89 112//89
f 112//90 109//90 110//90 113//90
f 98//91 97//91 111//91 114//91
f 114//92 111//92 112//92 115//92
f 110//93 55//93 60//93 116//93
f 118//94 117//94 112//94 113//94
f 113//95 110//95 116//95 118//95
f 119//96 104//96 98//96 114//96
f 120//97 119//97 114//97 115//97
f 115//98 112//98 117//98 120//98
f 13//99 12//99 121//99 122//99
f 15//100 14//100 123//100 124//100
f 124//101 121//101 12//101 15//101
f 125//102 123//102 14//102 16//102
f 122//103 121//103 126//103 127//103
f 124//104 123//104 128//104 129//104
f 129//105 126//105 121//105 124//105
f 130//106 127//106 126//106 129//106
f 131//107 128//107 123//107 125//107
f 132//108 129//108 128//108 131//108
f 130//109 129//109 133//109 134//109
f 135//110 133//110 129//110 132//110
f 136//111 134//111 133//111 135//111
f 25//112 13//112 122//112 137//112
f 26//113 25//113 137//113 138//113
f 140//114 138//114 137//114 139//114
f 28//115 26//115 138//115 140//115
f 29//116 28//116 140//116 141//116
f 30//117 29//117 141//117 142//117
f 137//118 122//118 127//118 143//118
f 144//119 143//119 127//119 130//119
f 139//120 137//120 143//120 144//120
f 140//121 139//121 144//121 145//121
f 147//122 145//122 144//122 146//122
f 141//123 140//123 145//123 147//123
f 144//124 130//124 134//124 148//124
f 149//125 148//125 134//125 136//125
f 146//126 144//126 148//126 149//126
f 147//127 146//127 149//127 150//127
f 40//128 39//128 151//128 152//128
f 153//129 151//129 39//129 41//129
f 154//130 152//130 151//130 153//130
f 44//131 43//131 155//131 156//131
f 156//132 153//132 41//132 44//132
f 154//133 153//133 158//133 159//133
f 159//134 157//134 152//134 154//134
f 160//135 158//135 153//135 156//135
f 161//136 159//136 158//136 160//136
f 161//137 160//137 163//137 164//137
f 164//138 162//138 159//138 161//138
f 56//139 40//139 152//139 165//139
f 57//140 56//140 165//140 166//140
f 58//141 57//141 166//141 167//141
f 59//142 58//142 167//142 168//142
f 60//143 59//143 168//143 169//143
f 165//144 152//144 157//144 170//144
f 166//145 165//145 170//145 171//145
f 172//146 170//146 157//146 159//146
f 173//147 171//147 170//147 172//147
f 167//148 166//148 171//148 173//148
f 168//149 167//149 173//149 174//149
f 176//150 174//150 173//150 175//150
f 169//151 168//151 174//151 176//151
f 172//152 159//152 162//152 177//152
f 173//153 172//153 177//153 178//153
f 179//154 177//154 162//154 164//154
f 180//155 178//155 177//155 179//155
f 175//156 173//156 178//156 180//156
f 181//157 125//157 16//157 72//157
f 182//158 181//158 72//158 73//158
f 183//159 182//159 73//159 74//159
f 184//160 183//160 74//160 75//160
f 185//161 184//161 75//161 76//161
f 186//162 131//162 125//162 181//162
f 187//163 132//163 131//163 186//163
f 188//164 186//164 181//164 182//164
f 189//165 187//165 186//165 188//165
f 189//166 188//166 182//166 183//166
f 191//167 189//167 183//167 184//167
f 192//168 190//168 189//168 191//168
f 192//169 191//169 184//169 185//169
f 193//170 135//170 132//170 187//170
f 194//171 136//171 135//171 193//171
f 195//172 193//172 187//172 189//172
f 196//173 194//173 193//173 195//173
f 196//174 195//174 189//174 190//174
f 198//175 142//175 141//175 197//175
f 198//176 197//176 85//176 86//176
f 86//177 30//177 142//177 198//177
f 88//178 85//178 197//178 200//178
f 201//179 185//179 76//179 89//179
f 202//180 200//180 199//180 201//180
f 202//181 201//181 89//181 90//181
f 90//182 88//182 200//182 202//182
f 197//183 141//183 147//183 204//183
f 206//184 204//184 203//184 205//184
f 206//185 205//185 199//185 200//185
f 200//186 197//186 204//186 206//186
f 207//187 205//187 190//187 192//187
f 207//188 192//188 185//188 201//188
f 201//189 199//189 205//189 207//189
f 208//190 149//190 136//190 194//190
f 209//191 150//191 149//191 208//191
f 209//192 208//192 203//192 204//192
f 204//193 147//193 150//193 209//193
f 210//194 208//194 194//194 196//194
f 210//195 196//195 190//195 205//195
f 205//196 203//196 208//196 210//196
f 211//157 155//157 43//157 99//157
f 212//197 156//197 155//197 211//197
f 212//198 211//198 99//198 100//198
f 213//199 212//199 100//199 101//199
f 215//200 213//200 101//200 103//200
f 216//201 214//201 213//201 215//201
f 216//202 215//202 103//202 104//202
f 217//203 160//203 156//203 212//203
f 219//204 217//204 212//204 213//204
f 220//205 218//205 217//205 219//205
f 220//206 219//206 213//206 214//206
f 221//207 220//207 214//207 216//207
f 222//208 163//208 160//208 217//208
f 223//209 164//209 163//209 222//209
f 223//210 222//210 217//210 218//210
f 224//211 223//211 218//211 220//211
f 116//177 60//177 169//177 225//177
f 227//212 226//212 117//212 118//212
f 118//213 116//213 225//213 227//213
f 228//214 216//214 104//214 119//214
f 229//215 228//215 119//215 120//215
f 120//216 117//216 226//216 229//216
f 231//217 176//217 175//217 230//217
f 225//218 169//218 176//218 231//218
f 234//219 231//219 230//219 233//219
f 234//220 233//220 226//220 227//220
f 227//221 225//221 231//221 234//221
f 235//222 232//222 220//222 221//222
f 235//223 221//223 216//223 228//223
f 236//224 233//224 232//224 235//224
f 236//225 235//225 228//225 229//225
f 229//226 226//226 233//226 236//226
f 237//227 179//227 164//227 223//227
f 238//228 180//228 179//228 237//228
f 230//229 175//229 180//229 238//229
f 239//230 237//230 223//230 224//230
f 239//231 224//231 220//231 232//231
f 240//232 238//232 237//232 239//232
f 240//233 239//233 232//233 233//233
f 233//234 230//234 238//234 240//234
