# Blender 3.5.1
# www.blender.org
o Cube300
v -114.597229 79.487801 -79.487801
v -114.649841 80.000000 -79.388611
v -114.649841 79.388611 -80.000000
v -114.802681 80.000000 -80.000000
v -113.756462 79.254028 -78.334343
v -113.888519 80.000000 -78.202286
v -113.756462 78.334343 -79.254028
v -114.089798 79.037582 -79.037582
v -114.388519 80.000000 -78.888611
v -113.888519 78.202286 -80.000000
v -114.388519 78.888611 -80.000000
v -112.603004 79.487801 -77.493576
v -112.702194 80.000000 -77.440964
v -112.836777 78.334343 -78.334343
v -113.053223 79.037582 -78.001007
v -113.202194 80.000000 -77.702286
v -112.603004 77.493576 -79.487801
v -113.053223 78.001007 -79.037582
v -113.503441 78.587364 -78.587364
v -112.702194 77.440964 -80.000000
v -113.202194 77.702286 -80.000000
v -112.090805 79.388611 -77.440964
v -112.090805 80.000000 -77.288124
v -112.090805 78.202286 -78.202286
v -112.090805 78.888611 -77.702286
v -112.090805 77.440964 -79.388611
v -112.090805 77.702286 -78.888611
v -112.090805 77.288124 -80.000000
v -114.649841 81.000000 -79.388611
v -114.597229 81.512199 -79.487801
v -114.802681 81.000000 -80.000000
v -114.649841 81.611389 -80.000000
v -113.888519 81.000000 -78.202286
v -113.756462 81.745972 -78.334343
v -114.388519 81.000000 -78.888611
v -114.089798 81.962418 -79.037582
v -113.756462 82.665657 -79.254028
v -114.388519 82.111389 -80.000000
v -113.888519 82.797714 -80.000000
v -112.702194 81.000000 -77.440964
v -112.603004 81.512199 -77.493576
v -113.202194 81.000000 -77.702286
v -113.053223 81.962418 -78.001007
v -112.836777 82.665657 -78.334343
v -113.503441 82.412636 -78.587364
v -113.053223 82.998993 -79.037582
v -112.603004 83.506424 -79.487801
v -113.202194 83.297714 -80.000000
v -112.702194 83.559036 -80.000000
v -112.090805 81.000000 -77.288124
v -112.090805 81.611389 -77.440964
v -112.090805 82.111389 -77.702286
v -112.090805 82.797714 -78.202286
v -112.090805 83.297714 -78.888611
v -112.090805 83.559036 -79.388611
v -112.090805 83.711876 -80.000000
v -114.649841 79.388611 -81.000000
v -114.802681 80.000000 -81.000000
v -114.597229 79.487801 -81.512199
v -114.649841 80.000000 -81.611389
v -113.888519 78.202286 -81.000000
v -114.388519 78.888611 -81.000000
v -113.756462 78.334343 -81.745972
v -114.089798 79.037582 -81.962418
v -114.388519 80.000000 -82.111389
v -113.756462 79.254028 -82.665657
v -113.888519 80.000000 -82.797714
v -112.702194 77.440964 -81.000000
v -113.202194 77.702286 -81.000000
v -112.603004 77.493576 -81.512199
v -113.053223 78.001007 -81.962418
v -113.503441 78.587364 -82.412636
v -112.836777 78.334343 -82.665657
v -113.053223 79.037582 -82.998993
v -113.202194 80.000000 -83.297714
v -112.603004 79.487801 -83.506424
v -112.702194 80.000000 -83.559036
v -112.090805 77.288124 -81.000000
v -112.090805 77.440964 -81.611389
v -112.090805 77.702286 -82.111389
v -112.090805 78.202286 -82.797714
v -112.090805 78.888611 -83.297714
v -112.090805 79.388611 -83.559036
v -112.090805 80.000000 -83.711876
v -114.802681 81.000000 -81.000000
v -114.649841 81.611389 -81.000000
v -114.649841 81.000000 -81.611389
v -114.597229 81.512199 -81.512199
v -114.388519 82.111389 -81.000000
v -113.888519 82.797714 -81.000000
v -114.388519 81.000000 -82.111389
v -114.089798 81.962418 -81.962418
v -113.756462 82.665657 -81.745972
v -113.888519 81.000000 -82.797714
v -113.756462 81.745972 -82.665657
v -113.202194 83.297714 -81.000000
v -112.702194 83.559036 -81.000000
v -113.503441 82.412636 -82.412636
v -113.053223 82.998993 -81.962418
v -112.603004 83.506424 -81.512199
v -113.202194 81.000000 -83.297714
v -113.053223 81.962418 -82.998993
v -112.836777 82.665657 -82.665657
v -112.702194 81.000000 -83.559036
v -112.603004 81.512199 -83.506424
v -112.090805 83.711876 -81.000000
v -112.090805 83.297714 -82.111389
v -112.090805 83.559036 -81.611389
v -112.090805 82.111389 -83.297714
v -112.090805 82.797714 -82.797714
v -112.090805 81.000000 -83.711876
v -112.090805 81.611389 -83.559036
v -111.090805 79.388611 -77.440964
v -111.090805 80.000000 -77.288124
v -111.090805 78.202286 -78.202286
v -111.090805 78.888611 -77.702286
v -111.090805 77.440964 -79.388611
v -111.090805 77.702286 -78.888611
v -111.090805 77.288124 -80.000000
v -110.578606 79.487801 -77.493576
v -110.479416 80.000000 -77.440964
v -110.344833 78.334343 -78.334343
v -110.128387 79.037582 -78.001007
v -109.979416 80.000000 -77.702286
v -110.578606 77.493576 -79.487801
v -110.128387 78.001007 -79.037582
v -109.678169 78.587364 -78.587364
v -110.479416 77.440964 -80.000000
v -109.979416 77.702286 -80.000000
v -109.425148 79.254028 -78.334343
v -109.293091 80.000000 -78.202286
v -109.425148 78.334343 -79.254028
v -109.091812 79.037582 -79.037582
v -108.793091 80.000000 -78.888611
v -109.293091 78.202286 -80.000000
v -108.793091 78.888611 -80.000000
v -108.584381 79.487801 -79.487801
v -108.531769 80.000000 -79.388611
v -108.531769 79.388611 -80.000000
v -108.378929 80.000000 -80.000000
v -111.090805 81.000000 -77.288124
v -111.090805 81.611389 -77.440964
v -111.090805 82.111389 -77.702286
v -111.090805 82.797714 -78.202286
v -111.090805 83.297714 -78.888611
v -111.090805 83.559036 -79.388611
v -111.090805 83.711876 -80.000000
v -110.479416 81.000000 -77.440964
v -110.578606 81.512199 -77.493576
v -109.979416 81.000000 -77.702286
v -110.128387 81.962418 -78.001007
v -110.344833 82.665657 -78.334343
v -109.678169 82.412636 -78.587364
v -110.128387 82.998993 -79.037582
v -110.578606 83.506424 -79.487801
v -109.979416 83.297714 -80.000000
v -110.479416 83.559036 -80.000000
v -109.293091 81.000000 -78.202286
v -109.425148 81.745972 -78.334343
v -108.793091 81.000000 -78.888611
v -109.091812 81.962418 -79.037582
v -109.425148 82.665657 -79.254028
v -108.793091 82.111389 -80.000000
v -109.293091 82.797714 -80.000000
v -108.531769 81.000000 -79.388611
v -108.584381 81.512199 -79.487801
v -108.378929 81.000000 -80.000000
v -108.531769 81.611389 -80.000000
v -111.090805 77.288124 -81.000000
v -111.090805 77.440964 -81.611389
v -111.090805 77.702286 -82.111389
v -111.090805 78.202286 -82.797714
v -111.090805 78.888611 -83.297714
v -111.090805 79.388611 -83.559036
v -111.090805 80.000000 -83.711876
v -110.479416 77.440964 -81.000000
v -109.979416 77.702286 -81.000000
v -110.578606 77.493576 -81.512199
v -110.128387 78.001007 -81.962418
v -109.678169 78.587364 -82.412636
v -110.344833 78.334343 -82.665657
v -110.128387 79.037582 -82.998993
v -109.979416 80.000000 -83.297714
v -110.578606 79.487801 -83.506424
v -110.479416 80.000000 -83.559036
v -109.293091 78.202286 -81.000000
v -108.793091 78.888611 -81.000000
v -109.425148 78.334343 -81.745972
v -109.091812 79.037582 -81.962418
v -108.793091 80.000000 -82.111389
v -109.425148 79.254028 -82.665657
v -109.293091 80.000000 -82.797714
v -108.531769 79.388611 -81.000000
v -108.378929 80.000000 -81.000000
v -108.584381 79.487801 -81.512199
v -108.531769 80.000000 -81.611389
v -111.090805 83.711876 -81.000000
v -111.090805 83.297714 -82.111389
v -111.090805 83.559036 -81.611389
v -111.090805 82.111389 -83.297714
v -111.090805 82.797714 -82.797714
v -111.090805 81.000000 -83.711876
v -111.090805 81.611389 -83.559036
v -109.979416 83.297714 -81.000000
v -110.479416 83.559036 -81.000000
v -109.678169 82.412636 -82.412636
v -110.128387 82.998993 -81.962418
v -110.578606 83.506424 -81.512199
v -109.979416 81.000000 -83.297714
v -110.128387 81.962418 -82.998993
v -110.344833 82.665657 -82.665657
v -110.479416 81.000000 -83.559036
v -110.578606 81.512199 -83.506424
v -108.793091 82.111389 -81.000000
v -109.293091 82.797714 -81.000000
v -108.793091 81.000000 -82.111389
v -109.091812 81.962418 -81.962418
v -109.425148 82.665657 -81.745972
v -109.293091 81.000000 -82.797714
v -109.425148 81.745972 -82.665657
v -108.378929 81.000000 -81.000000
v -108.531769 81.611389 -81.000000
v -108.531769 81.000000 -81.611389
v -108.584381 81.512199 -81.512199
vn -0.9621 -0.1930 0.1929
vn -0.8007 -0.2883 0.5251
vn -0.8069 -0.2798 0.5202
vn -0.8007 -0.5251 0.2883
vn -0.8069 -0.5202 0.2798
vn -0.5202 -0.2798 0.8069
vn -0.5251 -0.2883 0.8007
vn -0.4729 -0.6230 0.6230
vn -0.6230 -0.6230 0.4729
vn -0.6230 -0.4729 0.6230
vn -0.5202 -0.8069 0.2798
vn -0.5251 -0.8007 0.2883
vn -0.1930 -0.1929 0.9621
vn -0.2883 -0.5251 0.8007
vn -0.2798 -0.5202 0.8069
vn -0.2798 -0.8069 0.5202
vn -0.2883 -0.8007 0.5251
vn -0.1929 -0.9621 0.1929
vn -0.9701 -0.0000 0.2425
vn -0.9621 0.1929 0.1929
vn -0.8083 -0.0000 0.5888
vn -0.8863 -0.0000 0.4632
vn -0.8007 0.2883 0.5251
vn -0.8069 0.2798 0.5202
vn -0.8069 0.5202 0.2798
vn -0.8007 0.5251 0.2883
vn -0.4632 -0.0000 0.8863
vn -0.5888 -0.0000 0.8083
vn -0.5202 0.2798 0.8069
vn -0.5251 0.2883 0.8007
vn -0.6230 0.4729 0.6230
vn -0.4729 0.6230 0.6230
vn -0.6230 0.6230 0.4729
vn -0.5251 0.8007 0.2883
vn -0.5202 0.8069 0.2798
vn -0.2425 -0.0000 0.9701
vn -0.1929 0.1929 0.9621
vn -0.2798 0.5202 0.8069
vn -0.2883 0.5251 0.8007
vn -0.2883 0.8007 0.5251
vn -0.2798 0.8069 0.5202
vn -0.1929 0.9621 0.1930
vn -0.9701 -0.2425 -0.0000
vn -0.9621 -0.1929 -0.1929
vn -0.8083 -0.5888 -0.0000
vn -0.8863 -0.4632 -0.0000
vn -0.8007 -0.5251 -0.2883
vn -0.8069 -0.5202 -0.2798
vn -0.8069 -0.2798 -0.5202
vn -0.8007 -0.2883 -0.5251
vn -0.4632 -0.8863 -0.0000
vn -0.5888 -0.8083 -0.0000
vn -0.5202 -0.8069 -0.2798
vn -0.5251 -0.8007 -0.2883
vn -0.6230 -0.6230 -0.4729
vn -0.4729 -0.6230 -0.6230
vn -0.6230 -0.4729 -0.6230
vn -0.5251 -0.2883 -0.8007
vn -0.5202 -0.2798 -0.8069
vn -0.2425 -0.9701 -0.0000
vn -0.1929 -0.9621 -0.1929
vn -0.2798 -0.8069 -0.5202
vn -0.2883 -0.8007 -0.5251
vn -0.2883 -0.5251 -0.8007
vn -0.2798 -0.5202 -0.8069
vn -0.1930 -0.1929 -0.9621
vn -1.0000 -0.0000 -0.0000
vn -0.9701 0.2425 -0.0000
vn -0.9701 -0.0000 -0.2425
vn -0.9621 0.1929 -0.1929
vn -0.8863 0.4632 -0.0000
vn -0.8083 0.5888 -0.0000
vn -0.8863 -0.0000 -0.4632
vn -0.8069 0.2798 -0.5202
vn -0.8069 0.5202 -0.2798
vn -0.8007 0.5251 -0.2883
vn -0.8083 -0.0000 -0.5888
vn -0.8007 0.2883 -0.5251
vn -0.5888 0.8083 -0.0000
vn -0.4632 0.8863 -0.0000
vn -0.6230 0.6230 -0.4729
vn -0.5251 0.8007 -0.2883
vn -0.5202 0.8069 -0.2798
vn -0.5888 -0.0000 -0.8083
vn -0.5251 0.2883 -0.8007
vn -0.6230 0.4729 -0.6230
vn -0.4729 0.6230 -0.6230
vn -0.4632 -0.0000 -0.8863
vn -0.5202 0.2798 -0.8069
vn -0.2425 0.9701 -0.0000
vn -0.2798 0.8069 -0.5202
vn -0.1929 0.9621 -0.1929
vn -0.2883 0.5251 -0.8007
vn -0.2883 0.8007 -0.5251
vn -0.2425 -0.0000 -0.9701
vn -0.1930 0.1929 -0.9621
vn -0.2798 0.5202 -0.8069
vn -0.0000 -0.2425 0.9701
vn -0.0000 -0.5888 0.8083
vn -0.0000 -0.4632 0.8863
vn -0.0000 -0.8863 0.4632
vn -0.0000 -0.8083 0.5888
vn -0.0000 -0.9701 0.2425
vn 0.1929 -0.1929 0.9621
vn 0.2883 -0.5251 0.8007
vn 0.2798 -0.5202 0.8069
vn 0.5202 -0.2798 0.8069
vn 0.2798 -0.8069 0.5202
vn 0.2883 -0.8007 0.5251
vn 0.4729 -0.6230 0.6230
vn 0.1929 -0.9621 0.1929
vn 0.5202 -0.8069 0.2798
vn 0.5251 -0.2883 0.8007
vn 0.6230 -0.6230 0.4729
vn 0.6230 -0.4729 0.6230
vn 0.8007 -0.2883 0.5251
vn 0.5251 -0.8007 0.2883
vn 0.8007 -0.5251 0.2883
vn 0.8069 -0.2798 0.5202
vn 0.8069 -0.5202 0.2798
vn 0.9621 -0.1929 0.1929
vn -0.0000 -0.0000 1.0000
vn -0.0000 0.2425 0.9701
vn -0.0000 0.4632 0.8863
vn -0.0000 0.5888 0.8083
vn -0.0000 0.8083 0.5888
vn -0.0000 0.8863 0.4632
vn -0.0000 0.9701 0.2425
vn 0.2425 -0.0000 0.9701
vn 0.1929 0.1929 0.9621
vn 0.4632 -0.0000 0.8863
vn 0.5202 0.2798 0.8069
vn 0.2798 0.5202 0.8069
vn 0.2883 0.5251 0.8007
vn 0.4729 0.6230 0.6230
vn 0.2883 0.8007 0.5251
vn 0.2798 0.8069 0.5202
vn 0.5202 0.8069 0.2798
vn 0.1929 0.9621 0.1929
vn 0.5888 -0.0000 0.8083
vn 0.5251 0.2883 0.8007
vn 0.8083 -0.0000 0.5888
vn 0.8007 0.2883 0.5251
vn 0.6230 0.4729 0.6230
vn 0.6230 0.6230 0.4729
vn 0.8007 0.5251 0.2883
vn 0.5251 0.8007 0.2883
vn 0.8863 -0.0000 0.4632
vn 0.8069 0.2798 0.5202
vn 0.9701 -0.0000 0.2425
vn 0.9621 0.1930 0.1929
vn 0.8069 0.5202 0.2798
vn -0.0000 -1.0000 -0.0000
vn -0.0000 -0.9701 -0.2425
vn -0.0000 -0.8863 -0.4632
vn -0.0000 -0.8083 -0.5888
vn -0.0000 -0.5888 -0.8083
vn -0.0000 -0.4632 -0.8863
vn -0.0000 -0.2425 -0.9701
vn 0.2425 -0.9701 -0.0000
vn 0.4632 -0.8863 -0.0000
vn 0.1929 -0.9621 -0.1929
vn 0.5202 -0.8069 -0.2798
vn 0.2798 -0.8069 -0.5202
vn 0.2883 -0.8007 -0.5251
vn 0.4729 -0.6230 -0.6230
vn 0.2883 -0.5251 -0.8007
vn 0.2798 -0.5202 -0.8069
vn 0.5202 -0.2798 -0.8069
vn 0.1930 -0.1929 -0.9621
vn 0.5888 -0.8083 -0.0000
vn 0.8083 -0.5888 -0.0000
vn 0.5251 -0.8007 -0.2883
vn 0.8007 -0.5251 -0.2883
vn 0.6230 -0.6230 -0.4729
vn 0.6230 -0.4729 -0.6230
vn 0.8007 -0.2883 -0.5251
vn 0.5251 -0.2883 -0.8007
vn 0.8863 -0.4632 -0.0000
vn 0.9701 -0.2425 -0.0000
vn 0.8069 -0.5202 -0.2798
vn 0.9621 -0.1929 -0.1929
vn 0.8069 -0.2798 -0.5202
vn -0.0000 1.0000 -0.0000
vn -0.0000 0.8863 -0.4632
vn -0.0000 0.9701 -0.2425
vn -0.0000 0.5888 -0.8083
vn -0.0000 0.8083 -0.5888
vn -0.0000 -0.0000 -1.0000
vn -0.0000 0.2425 -0.9701
vn -0.0000 0.4632 -0.8863
vn 0.4632 0.8863 -0.0000
vn 0.2425 0.9701 -0.0000
vn 0.5202 0.8069 -0.2798
vn 0.2798 0.8069 -0.5202
vn 0.1929 0.9621 -0.1929
vn 0.4729 0.6230 -0.6231
vn 0.2883 0.5251 -0.8007
vn 0.2883 0.8007 -0.5251
vn 0.4632 -0.0000 -0.8863
vn 0.2425 -0.0000 -0.9701
vn 0.5202 0.2798 -0.8069
vn 0.1929 0.1929 -0.9621
vn 0.2798 0.5202 -0.8069
vn 0.8083 0.5888 -0.0000
vn 0.5888 0.8083 -0.0000
vn 0.8007 0.5251 -0.2883
vn 0.6230 0.6230 -0.4729
vn 0.5251 0.8007 -0.2883
vn 0.8083 -0.0000 -0.5888
vn 0.5888 -0.0000 -0.8083
vn 0.8007 0.2883 -0.5251
vn 0.5251 0.2883 -0.8007
vn 0.6230 0.4729 -0.6230
vn 1.0000 -0.0000 -0.0000
vn 0.9701 0.2425 -0.0000
vn 0.8863 0.4632 -0.0000
vn 0.9701 -0.0000 -0.2425
vn 0.8863 -0.0000 -0.4632
vn 0.9621 0.1929 -0.1929
vn 0.8069 0.2798 -0.5202
vn 0.8069 0.5202 -0.2798
s 0
f 3//1 1//1 2//1 4//1
f 8//2 5//2 6//2 9//2
f 2//3 1//3 8//3 9//3
f 10//4 7//4 8//4 11//4
f 11//5 8//5 1//5 3//5
f 15//6 12//6 13//6 16//6
f 6//7 5//7 15//7 16//7
f 18//8 14//8 15//8 19//8
f 8//9 7//9 18//9 19//9
f 19//10 15//10 5//10 8//10
f 20//11 17//11 18//11 21//11
f 21//12 18//12 7//12 10//12
f 13//13 12//13 22//13 23//13
f 15//14 14//14 24//14 25//14
f 25//15 22//15 12//15 15//15
f 18//16 17//16 26//16 27//16
f 27//17 24//17 14//17 18//17
f 28//18 26//18 17//18 20//18
f 4//19 2//19 29//19 31//19
f 31//20 29//20 30//20 32//20
f 9//21 6//21 33//21 35//21
f 29//22 2//22 9//22 35//22
f 35//23 33//23 34//23 36//23
f 30//24 29//24 35//24 36//24
f 32//25 30//25 36//25 38//25
f 38//26 36//26 37//26 39//26
f 16//27 13//27 40//27 42//27
f 33//28 6//28 16//28 42//28
f 42//29 40//29 41//29 43//29
f 34//30 33//30 42//30 43//30
f 36//31 34//31 43//31 45//31
f 45//32 43//32 44//32 46//32
f 37//33 36//33 45//33 46//33
f 39//34 37//34 46//34 48//34
f 48//35 46//35 47//35 49//35
f 40//36 13//36 23//36 50//36
f 41//37 40//37 50//37 51//37
f 43//38 41//38 51//38 52//38
f 44//39 43//39 52//39 53//39
f 46//40 44//40 53//40 54//40
f 47//41 46//41 54//41 55//41
f 49//42 47//42 55//42 56//42
f 57//43 3//43 4//43 58//43
f 59//44 57//44 58//44 60//44
f 61//45 10//45 11//45 62//45
f 62//46 11//46 3//46 57//46
f 63//47 61//47 62//47 64//47
f 64//48 62//48 57//48 59//48
f 65//49 64//49 59//49 60//49
f 66//50 64//50 65//50 67//50
f 68//51 20//51 21//51 69//51
f 69//52 21//52 10//52 61//52
f 70//53 68//53 69//53 71//53
f 71//54 69//54 61//54 63//54
f 72//55 71//55 63//55 64//55
f 73//56 71//56 72//56 74//56
f 74//57 72//57 64//57 66//57
f 75//58 74//58 66//58 67//58
f 76//59 74//59 75//59 77//59
f 78//60 28//60 20//60 68//60
f 79//61 78//61 68//61 70//61
f 80//62 79//62 70//62 71//62
f 81//63 80//63 71//63 73//63
f 82//64 81//64 73//64 74//64
f 83//65 82//65 74//65 76//65
f 84//66 83//66 76//66 77//66
f 58//67 4//67 31//67 85//67
f 85//68 31//68 32//68 86//68
f 60//69 58//69 85//69 87//69
f 87//70 85//70 86//70 88//70
f 86//71 32//71 38//71 89//71
f 89//72 38//72 39//72 90//72
f 91//73 65//73 60//73 87//73
f 92//74 91//74 87//74 88//74
f 88//75 86//75 89//75 92//75
f 92//76 89//76 90//76 93//76
f 67//77 65//77 91//77 94//77
f 94//78 91//78 92//78 95//78
f 90//79 39//79 48//79 96//79
f 96//80 48//80 49//80 97//80
f 99//81 98//81 92//81 93//81
f 93//82 90//82 96//82 99//82
f 99//83 96//83 97//83 100//83
f 101//84 75//84 67//84 94//84
f 102//85 101//85 94//85 95//85
f 95//86 92//86 98//86 102//86
f 102//87 98//87 99//87 103//87
f 77//88 75//88 101//88 104//88
f 104//89 101//89 102//89 105//89
f 97//90 49//90 56//90 106//90
f 108//91 107//91 99//91 100//91
f 100//92 97//92 106//92 108//92
f 110//93 109//93 102//93 103//93
f 103//94 99//94 107//94 110//94
f 111//95 84//95 77//95 104//95
f 112//96 111//96 104//96 105//96
f 105//97 102//97 109//97 112//97
f 23//98 22//98 113//98 114//98
f 25//99 24//99 115//99 116//99
f 116//100 113//100 22//100 25//100
f 27//101 26//101 117//101 118//101
f 118//102 115//102 24//102 27//102
f 119//103 117//103 26//103 28//103
f 114//104 113//104 120//104 121//104
f 116//105 115//105 122//105 123//105
f 123//106 120//106 113//106 116//106
f 124//107 121//107 120//107 123//107
f 118//108 117//108 125//108 126//108
f 126//109 122//109 115//109 118//109
f 127//110 123//110 122//110 126//110
f 128//111 125//111 117//111 119//111
f 129//112 126//112 125//112 128//112
f 124//113 123//113 130//113 131//113
f 127//114 126//114 132//114 133//114
f 133//115 130//115 123//115 127//115
f 134//116 131//116 130//116 133//116
f 135//117 132//117 126//117 129//117
f 136//118 133//118 132//118 135//118
f 134//119 133//119 137//119 138//119
f 139//120 137//120 133//120 136//120
f 140//121 138//121 137//121 139//121
f 50//122 23//122 114//122 141//122
f 51//123 50//123 141//123 142//123
f 52//124 51//124 142//124 143//124
f 53//125 52//125 143//125 144//125
f 54//126 53//126 144//126 145//126
f 55//127 54//127 145//127 146//127
f 56//128 55//128 146//128 147//128
f 141//129 114//129 121//129 148//129
f 142//130 141//130 148//130 149//130
f 150//131 148//131 121//131 124//131
f 151//132 149//132 148//132 150//132
f 143//133 142//133 149//133 151//133
f 144//134 143//134 151//134 152//134
f 154//135 152//135 151//135 153//135
f 145//136 144//136 152//136 154//136
f 146//137 145//137 154//137 155//137
f 157//138 155//138 154//138 156//138
f 147//139 146//139 155//139 157//139
f 150//140 124//140 131//140 158//140
f 151//141 150//141 158//141 159//141
f 160//142 158//142 131//142 134//142
f 161//143 159//143 158//143 160//143
f 153//144 151//144 159//144 161//144
f 154//145 153//145 161//145 162//145
f 164//146 162//146 161//146 163//146
f 156//147 154//147 162//147 164//147
f 160//148 134//148 138//148 165//148
f 161//149 160//149 165//149 166//149
f 167//150 165//150 138//150 140//150
f 168//151 166//151 165//151 167//151
f 163//152 161//152 166//152 168//152
f 169//153 119//153 28//153 78//153
f 170//154 169//154 78//154 79//154
f 171//155 170//155 79//155 80//155
f 172//156 171//156 80//156 81//156
f 173//157 172//157 81//157 82//157
f 174//158 173//158 82//158 83//158
f 175//159 174//159 83//159 84//159
f 176//160 128//160 119//160 169//160
f 177//161 129//161 128//161 176//161
f 178//162 176//162 169//162 170//162
f 179//163 177//163 176//163 178//163
f 179//164 178//164 170//164 171//164
f 181//165 179//165 171//165 172//165
f 182//166 180//166 179//166 181//166
f 182//167 181//167 172//167 173//167
f 184//168 182//168 173//168 174//168
f 185//169 183//169 182//169 184//169
f 185//170 184//170 174//170 175//170
f 186//171 135//171 129//171 177//171
f 187//172 136//172 135//172 186//172
f 188//173 186//173 177//173 179//173
f 189//174 187//174 186//174 188//174
f 189//175 188//175 179//175 180//175
f 191//176 189//176 180//176 182//176
f 192//177 190//177 189//177 191//177
f 192//178 191//178 182//178 183//178
f 193//179 139//179 136//179 187//179
f 194//180 140//180 139//180 193//180
f 195//181 193//181 187//181 189//181
f 196//182 194//182 193//182 195//182
f 196//183 195//183 189//183 190//183
f 106//184 56//184 147//184 197//184
f 199//185 198//185 107//185 108//185
f 108//186 106//186 197//186 199//186
f 201//187 200//187 109//187 110//187
f 110//188 107//188 198//188 201//188
f 202//189 175//189 84//189 111//189
f 203//190 202//190 111//190 112//190
f 112//191 109//191 200//191 203//191
f 205//192 157//192 156//192 204//192
f 197//193 147//193 157//193 205//193
f 208//194 205//194 204//194 207//194
f 208//195 207//195 198//195 199//195
f 199//196 197//196 205//196 208//196
f 211//197 207//197 206//197 210//197
f 211//198 210//198 200//198 201//198
f 201//199 198//199 207//199 211//199
f 212//200 209//200 183//200 185//200
f 212//201 185//201 175//201 202//201
f 213//202 210//202 209//202 212//202
f 213//203 212//203 202//203 203//203
f 203//204 200//204 210//204 213//204
f 215//205 164//205 163//205 214//205
f 204//206 156//206 164//206 215//206
f 218//207 215//207 214//207 217//207
f 218//208 217//208 206//208 207//208
f 207//209 204//209 215//209 218//209
f 219//210 216//210 190//210 192//210
f 219//211 192//211 183//211 209//211
f 220//212 217//212 216//212 219//212
f 220//213 219//213 209//213 210//213
f 210//214 206//214 217//214 220//214
f 221//215 167//215 140//215 194//215
f 222//216 168//216 167//216 221//216
f 214//217 163//217 168//217 222//217
f 223//218 221//218 194//218 196//218
f 223//219 196//219 190//219 216//219
f 224//220 222//220 221//220 223//220
f 224//221 223//221 216//221 217//221
f 217//222 214//222 222//222 224//222
