# Blender 3.5.1
# www.blender.org
o Cube300
v -113.718666 79.313889 -79.313889
v -113.836761 80.000000 -79.144119
v -113.836761 79.144119 -80.000000
v -114.183022 80.000000 -80.000000
v -112.776917 79.313889 -78.372139
v -112.946686 80.000000 -78.254044
v -112.776917 78.372139 -79.313889
v -113.110252 78.980553 -78.980553
v -113.446686 80.000000 -78.644119
v -112.946686 78.254044 -80.000000
v -113.446686 78.644119 -80.000000
v -112.090805 79.144119 -78.254044
v -112.090805 80.000000 -77.907784
v -112.090805 78.254044 -79.144119
v -112.090805 78.644119 -78.644119
v -112.090805 77.907784 -80.000000
v -113.836761 81.000000 -79.144119
v -113.718666 81.686111 -79.313889
v -114.183022 81.000000 -80.000000
v -113.836761 81.855881 -80.000000
v -112.946686 81.000000 -78.254044
v -112.776917 81.686111 -78.372139
v -113.446686 81.000000 -78.644119
v -113.110252 82.019447 -78.980553
v -112.776917 82.627861 -79.313889
v -113.446686 82.355881 -80.000000
v -112.946686 82.745956 -80.000000
v -112.090805 81.000000 -77.907784
v -112.090805 81.855881 -78.254044
v -112.090805 82.355881 -78.644119
v -112.090805 82.745956 -79.144119
v -112.090805 83.092216 -80.000000
v -113.836761 79.144119 -81.000000
v -114.183022 80.000000 -81.000000
v -113.718666 79.313889 -81.686111
v -113.836761 80.000000 -81.855881
v -112.946686 78.254044 -81.000000
v -113.446686 78.644119 -81.000000
v -112.776917 78.372139 -81.686111
v -113.110252 78.980553 -82.019447
v -113.446686 80.000000 -82.355881
v -112.776917 79.313889 -82.627861
v -112.946686 80.000000 -82.745956
v -112.090805 77.907784 -81.000000
v -112.090805 78.254044 -81.855881
v -112.090805 78.644119 -82.355881
v -112.090805 79.144119 -82.745956
v -112.090805 80.000000 -83.092216
v -114.183022 81.000000 -81.000000
v -113.836761 81.855881 -81.000000
v -113.836761 81.000000 -81.855881
v -113.718666 81.686111 -81.686111
v -113.446686 82.355881 -81.000000
v -112.946686 82.745956 -81.000000
v -113.446686 81.000000 -82.355881
v -113.110252 82.019447 -82.019447
v -112.776917 82.627861 -81.686111
v -112.946686 81.000000 -82.745956
v -112.776917 81.686111 -82.627861
v -112.090805 83.092216 -81.000000
v -112.090805 82.355881 -82.355881
v -112.090805 82.745956 -81.855881
v -112.090805 81.000000 -83.092216
v -112.090805 81.855881 -82.745956
v -111.090805 79.144119 -78.254044
v -111.090805 80.000000 -77.907784
v -111.090805 78.254044 -79.144119
v -111.090805 78.644119 -78.644119
v -111.090805 77.907784 -80.000000
v -110.404694 79.313889 -78.372139
v -110.234924 80.000000 -78.254044
v -110.404694 78.372139 -79.313889
v -110.071358 78.980553 -78.980553
v -109.734924 80.000000 -78.644119
v -110.234924 78.254044 -80.000000
v -109.734924 78.644119 -80.000000
v -109.462944 79.313889 -79.313889
v -109.344849 80.000000 -79.144119
v -109.344849 79.144119 -80.000000
v -108.998589 80.000000 -80.000000
v -111.090805 81.000000 -77.907784
v -111.090805 81.855881 -78.254044
v -111.090805 82.355881 -78.644119
v -111.090805 82.745956 -79.144119
v -111.090805 83.092216 -80.000000
v -110.234924 81.000000 -78.254044
v -110.404694 81.686111 -78.372139
v -109.734924 81.000000 -78.644119
v -110.071358 82.019447 -78.980553
v -110.404694 82.627861 -79.313889
v -109.734924 82.355881 -80.000000
v -110.234924 82.745956 -80.000000
v -109.344849 81.000000 -79.144119
v -109.462944 81.686111 -79.313889
v -108.998589 81.000000 -80.000000
v -109.344849 81.855881 -80.000000
v -111.090805 77.907784 -81.000000
v -111.090805 78.254044 -81.855881
v -111.090805 78.644119 -82.355881
v -111.090805 79.144119 -82.745956
v -111.090805 80.000000 -83.092216
v -110.234924 78.254044 -81.000000
v -109.734924 78.644119 -81.000000
v -110.404694 78.372139 -81.686111
v -110.071358 78.980553 -82.019447
v -109.734924 80.000000 -82.355881
v -110.404694 79.313889 -82.627861
v -110.234924 80.000000 -82.745956
v -109.344849 79.144119 -81.000000
v -108.998589 80.000000 -81.000000
v -109.462944 79.313889 -81.686111
v -109.344849 80.000000 -81.855881
v -111.090805 83.092216 -81.000000
v -111.090805 82.355881 -82.355881
v -111.090805 82.745956 -81.855881
v -111.090805 81.000000 -83.092216
v -111.090805 81.855881 -82.745956
v -109.734924 82.355881 -81.000000
v -110.234924 82.745956 -81.000000
v -109.734924 81.000000 -82.355881
v -110.071358 82.019447 -82.019447
v -110.404694 82.627861 -81.686111
v -110.234924 81.000000 -82.745956
v -110.404694 81.686111 -82.627861
v -108.998589 81.000000 -81.000000
v -109.344849 81.855881 -81.000000
v -109.344849 81.000000 -81.855881
v -109.462944 81.686111 -81.686111
vn -0.9020 -0.3052 0.3053
vn -0.6489 -0.3698 0.6650
vn -0.6650 -0.3698 0.6489
vn -0.6489 -0.6650 0.3698
vn -0.6650 -0.6489 0.3698
vn -0.3052 -0.3052 0.9020
vn -0.3698 -0.6650 0.6489
vn -0.3698 -0.6489 0.6650
vn -0.3052 -0.9020 0.3052
vn -0.9270 -0.0000 0.3750
vn -0.9020 0.3052 0.3052
vn -0.6151 -0.0000 0.7884
vn -0.7884 -0.0000 0.6151
vn -0.6489 0.3698 0.6650
vn -0.6650 0.3698 0.6489
vn -0.6650 0.6489 0.3698
vn -0.6489 0.6650 0.3698
vn -0.3750 -0.0000 0.9270
vn -0.3052 0.3053 0.9020
vn -0.3698 0.6489 0.6650
vn -0.3698 0.6650 0.6489
vn -0.3053 0.9020 0.3053
vn -0.9270 -0.3750 -0.0000
vn -0.9020 -0.3052 -0.3053
vn -0.6151 -0.7884 -0.0000
vn -0.7884 -0.6151 -0.0000
vn -0.6489 -0.6650 -0.3698
vn -0.6650 -0.6489 -0.3698
vn -0.6650 -0.3698 -0.6489
vn -0.6489 -0.3698 -0.6650
vn -0.3750 -0.9270 -0.0000
vn -0.3052 -0.9020 -0.3052
vn -0.3698 -0.6650 -0.6489
vn -0.3698 -0.6489 -0.6650
vn -0.3052 -0.3052 -0.9020
vn -1.0000 -0.0000 -0.0000
vn -0.9270 0.3750 -0.0000
vn -0.9270 -0.0000 -0.3750
vn -0.9020 0.3052 -0.3052
vn -0.7884 0.6151 -0.0000
vn -0.6151 0.7884 -0.0000
vn -0.7884 -0.0000 -0.6151
vn -0.6650 0.3698 -0.6489
vn -0.6650 0.6489 -0.3698
vn -0.6489 0.6650 -0.3698
vn -0.6151 -0.0000 -0.7884
vn -0.6489 0.3698 -0.6650
vn -0.3750 0.9270 -0.0000
vn -0.3698 0.6650 -0.6489
vn -0.3053 0.9020 -0.3052
vn -0.3750 -0.0000 -0.9270
vn -0.3052 0.3052 -0.9020
vn -0.3698 0.6489 -0.6650
vn -0.0000 -0.3750 0.9270
vn -0.0000 -0.7884 0.6151
vn -0.0000 -0.6151 0.7884
vn -0.0000 -0.9270 0.3750
vn 0.3052 -0.3052 0.9020
vn 0.3698 -0.6650 0.6489
vn 0.3698 -0.6489 0.6650
vn 0.6489 -0.3698 0.6650
vn 0.3053 -0.9020 0.3052
vn 0.6489 -0.6650 0.3698
vn 0.6650 -0.3698 0.6489
vn 0.6650 -0.6489 0.3698
vn 0.9020 -0.3052 0.3052
vn -0.0000 -0.0000 1.0000
vn -0.0000 0.3750 0.9270
vn -0.0000 0.6151 0.7884
vn -0.0000 0.7884 0.6151
vn -0.0000 0.9270 0.3750
vn 0.3750 -0.0000 0.9270
vn 0.3052 0.3052 0.9020
vn 0.6151 -0.0000 0.7884
vn 0.6489 0.3698 0.6650
vn 0.3698 0.6489 0.6650
vn 0.3698 0.6650 0.6489
vn 0.6489 0.6650 0.3698
vn 0.3052 0.9020 0.3052
vn 0.7884 -0.0000 0.6151
vn 0.6650 0.3698 0.6489
vn 0.9270 -0.0000 0.3750
vn 0.9020 0.3052 0.3053
vn 0.6650 0.6489 0.3698
vn -0.0000 -1.0000 -0.0000
vn -0.0000 -0.9270 -0.3750
vn -0.0000 -0.7884 -0.6151
vn -0.0000 -0.6151 -0.7884
vn -0.0000 -0.3750 -0.9270
vn 0.3750 -0.9270 -0.0000
vn 0.6151 -0.7884 -0.0000
vn 0.3053 -0.9020 -0.3052
vn 0.6489 -0.6650 -0.3698
vn 0.3698 -0.6650 -0.6489
vn 0.3698 -0.6489 -0.6650
vn 0.6489 -0.3698 -0.6650
vn 0.3052 -0.3052 -0.9020
vn 0.7884 -0.6151 -0.0000
vn 0.9270 -0.3750 -0.0000
vn 0.6650 -0.6489 -0.3698
vn 0.9020 -0.3052 -0.3052
vn 0.6650 -0.3698 -0.6489
vn -0.0000 1.0000 -0.0000
vn -0.0000 0.7884 -0.6151
vn -0.0000 0.9270 -0.3750
vn -0.0000 -0.0000 -1.0000
vn -0.0000 0.3750 -0.9270
vn -0.0000 0.6151 -0.7884
vn 0.6151 0.7884 -0.0000
vn 0.3750 0.9270 -0.0000
vn 0.6489 0.6650 -0.3698
vn 0.3698 0.6650 -0.6489
vn 0.3052 0.9020 -0.3052
vn 0.6151 -0.0000 -0.7884
vn 0.3750 -0.0000 -0.9270
vn 0.6489 0.3698 -0.6650
vn 0.3052 0.3052 -0.9020
vn 0.3698 0.6489 -0.6650
vn 1.0000 -0.0000 -0.0000
vn 0.9270 0.3750 -0.0000
vn 0.7884 0.6151 -0.0000
vn 0.9270 -0.0000 -0.3750
vn 0.7884 -0.0000 -0.6151
vn 0.9020 0.3052 -0.3052
vn 0.6650 0.3698 -0.6489
vn 0.6650 0.6489 -0.3698
s 0
f 3//1 1//1 2//1 4//1
f 8//2 5//2 6//2 9//2
f 2//3 1//3 8//3 9//3
f 10//4 7//4 8//4 11//4
f 11//5 8//5 1//5 3//5
f 6//6 5//6 12//6 13//6
f 8//7 7//7 14//7 15//7
f 15//8 12//8 5//8 8//8
f 16//9 14//9 7//9 10//9
f 4//10 2//10 17//10 19//10
f 19//11 17//11 18//11 20//11
f 9//12 6//12 21//12 23//12
f 17//13 2//13 9//13 23//13
f 23//14 21//14 22//14 24//14
f 18//15 17//15 23//15 24//15
f 20//16 18//16 24//16 26//16
f 26//17 24//17 25//17 27//17
f 21//18 6//18 13//18 28//18
f 22//19 21//19 28//19 29//19
f 24//20 22//20 29//20 30//20
f 25//21 24//21 30//21 31//21
f 27//22 25//22 31//22 32//22
f 33//23 3//23 4//23 34//23
f 35//24 33//24 34//24 36//24
f 37//25 10//25 11//25 38//25
f 38//26 11//26 3//26 33//26
f 39//27 37//27 38//27 40//27
f 40//28 38//28 33//28 35//28
f 41//29 40//29 35//29 36//29
f 42//30 40//30 41//30 43//30
f 44//31 16//31 10//31 37//31
f 45//32 44//32 37//32 39//32
f 46//33 45//33 39//33 40//33
f 47//34 46//34 40//34 42//34
f 48//35 47//35 42//35 43//35
f 34//36 4//36 19//36 49//36
f 49//37 19//37 20//37 50//37
f 36//38 34//38 49//38 51//38
f 51//39 49//39 50//39 52//39
f 50//40 20//40 26//40 53//40
f 53//41 26//41 27//41 54//41
f 55//42 41//42 36//42 51//42
f 56//43 55//43 51//43 52//43
f 52//44 50//44 53//44 56//44
f 56//45 53//45 54//45 57//45
f 43//46 41//46 55//46 58//46
f 58//47 55//47 56//47 59//47
f 54//48 27//48 32//48 60//48
f 62//49 61//49 56//49 57//49
f 57//50 54//50 60//50 62//50
f 63//51 48//51 43//51 58//51
f 64//52 63//52 58//52 59//52
f 59//53 56//53 61//53 64//53
f 13//54 12//54 65//54 66//54
f 15//55 14//55 67//55 68//55
f 68//56 65//56 12//56 15//56
f 69//57 67//57 14//57 16//57
f 66//58 65//58 70//58 71//58
f 68//59 67//59 72//59 73//59
f 73//60 70//60 65//60 68//60
f 74//61 71//61 70//61 73//61
f 75//62 72//62 67//62 69//62
f 76//63 73//63 72//63 75//63
f 74//64 73//64 77//64 78//64
f 79//65 77//65 73//65 76//65
f 80//66 78//66 77//66 79//66
f 28//67 13//67 66//67 81//67
f 29//68 28//68 81//68 82//68
f 30//69 29//69 82//69 83//69
f 31//70 30//70 83//70 84//70
f 32//71 31//71 84//71 85//71
f 81//72 66//72 71//72 86//72
f 82//73 81//73 86//73 87//73
f 88//74 86//74 71//74 74//74
f 89//75 87//75 86//75 88//75
f 83//76 82//76 87//76 89//76
f 84//77 83//77 89//77 90//77
f 92//78 90//78 89//78 91//78
f 85//79 84//79 90//79 92//79
f 88//80 74//80 78//80 93//80
f 89//81 88//81 93//81 94//81
f 95//82 93//82 78//82 80//82
f 96//83 94//83 93//83 95//83
f 91//84 89//84 94//84 96//84
f 97//85 69//85 16//85 44//85
f 98//86 97//86 44//86 45//86
f 99//87 98//87 45//87 46//87
f 100//88 99//88 46//88 47//88
f 101//89 100//89 47//89 48//89
f 102//90 75//90 69//90 97//90
f 103//91 76//91 75//91 102//91
f 104//92 102//92 97//92 98//92
f 105//93 103//93 102//93 104//93
f 105//94 104//94 98//94 99//94
f 107//95 105//95 99//95 100//95
f 108//96 106//96 105//96 107//96
f 108//97 107//97 100//97 101//97
f 109//98 79//98 76//98 103//98
f 110//99 80//99 79//99 109//99
f 111//100 109//100 103//100 105//100
f 112//101 110//101 109//101 111//101
f 112//102 111//102 105//102 106//102
f 60//103 32//103 85//103 113//103
f 115//104 114//104 61//104 62//104
f 62//105 60//105 113//105 115//105
f 116//106 101//106 48//106 63//106
f 117//107 116//107 63//107 64//107
f 64//108 61//108 114//108 117//108
f 119//109 92//109 91//109 118//109
f 113//110 85//110 92//110 119//110
f 122//111 119//111 118//111 121//111
f 122//112 121//112 114//112 115//112
f 115//113 113//113 119//113 122//113
f 123//114 120//114 106//114 108//114
f 123//115 108//115 101//115 116//115
f 124//116 121//116 120//116 123//116
f 124//117 123//117 116//117 117//117
f 117//118 114//118 121//118 124//118
f 125//119 95//119 80//119 110//119
f 126//120 96//120 95//120 125//120
f 118//121 91//121 96//121 126//121
f 127//122 125//122 110//122 112//122
f 127//123 112//123 106//123 120//123
f 128//124 126//124 125//124 127//124
f 128//125 127//125 120//125 121//125
f 121//126 118//126 126//126 128//126
