# Blender 3.5.1
# www.blender.org
o Cube300
v -112.680222 80.293999 -79.410583
v -112.680222 79.410583 -80.293999
v -112.830101 79.976402 -79.976402
v -111.796806 79.410583 -79.410583
v -112.114403 79.976402 -79.260704
v -112.114403 79.260704 -79.976402
v -112.463470 79.627335 -79.627335
v -112.680222 80.706001 -79.410583
v -112.830101 81.023598 -79.976402
v -112.680222 81.589417 -80.293999
v -112.114403 81.023598 -79.260704
v -111.796806 81.589417 -79.410583
v -112.463470 81.372665 -79.627335
v -112.114403 81.739296 -79.976402
v -112.680222 79.410583 -80.706001
v -112.830101 79.976402 -81.023598
v -112.680222 80.293999 -81.589417
v -112.114403 79.260704 -81.023598
v -112.463470 79.627335 -81.372665
v -111.796806 79.410583 -81.589417
v -112.114403 79.976402 -81.739296
v -112.830101 81.023598 -81.023598
v -112.680222 81.589417 -80.706001
v -112.680222 80.706001 -81.589417
v -112.463470 81.372665 -81.372665
v -112.114403 81.739296 -81.023598
v -112.114403 81.023598 -81.739296
v -111.796806 81.589417 -81.589417
v -111.384804 79.410583 -79.410583
v -111.067207 79.976402 -79.260704
v -111.067207 79.260704 -79.976402
v -110.718140 79.627335 -79.627335
v -110.501389 80.293999 -79.410583
v -110.501389 79.410583 -80.293999
v -110.351509 79.976402 -79.976402
v -111.067207 81.023598 -79.260704
v -111.384804 81.589417 -79.410583
v -110.718140 81.372665 -79.627335
v -111.067207 81.739296 -79.976402
v -110.501389 80.706001 -79.410583
v -110.351509 81.023598 -79.976402
v -110.501389 81.589417 -80.293999
v -111.067207 79.260704 -81.023598
v -110.718140 79.627335 -81.372665
v -111.384804 79.410583 -81.589417
v -111.067207 79.976402 -81.739296
v -110.501389 79.410583 -80.706001
v -110.351509 79.976402 -81.023598
v -110.501389 80.293999 -81.589417
v -110.718140 81.372665 -81.372665
v -111.067207 81.739296 -81.023598
v -111.067207 81.023598 -81.739296
v -111.384804 81.589417 -81.589417
v -110.351509 81.023598 -81.023598
v -110.501389 81.589417 -80.706001
v -110.501389 80.706001 -81.589417
vn -0.4177 -0.6425 0.6425
vn -0.6425 -0.6425 0.4177
vn -0.6425 -0.4177 0.6424
vn -0.9667 -0.0000 0.2561
vn -0.2561 -0.0000 0.9667
vn -0.6425 0.4177 0.6424
vn -0.4177 0.6425 0.6425
vn -0.6425 0.6425 0.4177
vn -0.9667 -0.2561 -0.0000
vn -0.2561 -0.9667 -0.0000
vn -0.6425 -0.6425 -0.4177
vn -0.4177 -0.6424 -0.6425
vn -0.6425 -0.4177 -0.6424
vn -1.0000 -0.0000 -0.0000
vn -0.9667 0.2561 -0.0000
vn -0.9667 -0.0000 -0.2561
vn -0.6425 0.6425 -0.4177
vn -0.2561 0.9667 -0.0000
vn -0.2561 -0.0000 -0.9667
vn -0.6425 0.4177 -0.6424
vn -0.4177 0.6425 -0.6425
vn -0.0000 -0.2561 0.9667
vn -0.0000 -0.9667 0.2561
vn 0.4177 -0.6425 0.6424
vn 0.6425 -0.6425 0.4177
vn 0.6425 -0.4177 0.6425
vn -0.0000 -0.0000 1.0000
vn -0.0000 0.2561 0.9667
vn 0.4177 0.6425 0.6425
vn -0.0000 0.9667 0.2561
vn 0.2561 -0.0000 0.9667
vn 0.9667 -0.0000 0.2561
vn 0.6425 0.4177 0.6424
vn 0.6425 0.6425 0.4177
vn -0.0000 -1.0000 -0.0000
vn -0.0000 -0.9667 -0.2561
vn 0.4177 -0.6425 -0.6425
vn -0.0000 -0.2561 -0.9667
vn 0.2561 -0.9667 -0.0000
vn 0.9667 -0.2561 -0.0000
vn 0.6425 -0.6425 -0.4177
vn 0.6425 -0.4177 -0.6425
vn -0.0000 1.0000 -0.0000
vn -0.0000 -0.0000 -1.0000
vn 0.4177 0.6425 -0.6425
vn -0.0000 0.2561 -0.9667
vn -0.0000 0.9667 -0.2561
vn 1.0000 -0.0000 -0.0000
vn 0.9667 0.2561 -0.0000
vn 0.6425 0.6425 -0.4177
vn 0.2561 0.9667 -0.0000
vn 0.9667 -0.0000 -0.2561
vn 0.2561 -0.0000 -0.9667
vn 0.6425 0.4177 -0.6425
s 0
f 6//1 4//1 5//1 7//1
f 3//2 2//2 6//2 7//2
f 7//3 5//3 1//3 3//3
f 3//4 1//4 8//4 9//4
f 8//5 1//5 5//5 11//5
f 9//6 8//6 11//6 13//6
f 13//7 11//7 12//7 14//7
f 10//8 9//8 13//8 14//8
f 15//9 2//9 3//9 16//9
f 18//10 6//10 2//10 15//10
f 19//11 18//11 15//11 16//11
f 20//12 18//12 19//12 21//12
f 21//13 19//13 16//13 17//13
f 16//14 3//14 9//14 22//14
f 22//15 9//15 10//15 23//15
f 17//16 16//16 22//16 24//16
f 26//17 25//17 22//17 23//17
f 23//18 10//18 14//18 26//18
f 27//19 21//19 17//19 24//19
f 24//20 22//20 25//20 27//20
f 27//21 25//21 26//21 28//21
f 5//22 4//22 29//22 30//22
f 31//23 29//23 4//23 6//23
f 32//24 30//24 29//24 31//24
f 32//25 31//25 34//25 35//25
f 35//26 33//26 30//26 32//26
f 11//27 5//27 30//27 36//27
f 12//28 11//28 36//28 37//28
f 39//29 37//29 36//29 38//29
f 14//30 12//30 37//30 39//30
f 36//31 30//31 33//31 40//31
f 41//32 40//32 33//32 35//32
f 38//33 36//33 40//33 41//33
f 39//34 38//34 41//34 42//34
f 43//35 31//35 6//35 18//35
f 45//36 43//36 18//36 20//36
f 46//37 44//37 43//37 45//37
f 46//38 45//38 20//38 21//38
f 47//39 34//39 31//39 43//39
f 48//40 35//40 34//40 47//40
f 48//41 47//41 43//41 44//41
f 49//42 48//42 44//42 46//42
f 26//43 14//43 39//43 51//43
f 52//44 46//44 21//44 27//44
f 53//45 51//45 50//45 52//45
f 53//46 52//46 27//46 28//46
f 28//47 26//47 51//47 53//47
f 54//48 41//48 35//48 48//48
f 55//49 42//49 41//49 54//49
f 55//50 54//50 50//50 51//50
f 51//51 39//51 42//51 55//51
f 56//52 54//52 48//52 49//52
f 56//53 49//53 46//53 52//53
f 52//54 50//54 54//54 56//54
