# Blender 3.5.1
# www.blender.org
o Cube200
v -227.207611 79.292389 299.966309
v -227.302841 80.000000 300.146210
v -227.302841 79.112495 299.258698
v -227.584259 80.000000 299.258698
v -226.160675 78.438087 300.820618
v -226.345840 79.000000 301.005798
v -226.539948 80.000000 301.199890
v -226.345840 78.252914 300.258698
v -226.856934 78.975433 300.283264
v -227.039948 80.000000 300.646210
v -226.539948 78.058800 299.258698
v -227.039948 78.612495 299.258698
v -225.306366 79.292389 301.867554
v -225.486267 80.000000 301.962769
v -225.598755 78.252914 301.005798
v -225.623322 78.975433 301.516876
v -225.986267 80.000000 301.699890
v -225.306366 77.391136 299.966309
v -225.623322 77.741814 300.283264
v -225.486267 77.295914 299.258698
v -225.986267 77.558800 299.258698
v -224.598755 79.112495 301.962769
v -224.598755 80.000000 302.244202
v -224.598755 78.058800 301.199890
v -224.598755 78.612495 301.699890
v -224.598755 77.295914 300.146210
v -224.598755 77.558800 300.646210
v -224.598755 77.014488 299.258698
v -227.302841 81.000000 300.146210
v -227.207611 81.707611 299.966309
v -227.584259 81.000000 299.258698
v -227.302841 81.887505 299.258698
v -226.539948 81.000000 301.199890
v -226.345840 82.000000 301.005798
v -226.160675 82.561913 300.820618
v -227.039948 81.000000 300.646210
v -226.856934 82.024567 300.283264
v -226.345840 82.747086 300.258698
v -227.039948 82.387505 299.258698
v -226.539948 82.941200 299.258698
v -225.486267 81.000000 301.962769
v -225.306366 81.707611 301.867554
v -225.986267 81.000000 301.699890
v -225.623322 82.024567 301.516876
v -225.598755 82.747086 301.005798
v -225.623322 83.258186 300.283264
v -225.306366 83.608864 299.966309
v -225.986267 83.441200 299.258698
v -225.486267 83.704086 299.258698
v -224.598755 81.000000 302.244202
v -224.598755 81.887505 301.962769
v -224.598755 82.387505 301.699890
v -224.598755 82.941200 301.199890
v -224.598755 83.441200 300.646210
v -224.598755 83.704086 300.146210
v -224.598755 83.985512 299.258698
v -227.302841 79.112495 298.258698
v -227.584259 80.000000 298.258698
v -227.207611 79.292389 297.551086
v -227.302841 80.000000 297.371185
v -226.539948 78.058800 298.258698
v -227.039948 78.612495 298.258698
v -226.345840 78.252914 297.258698
v -226.856934 78.975433 297.234131
v -227.039948 80.000000 296.871185
v -226.160675 78.438087 296.696777
v -226.345840 79.000000 296.511597
v -226.539948 80.000000 296.317505
v -225.486267 77.295914 298.258698
v -225.986267 77.558800 298.258698
v -225.306366 77.391136 297.551086
v -225.623322 77.741814 297.234131
v -225.598755 78.252914 296.511597
v -225.623322 78.975433 296.000519
v -225.986267 80.000000 295.817505
v -225.306366 79.292389 295.649841
v -225.486267 80.000000 295.554626
v -224.598755 77.014488 298.258698
v -224.598755 77.295914 297.371185
v -224.598755 77.558800 296.871185
v -224.598755 78.058800 296.317505
v -224.598755 78.612495 295.817505
v -224.598755 79.112495 295.554626
v -224.598755 80.000000 295.273193
v -227.584259 81.000000 298.258698
v -227.302841 81.887505 298.258698
v -227.302841 81.000000 297.371185
v -227.207611 81.707611 297.551086
v -227.039948 82.387505 298.258698
v -226.539948 82.941200 298.258698
v -227.039948 81.000000 296.871185
v -226.856934 82.024567 297.234131
v -226.345840 82.747086 297.258698
v -226.539948 81.000000 296.317505
v -226.345840 82.000000 296.511597
v -226.160675 82.561913 296.696777
v -225.986267 83.441200 298.258698
v -225.486267 83.704086 298.258698
v -225.623322 83.258186 297.234131
v -225.306366 83.608864 297.551086
v -225.986267 81.000000 295.817505
v -225.623322 82.024567 296.000519
v -225.598755 82.747086 296.511597
v -225.486267 81.000000 295.554626
v -225.306366 81.707611 295.649841
v -224.598755 83.985512 298.258698
v -224.598755 83.441200 296.871185
v -224.598755 83.704086 297.371185
v -224.598755 82.387505 295.817505
v -224.598755 82.941200 296.317505
v -224.598755 81.000000 295.273193
v -224.598755 81.887505 295.554626
v -223.598755 79.112495 301.962769
v -223.598755 80.000000 302.244202
v -223.598755 78.058800 301.199890
v -223.598755 78.612495 301.699890
v -223.598755 77.295914 300.146210
v -223.598755 77.558800 300.646210
v -223.598755 77.014488 299.258698
v -222.891144 79.292389 301.867554
v -222.711243 80.000000 301.962769
v -222.598755 78.252914 301.005798
v -222.574188 78.975433 301.516876
v -222.211243 80.000000 301.699890
v -222.891144 77.391136 299.966309
v -222.574188 77.741814 300.283264
v -222.711243 77.295914 299.258698
v -222.211243 77.558800 299.258698
v -222.036835 78.438087 300.820618
v -221.851669 79.000000 301.005798
v -221.657562 80.000000 301.199890
v -221.851669 78.252914 300.258698
v -221.340576 78.975433 300.283264
v -221.157562 80.000000 300.646210
v -221.657562 78.058800 299.258698
v -221.157562 78.612495 299.258698
v -220.989899 79.292389 299.966309
v -220.894669 80.000000 300.146210
v -220.894669 79.112495 299.258698
v -220.613251 80.000000 299.258698
v -223.598755 81.000000 302.244202
v -223.598755 81.887505 301.962769
v -223.598755 82.387505 301.699890
v -223.598755 82.941200 301.199890
v -223.598755 83.441200 300.646210
v -223.598755 83.704086 300.146210
v -223.598755 83.985512 299.258698
v -222.711243 81.000000 301.962769
v -222.891144 81.707611 301.867554
v -222.211243 81.000000 301.699890
v -222.574188 82.024567 301.516876
v -222.598755 82.747086 301.005798
v -222.574188 83.258186 300.283264
v -222.891144 83.608864 299.966309
v -222.211243 83.441200 299.258698
v -222.711243 83.704086 299.258698
v -221.657562 81.000000 301.199890
v -221.851669 82.000000 301.005798
v -222.036835 82.561913 300.820618
v -221.157562 81.000000 300.646210
v -221.340576 82.024567 300.283264
v -221.851669 82.747086 300.258698
v -221.157562 82.387505 299.258698
v -221.657562 82.941200 299.258698
v -220.894669 81.000000 300.146210
v -220.989899 81.707611 299.966309
v -220.613251 81.000000 299.258698
v -220.894669 81.887505 299.258698
v -223.598755 77.014488 298.258698
v -223.598755 77.295914 297.371185
v -223.598755 77.558800 296.871185
v -223.598755 78.058800 296.317505
v -223.598755 78.612495 295.817505
v -223.598755 79.112495 295.554626
v -223.598755 80.000000 295.273193
v -222.711243 77.295914 298.258698
v -222.211243 77.558800 298.258698
v -222.891144 77.391136 297.551086
v -222.574188 77.741814 297.234131
v -222.598755 78.252914 296.511597
v -222.574188 78.975433 296.000519
v -222.211243 80.000000 295.817505
v -222.891144 79.292389 295.649841
v -222.711243 80.000000 295.554626
v -221.657562 78.058800 298.258698
v -221.157562 78.612495 298.258698
v -221.851669 78.252914 297.258698
v -221.340576 78.975433 297.234131
v -221.157562 80.000000 296.871185
v -222.036835 78.438087 296.696777
v -221.851669 79.000000 296.511597
v -221.657562 80.000000 296.317505
v -220.894669 79.112495 298.258698
v -220.613251 80.000000 298.258698
v -220.989899 79.292389 297.551086
v -220.894669 80.000000 297.371185
v -223.598755 83.985512 298.258698
v -223.598755 83.441200 296.871185
v -223.598755 83.704086 297.371185
v -223.598755 82.387505 295.817505
v -223.598755 82.941200 296.317505
v -223.598755 81.000000 295.273193
v -223.598755 81.887505 295.554626
v -222.211243 83.441200 298.258698
v -222.711243 83.704086 298.258698
v -222.574188 83.258186 297.234131
v -222.891144 83.608864 297.551086
v -222.211243 81.000000 295.817505
v -222.574188 82.024567 296.000519
v -222.598755 82.747086 296.511597
v -222.711243 81.000000 295.554626
v -222.891144 81.707611 295.649841
v -221.157562 82.387505 298.258698
v -221.657562 82.941200 298.258698
v -221.157562 81.000000 296.871185
v -221.340576 82.024567 297.234131
v -221.851669 82.747086 297.258698
v -221.657562 81.000000 296.317505
v -221.851669 82.000000 296.511597
v -222.036835 82.561913 296.696777
v -220.613251 81.000000 298.258698
v -220.894669 81.887505 298.258698
v -220.894669 81.000000 297.371185
v -220.989899 81.707611 297.551086
vn -0.9359 -0.2491 0.2491
vn -0.7373 -0.4777 0.4777
vn -0.7443 -0.3025 0.5955
vn -0.8160 -0.2881 0.5011
vn -0.7443 -0.5955 0.3025
vn -0.8160 -0.5011 0.2881
vn -0.4777 -0.4777 0.7373
vn -0.5011 -0.2881 0.8160
vn -0.5955 -0.3025 0.7443
vn -0.4777 -0.7373 0.4777
vn -0.5011 -0.8160 0.2881
vn -0.5955 -0.7443 0.3025
vn -0.2491 -0.2491 0.9359
vn -0.3025 -0.5955 0.7443
vn -0.2881 -0.5011 0.8160
vn -0.2881 -0.8160 0.5011
vn -0.3025 -0.7443 0.5955
vn -0.2491 -0.9359 0.2491
vn -0.9532 -0.0000 0.3023
vn -0.9359 0.2491 0.2491
vn -0.7422 -0.0000 0.6702
vn -0.8851 -0.0000 0.4654
vn -0.7443 0.3025 0.5955
vn -0.8160 0.2881 0.5011
vn -0.7373 0.4777 0.4777
vn -0.8160 0.5011 0.2881
vn -0.7443 0.5955 0.3025
vn -0.4654 -0.0000 0.8851
vn -0.6702 -0.0000 0.7422
vn -0.5011 0.2881 0.8160
vn -0.5955 0.3025 0.7443
vn -0.4777 0.4777 0.7373
vn -0.4777 0.7373 0.4777
vn -0.5955 0.7443 0.3025
vn -0.5011 0.8160 0.2881
vn -0.3023 -0.0000 0.9532
vn -0.2491 0.2491 0.9359
vn -0.2881 0.5011 0.8160
vn -0.3025 0.5955 0.7443
vn -0.3025 0.7443 0.5955
vn -0.2881 0.8160 0.5011
vn -0.2491 0.9359 0.2491
vn -0.9532 -0.3023 -0.0000
vn -0.9359 -0.2491 -0.2491
vn -0.7422 -0.6702 -0.0000
vn -0.8851 -0.4654 -0.0000
vn -0.7443 -0.5955 -0.3025
vn -0.8160 -0.5011 -0.2881
vn -0.8160 -0.2881 -0.5011
vn -0.7373 -0.4777 -0.4777
vn -0.7443 -0.3025 -0.5955
vn -0.4654 -0.8851 -0.0000
vn -0.6702 -0.7422 -0.0000
vn -0.5011 -0.8160 -0.2881
vn -0.5955 -0.7443 -0.3025
vn -0.4777 -0.7373 -0.4777
vn -0.4777 -0.4777 -0.7373
vn -0.5955 -0.3025 -0.7443
vn -0.5011 -0.2881 -0.8160
vn -0.3023 -0.9532 -0.0000
vn -0.2491 -0.9359 -0.2491
vn -0.2881 -0.8160 -0.5011
vn -0.3025 -0.7443 -0.5955
vn -0.3025 -0.5955 -0.7443
vn -0.2881 -0.5011 -0.8160
vn -0.2491 -0.2491 -0.9359
vn -1.0000 -0.0000 -0.0000
vn -0.9532 0.3023 -0.0000
vn -0.9532 -0.0000 -0.3023
vn -0.9359 0.2491 -0.2491
vn -0.8851 0.4654 -0.0000
vn -0.7422 0.6702 -0.0000
vn -0.8851 -0.0000 -0.4654
vn -0.8160 0.2881 -0.5011
vn -0.8160 0.5011 -0.2881
vn -0.7443 0.5955 -0.3025
vn -0.7422 -0.0000 -0.6702
vn -0.7443 0.3025 -0.5955
vn -0.7373 0.4777 -0.4777
vn -0.6702 0.7422 -0.0000
vn -0.4654 0.8851 -0.0000
vn -0.5955 0.7443 -0.3025
vn -0.5011 0.8160 -0.2881
vn -0.6702 -0.0000 -0.7422
vn -0.5955 0.3025 -0.7443
vn -0.4777 0.4777 -0.7373
vn -0.4777 0.7373 -0.4777
vn -0.4654 -0.0000 -0.8851
vn -0.5011 0.2881 -0.8160
vn -0.3023 0.9532 -0.0000
vn -0.2881 0.8160 -0.5011
vn -0.2491 0.9359 -0.2491
vn -0.3025 0.5955 -0.7443
vn -0.3025 0.7443 -0.5955
vn -0.3023 -0.0000 -0.9532
vn -0.2491 0.2491 -0.9359
vn -0.2881 0.5011 -0.8160
vn -0.0000 -0.3023 0.9532
vn -0.0000 -0.6702 0.7422
vn -0.0000 -0.4654 0.8851
vn -0.0000 -0.8851 0.4654
vn -0.0000 -0.7422 0.6702
vn -0.0000 -0.9532 0.3023
vn 0.2491 -0.2491 0.9359
vn 0.3025 -0.5955 0.7443
vn 0.2881 -0.5011 0.8160
vn 0.5011 -0.2881 0.8160
vn 0.2881 -0.8160 0.5011
vn 0.3025 -0.7443 0.5955
vn 0.2491 -0.9359 0.2491
vn 0.5011 -0.8160 0.2881
vn 0.4777 -0.4777 0.7373
vn 0.5955 -0.3025 0.7443
vn 0.4777 -0.7373 0.4777
vn 0.7373 -0.4777 0.4777
vn 0.7443 -0.3025 0.5955
vn 0.5955 -0.7443 0.3025
vn 0.7443 -0.5955 0.3025
vn 0.8160 -0.2881 0.5011
vn 0.8160 -0.5011 0.2881
vn 0.9359 -0.2491 0.2491
vn -0.0000 -0.0000 1.0000
vn -0.0000 0.3023 0.9532
vn -0.0000 0.4654 0.8851
vn -0.0000 0.6702 0.7422
vn -0.0000 0.7422 0.6702
vn -0.0000 0.8851 0.4654
vn -0.0000 0.9532 0.3023
vn 0.3023 -0.0000 0.9532
vn 0.2491 0.2491 0.9359
vn 0.4654 -0.0000 0.8851
vn 0.5011 0.2881 0.8160
vn 0.2881 0.5011 0.8160
vn 0.3025 0.5955 0.7443
vn 0.3025 0.7443 0.5955
vn 0.2881 0.8160 0.5011
vn 0.5011 0.8160 0.2881
vn 0.2491 0.9359 0.2491
vn 0.6702 -0.0000 0.7422
vn 0.5955 0.3025 0.7443
vn 0.4777 0.4777 0.7373
vn 0.7422 -0.0000 0.6702
vn 0.7443 0.3025 0.5955
vn 0.7373 0.4777 0.4777
vn 0.4777 0.7373 0.4777
vn 0.7443 0.5955 0.3025
vn 0.5955 0.7443 0.3025
vn 0.8851 -0.0000 0.4654
vn 0.8160 0.2881 0.5011
vn 0.9532 -0.0000 0.3023
vn 0.9359 0.2491 0.2491
vn 0.8160 0.5011 0.2881
vn -0.0000 -1.0000 -0.0000
vn -0.0000 -0.9532 -0.3023
vn -0.0000 -0.8851 -0.4654
vn -0.0000 -0.7422 -0.6702
vn -0.0000 -0.6702 -0.7422
vn -0.0000 -0.4654 -0.8851
vn -0.0000 -0.3023 -0.9532
vn 0.3023 -0.9532 -0.0000
vn 0.4654 -0.8851 -0.0000
vn 0.2491 -0.9359 -0.2491
vn 0.5011 -0.8160 -0.2881
vn 0.2881 -0.8160 -0.5011
vn 0.3025 -0.7443 -0.5955
vn 0.3025 -0.5955 -0.7443
vn 0.2881 -0.5011 -0.8160
vn 0.5011 -0.2881 -0.8160
vn 0.2491 -0.2491 -0.9359
vn 0.6702 -0.7422 -0.0000
vn 0.7422 -0.6702 -0.0000
vn 0.5955 -0.7443 -0.3025
vn 0.7443 -0.5955 -0.3025
vn 0.4777 -0.7373 -0.4777
vn 0.7373 -0.4777 -0.4777
vn 0.4777 -0.4777 -0.7373
vn 0.7443 -0.3025 -0.5955
vn 0.5955 -0.3025 -0.7443
vn 0.8851 -0.4654 -0.0000
vn 0.9532 -0.3023 -0.0000
vn 0.8160 -0.5011 -0.2881
vn 0.9359 -0.2491 -0.2491
vn 0.8160 -0.2881 -0.5011
vn -0.0000 1.0000 -0.0000
vn -0.0000 0.8851 -0.4654
vn -0.0000 0.9532 -0.3023
vn -0.0000 0.6702 -0.7422
vn -0.0000 0.7422 -0.6702
vn -0.0000 -0.0000 -1.0000
vn -0.0000 0.3023 -0.9532
vn -0.0000 0.4654 -0.8851
vn 0.4654 0.8851 -0.0000
vn 0.3023 0.9532 -0.0000
vn 0.5011 0.8160 -0.2881
vn 0.2881 0.8160 -0.5011
vn 0.2491 0.9359 -0.2491
vn 0.3025 0.5955 -0.7443
vn 0.3025 0.7443 -0.5955
vn 0.4654 -0.0000 -0.8851
vn 0.3023 -0.0000 -0.9532
vn 0.5011 0.2881 -0.8160
vn 0.2491 0.2491 -0.9359
vn 0.2881 0.5011 -0.8160
vn 0.7422 0.6702 -0.0000
vn 0.6702 0.7422 -0.0000
vn 0.7443 0.5955 -0.3025
vn 0.5955 0.7443 -0.3025
vn 0.7422 -0.0000 -0.6702
vn 0.6702 -0.0000 -0.7422
vn 0.7443 0.3025 -0.5955
vn 0.5955 0.3025 -0.7443
vn 0.7373 0.4777 -0.4777
vn 0.4777 0.4777 -0.7373
vn 0.4777 0.7373 -0.4777
vn 1.0000 -0.0000 -0.0000
vn 0.9532 0.3023 -0.0000
vn 0.8851 0.4654 -0.0000
vn 0.9532 -0.0000 -0.3023
vn 0.8851 -0.0000 -0.4654
vn 0.9359 0.2491 -0.2491
vn 0.8160 0.2881 -0.5011
vn 0.8160 0.5011 -0.2881
s 0
f 3//1 1//1 2//1 4//1
f 8//2 5//2 6//2 9//2
f 9//3 6//3 7//3 10//3
f 2//4 1//4 9//4 10//4
f 11//5 8//5 9//5 12//5
f 12//6 9//6 1//6 3//6
f 6//7 5//7 15//7 16//7
f 16//8 13//8 14//8 17//8
f 7//9 6//9 16//9 17//9
f 19//10 15//10 5//10 8//10
f 20//11 18//11 19//11 21//11
f 21//12 19//12 8//12 11//12
f 14//13 13//13 22//13 23//13
f 16//14 15//14 24//14 25//14
f 25//15 22//15 13//15 16//15
f 19//16 18//16 26//16 27//16
f 27//17 24//17 15//17 19//17
f 28//18 26//18 18//18 20//18
f 4//19 2//19 29//19 31//19
f 31//20 29//20 30//20 32//20
f 10//21 7//21 33//21 36//21
f 29//22 2//22 10//22 36//22
f 36//23 33//23 34//23 37//23
f 30//24 29//24 36//24 37//24
f 37//25 34//25 35//25 38//25
f 32//26 30//26 37//26 39//26
f 39//27 37//27 38//27 40//27
f 17//28 14//28 41//28 43//28
f 33//29 7//29 17//29 43//29
f 43//30 41//30 42//30 44//30
f 34//31 33//31 43//31 44//31
f 35//32 34//32 44//32 45//32
f 38//33 35//33 45//33 46//33
f 40//34 38//34 46//34 48//34
f 48//35 46//35 47//35 49//35
f 41//36 14//36 23//36 50//36
f 42//37 41//37 50//37 51//37
f 44//38 42//38 51//38 52//38
f 45//39 44//39 52//39 53//39
f 46//40 45//40 53//40 54//40
f 47//41 46//41 54//41 55//41
f 49//42 47//42 55//42 56//42
f 57//43 3//43 4//43 58//43
f 59//44 57//44 58//44 60//44
f 61//45 11//45 12//45 62//45
f 62//46 12//46 3//46 57//46
f 63//47 61//47 62//47 64//47
f 64//48 62//48 57//48 59//48
f 65//49 64//49 59//49 60//49
f 66//50 63//50 64//50 67//50
f 67//51 64//51 65//51 68//51
f 69//52 20//52 21//52 70//52
f 70//53 21//53 11//53 61//53
f 71//54 69//54 70//54 72//54
f 72//55 70//55 61//55 63//55
f 73//56 72//56 63//56 66//56
f 74//57 73//57 66//57 67//57
f 75//58 74//58 67//58 68//58
f 76//59 74//59 75//59 77//59
f 78//60 28//60 20//60 69//60
f 79//61 78//61 69//61 71//61
f 80//62 79//62 71//62 72//62
f 81//63 80//63 72//63 73//63
f 82//64 81//64 73//64 74//64
f 83//65 82//65 74//65 76//65
f 84//66 83//66 76//66 77//66
f 58//67 4//67 31//67 85//67
f 85//68 31//68 32//68 86//68
f 60//69 58//69 85//69 87//69
f 87//70 85//70 86//70 88//70
f 86//71 32//71 39//71 89//71
f 89//72 39//72 40//72 90//72
f 91//73 65//73 60//73 87//73
f 92//74 91//74 87//74 88//74
f 88//75 86//75 89//75 92//75
f 92//76 89//76 90//76 93//76
f 68//77 65//77 91//77 94//77
f 94//78 91//78 92//78 95//78
f 95//79 92//79 93//79 96//79
f 90//80 40//80 48//80 97//80
f 97//81 48//81 49//81 98//81
f 93//82 90//82 97//82 99//82
f 99//83 97//83 98//83 100//83
f 101//84 75//84 68//84 94//84
f 102//85 101//85 94//85 95//85
f 103//86 102//86 95//86 96//86
f 96//87 93//87 99//87 103//87
f 77//88 75//88 101//88 104//88
f 104//89 101//89 102//89 105//89
f 98//90 49//90 56//90 106//90
f 108//91 107//91 99//91 100//91
f 100//92 98//92 106//92 108//92
f 110//93 109//93 102//93 103//93
f 103//94 99//94 107//94 110//94
f 111//95 84//95 77//95 104//95
f 112//96 111//96 104//96 105//96
f 105//97 102//97 109//97 112//97
f 23//98 22//98 113//98 114//98
f 25//99 24//99 115//99 116//99
f 116//100 113//100 22//100 25//100
f 27//101 26//101 117//101 118//101
f 118//102 115//102 24//102 27//102
f 119//103 117//103 26//103 28//103
f 114//104 113//104 120//104 121//104
f 116//105 115//105 122//105 123//105
f 123//106 120//106 113//106 116//106
f 124//107 121//107 120//107 123//107
f 118//108 117//108 125//108 126//108
f 126//109 122//109 115//109 118//109
f 127//110 125//110 117//110 119//110
f 128//111 126//111 125//111 127//111
f 123//112 122//112 129//112 130//112
f 124//113 123//113 130//113 131//113
f 132//114 129//114 122//114 126//114
f 133//115 130//115 129//115 132//115
f 134//116 131//116 130//116 133//116
f 135//117 132//117 126//117 128//117
f 136//118 133//118 132//118 135//118
f 134//119 133//119 137//119 138//119
f 139//120 137//120 133//120 136//120
f 140//121 138//121 137//121 139//121
f 50//122 23//122 114//122 141//122
f 51//123 50//123 141//123 142//123
f 52//124 51//124 142//124 143//124
f 53//125 52//125 143//125 144//125
f 54//126 53//126 144//126 145//126
f 55//127 54//127 145//127 146//127
f 56//128 55//128 146//128 147//128
f 141//129 114//129 121//129 148//129
f 142//130 141//130 148//130 149//130
f 150//131 148//131 121//131 124//131
f 151//132 149//132 148//132 150//132
f 143//133 142//133 149//133 151//133
f 144//134 143//134 151//134 152//134
f 145//135 144//135 152//135 153//135
f 146//136 145//136 153//136 154//136
f 156//137 154//137 153//137 155//137
f 147//138 146//138 154//138 156//138
f 150//139 124//139 131//139 157//139
f 151//140 150//140 157//140 158//140
f 152//141 151//141 158//141 159//141
f 160//142 157//142 131//142 134//142
f 161//143 158//143 157//143 160//143
f 162//144 159//144 158//144 161//144
f 153//145 152//145 159//145 162//145
f 164//146 162//146 161//146 163//146
f 155//147 153//147 162//147 164//147
f 160//148 134//148 138//148 165//148
f 161//149 160//149 165//149 166//149
f 167//150 165//150 138//150 140//150
f 168//151 166//151 165//151 167//151
f 163//152 161//152 166//152 168//152
f 169//153 119//153 28//153 78//153
f 170//154 169//154 78//154 79//154
f 171//155 170//155 79//155 80//155
f 172//156 171//156 80//156 81//156
f 173//157 172//157 81//157 82//157
f 174//158 173//158 82//158 83//158
f 175//159 174//159 83//159 84//159
f 176//160 127//160 119//160 169//160
f 177//161 128//161 127//161 176//161
f 178//162 176//162 169//162 170//162
f 179//163 177//163 176//163 178//163
f 179//164 178//164 170//164 171//164
f 180//165 179//165 171//165 172//165
f 181//166 180//166 172//166 173//166
f 183//167 181//167 173//167 174//167
f 184//168 182//168 181//168 183//168
f 184//169 183//169 174//169 175//169
f 185//170 135//170 128//170 177//170
f 186//171 136//171 135//171 185//171
f 187//172 185//172 177//172 179//172
f 188//173 186//173 185//173 187//173
f 190//174 187//174 179//174 180//174
f 191//175 188//175 187//175 190//175
f 191//176 190//176 180//176 181//176
f 192//177 189//177 188//177 191//177
f 192//178 191//178 181//178 182//178
f 193//179 139//179 136//179 186//179
f 194//180 140//180 139//180 193//180
f 195//181 193//181 186//181 188//181
f 196//182 194//182 193//182 195//182
f 196//183 195//183 188//183 189//183
f 106//184 56//184 147//184 197//184
f 199//185 198//185 107//185 108//185
f 108//186 106//186 197//186 199//186
f 201//187 200//187 109//187 110//187
f 110//188 107//188 198//188 201//188
f 202//189 175//189 84//189 111//189
f 203//190 202//190 111//190 112//190
f 112//191 109//191 200//191 203//191
f 205//192 156//192 155//192 204//192
f 197//193 147//193 156//193 205//193
f 207//194 205//194 204//194 206//194
f 207//195 206//195 198//195 199//195
f 199//196 197//196 205//196 207//196
f 210//197 209//197 200//197 201//197
f 201//198 198//198 206//198 210//198
f 211//199 208//199 182//199 184//199
f 211//200 184//200 175//200 202//200
f 212//201 209//201 208//201 211//201
f 212//202 211//202 202//202 203//202
f 203//203 200//203 209//203 212//203
f 214//204 164//204 163//204 213//204
f 204//205 155//205 164//205 214//205
f 217//206 214//206 213//206 216//206
f 206//207 204//207 214//207 217//207
f 218//208 215//208 189//208 192//208
f 218//209 192//209 182//209 208//209
f 219//210 216//210 215//210 218//210
f 219//211 218//211 208//211 209//211
f 220//212 217//212 216//212 219//212
f 220//213 219//213 209//213 210//213
f 210//214 206//214 217//214 220//214
f 221//215 167//215 140//215 194//215
f 222//216 168//216 167//216 221//216
f 213//217 163//217 168//217 222//217
f 223//218 221//218 194//218 196//218
f 223//219 196//219 189//219 215//219
f 224//220 222//220 221//220 223//220
f 224//221 223//221 215//221 216//221
f 216//222 213//222 222//222 224//222
