# Blender 3.5.1
# www.blender.org
o Cube200
v -224.301880 80.296883 298.961823
v -224.301880 80.703117 298.961823
v -224.301880 80.296883 298.555573
v -224.301880 80.703117 298.555573
v -223.895630 80.296883 298.961823
v -223.895630 80.703117 298.961823
v -223.895630 80.296883 298.555573
v -223.895630 80.703117 298.555573
vn -1.0000 -0.0000 -0.0000
vn -0.0000 -0.0000 1.0000
vn -0.0000 -1.0000 -0.0000
vn 1.0000 -0.0000 -0.0000
vn -0.0000 -0.0000 -1.0000
vn -0.0000 1.0000 -0.0000
s 0
f 3//1 1//1 2//1 4//1
f 2//2 1//2 5//2 6//2
f 7//3 5//3 1//3 3//3
f 8//4 6//4 5//4 7//4
f 8//5 7//5 3//5 4//5
f 4//6 2//6 6//6 8//6
