# Blender 3.5.1
# www.blender.org
o Cube210
v 19.621735 15.955651 -19.925608
v 19.621735 16.095097 -19.925608
v 19.585819 15.909238 -20.109375
v 19.583004 16.177370 -20.080528
v 19.625477 16.321234 -20.162859
v 19.594254 15.920729 -20.321789
v 19.588627 16.148438 -20.327684
v 19.625477 16.321234 -20.289602
v 19.601105 24.166208 -19.904404
v 19.601105 24.291744 -19.904404
v 19.555004 24.113712 -20.109375
v 19.573277 24.385984 -20.135468
v 19.573795 24.133844 -20.342993
v 19.591938 24.375000 -20.324217
v 19.650352 24.529793 -20.254427
v 19.650352 24.529793 -20.263775
v 19.925610 15.955651 -19.621735
v 19.925610 16.095098 -19.621735
v 20.109375 15.909238 -19.585819
v 20.080528 16.177372 -19.583004
v 20.162857 16.321234 -19.625475
v 20.321789 15.920729 -19.594255
v 20.327682 16.148438 -19.588625
v 20.289604 16.321234 -19.625475
v 19.904404 24.166208 -19.601103
v 19.904404 24.291744 -19.601103
v 20.109375 24.113712 -19.555002
v 20.135468 24.385984 -19.573277
v 20.342991 24.133844 -19.573795
v 20.324215 24.375000 -19.591938
v 20.254425 24.529793 -19.650351
v 20.263775 24.529793 -19.650351
v 19.905357 15.633646 -19.905355
v 19.813919 15.854089 -19.813919
v 19.789345 16.196661 -19.789345
v 19.856209 16.379560 -19.856209
v 19.858444 15.582376 -20.109375
v 19.706100 15.756894 -20.109375
v 19.653084 16.298222 -19.959734
v 19.804497 16.451960 -20.108717
v 19.955906 16.606421 -20.257698
v 19.877254 15.603793 -20.342041
v 19.785393 15.818736 -20.433477
v 19.738033 16.148438 -20.480028
v 19.840660 16.423119 -20.377790
v 19.955906 16.606421 -20.262854
v 19.896652 15.919868 -20.625662
v 19.890377 16.148438 -20.631777
v 19.928539 16.321878 -20.594313
v 20.109375 15.582376 -19.858442
v 20.109375 15.756894 -19.706099
v 19.959732 16.298223 -19.653084
v 20.108715 16.451960 -19.804497
v 20.257702 16.606421 -19.955908
v 20.209049 15.375595 -20.209049
v 20.108242 15.429739 -20.108242
v 20.054577 16.582685 -20.054573
v 20.137432 16.621946 -20.137432
v 20.209049 15.375595 -20.276575
v 20.121361 15.542020 -20.410870
v 20.033672 15.716743 -20.545166
v 20.109375 16.501060 -20.437241
v 20.109375 16.625353 -20.284897
v 20.236797 15.683372 -20.573267
v 20.124889 15.828484 -20.658117
v 20.109375 16.148438 -20.738464
v 20.109375 16.348717 -20.628971
v 20.342041 15.603793 -19.877254
v 20.433475 15.818736 -19.785391
v 20.480026 16.148438 -19.738035
v 20.377789 16.423119 -19.840662
v 20.262852 16.606421 -19.955908
v 20.276573 15.375595 -20.209049
v 20.410870 15.542020 -20.121361
v 20.545166 15.716743 -20.033672
v 20.437241 16.501060 -20.109375
v 20.284897 16.625353 -20.109375
v 20.276573 15.375595 -20.276575
v 20.374226 15.581809 -20.374224
v 20.486103 15.843750 -20.486103
v 20.523685 16.148438 -20.523684
v 20.406734 16.445162 -20.406734
v 20.291489 16.631029 -20.291489
v 20.268749 15.683372 -20.573267
v 20.333759 15.843750 -20.636602
v 20.371342 16.148438 -20.673094
v 20.318855 16.343599 -20.621922
v 20.625664 15.919868 -19.896652
v 20.631779 16.148438 -19.890379
v 20.594311 16.321878 -19.928539
v 20.573265 15.683372 -20.236797
v 20.658115 15.828484 -20.124891
v 20.738464 16.148438 -20.109375
v 20.628971 16.348717 -20.109375
v 20.573265 15.683372 -20.268749
v 20.636604 15.843750 -20.333759
v 20.673092 16.148438 -20.371340
v 20.621922 16.343599 -20.318857
v 19.893936 23.867836 -19.893936
v 19.797607 24.064646 -19.797607
v 19.791340 24.393307 -19.791340
v 19.841473 23.824968 -20.109375
v 19.689129 23.961369 -20.109375
v 19.678276 24.494869 -20.051302
v 19.866051 23.844101 -20.353460
v 19.769264 24.031784 -20.449789
v 19.741547 24.375000 -20.476561
v 19.875603 24.132849 -20.646292
v 19.893890 24.375000 -20.628355
v 20.109375 23.824968 -19.841475
v 20.109375 23.961369 -19.689131
v 20.051300 24.494869 -19.678276
v 20.109375 23.695709 -20.109375
v 20.100254 23.806059 -20.438639
v 19.992607 23.929724 -20.556585
v 20.195732 23.903797 -20.584469
v 20.116631 24.073168 -20.716944
v 20.127205 24.349333 -20.756224
v 20.240654 24.216612 -20.876131
v 20.240654 24.230658 -20.876131
v 20.353462 23.844101 -19.866051
v 20.449787 24.031784 -19.769266
v 20.476559 24.375000 -19.741545
v 20.438641 23.806059 -20.100252
v 20.556587 23.929724 -19.992607
v 20.394760 23.841877 -20.394760
v 20.483456 24.010584 -20.483456
v 20.496254 24.437502 -20.496252
v 20.280331 23.903797 -20.584469
v 20.375557 24.113598 -20.681255
v 20.381958 24.334080 -20.687544
v 20.267662 24.216612 -20.876131
v 20.267662 24.230658 -20.876131
v 20.646294 24.132849 -19.875605
v 20.628357 24.375000 -19.893888
v 20.584469 23.903797 -20.195732
v 20.716942 24.073168 -20.116631
v 20.756226 24.349333 -20.127203
v 20.584469 23.903797 -20.280331
v 20.681255 24.113598 -20.375559
v 20.687542 24.334080 -20.381956
v 20.574917 24.213709 -20.574917
v 20.574917 24.234377 -20.574917
v 20.876133 24.216612 -20.240652
v 20.876133 24.230658 -20.240652
v 20.876133 24.216612 -20.267660
v 20.876133 24.230658 -20.267660
v 19.881401 24.613750 -19.881401
v 19.810562 24.673334 -20.131199
v 19.942844 24.846729 -20.211098
v 19.846992 24.631784 -20.371449
v 19.942844 24.846729 -20.275997
v 19.954269 24.530653 -20.569120
v 20.131199 24.673334 -19.810560
v 20.211098 24.846729 -19.942844
v 20.007973 24.816875 -20.007973
v 20.109470 24.875656 -20.109472
v 20.109375 24.709679 -20.456896
v 20.109375 24.875540 -20.304552
v 20.109375 24.557335 -20.591419
v 20.371449 24.631784 -19.846994
v 20.275997 24.846729 -19.942844
v 20.456894 24.709679 -20.109375
v 20.304550 24.875540 -20.109375
v 20.400402 24.665586 -20.400402
v 20.304550 24.875345 -20.304552
v 20.293129 24.564024 -20.597044
v 20.569118 24.530653 -19.954269
v 20.591419 24.557335 -20.109375
v 20.597046 24.564024 -20.293127
vn -0.9768 -0.0218 0.2130
vn -0.9994 -0.0156 -0.0300
vn -0.9706 0.2385 -0.0330
vn -0.9835 0.0565 0.1722
vn -0.9938 0.0693 -0.0866
vn -0.9131 0.3932 -0.1078
vn -0.2130 -0.0218 0.9768
vn 0.0300 -0.0156 0.9994
vn 0.0330 0.2385 0.9706
vn -0.1721 0.0565 0.9835
vn 0.0866 0.0693 0.9938
vn 0.1078 0.3932 0.9131
vn -0.8213 -0.0707 0.5660
vn -0.5660 -0.0707 0.8213
vn -0.7396 -0.5472 0.3918
vn -0.6606 -0.6413 0.3903
vn -0.8032 0.2172 0.5548
vn -0.5315 0.6738 0.5134
vn -0.7576 0.6290 0.1743
vn -0.8011 -0.5549 -0.2241
vn -0.6623 -0.7202 -0.2067
vn -0.6318 -0.1319 -0.7639
vn -0.5798 0.4028 -0.7082
vn -0.5121 0.8520 -0.1089
vn -0.7820 0.6006 -0.1663
vn -0.7674 -0.1329 -0.6272
vn -0.7119 0.4030 -0.5752
vn -0.3918 -0.5472 0.7396
vn -0.3903 -0.6413 0.6606
vn -0.5548 0.2172 0.8032
vn -0.1742 0.6290 0.7576
vn -0.5134 0.6738 0.5314
vn -0.4096 -0.8151 0.4096
vn -0.4147 0.8100 0.4147
vn -0.3010 0.8596 0.4129
vn -0.4129 0.8596 0.3010
vn -0.7239 -0.6526 -0.2236
vn -0.4141 -0.8770 -0.2438
vn -0.4436 -0.5935 -0.6716
vn -0.2865 0.6873 -0.6674
vn -0.1148 0.9925 0.0432
vn -0.2074 -0.6377 -0.7418
vn -0.4413 -0.5717 -0.6917
vn -0.3229 -0.1599 -0.9328
vn -0.3313 0.3744 -0.8661
vn -0.2970 0.7812 -0.5492
vn 0.2241 -0.5550 0.8011
vn 0.2067 -0.7202 0.6623
vn 0.7639 -0.1319 0.6318
vn 0.7082 0.4028 0.5798
vn 0.1089 0.8520 0.5121
vn 0.1663 0.6006 0.7820
vn 0.2236 -0.6526 0.7239
vn 0.2437 -0.8770 0.4141
vn 0.6716 -0.5935 0.4436
vn 0.6674 0.6873 0.2865
vn -0.0432 0.9924 0.1148
vn -0.0000 -1.0000 -0.0000
vn 0.8360 -0.5247 -0.1608
vn 0.1608 -0.5247 -0.8360
vn 0.7328 0.6720 -0.1069
vn 0.1069 0.6720 -0.7328
vn -0.0295 0.9991 0.0295
vn 0.1844 -0.8181 -0.5447
vn 0.6162 -0.5078 -0.6020
vn 0.1071 -0.4206 -0.9009
vn 0.6912 -0.1706 -0.7022
vn 0.1841 -0.1870 -0.9650
vn 0.6913 0.4353 -0.5767
vn 0.1440 0.3888 -0.9100
vn 0.1399 0.8262 -0.5457
vn 0.6272 -0.1329 0.7674
vn 0.5751 0.4030 0.7119
vn 0.7418 -0.6377 0.2074
vn 0.6917 -0.5717 0.4412
vn 0.9328 -0.1599 0.3229
vn 0.8661 0.3744 0.3313
vn 0.5492 0.7812 0.2970
vn 0.5447 -0.8181 -0.1844
vn 0.9009 -0.4206 -0.1071
vn 0.6020 -0.5079 -0.6162
vn 0.9650 -0.1870 -0.1841
vn 0.7022 -0.1706 -0.6912
vn 0.9100 0.3888 -0.1440
vn 0.5767 0.4353 -0.6913
vn 0.5457 0.8262 -0.1399
vn -0.8692 -0.0188 0.4941
vn -0.4941 -0.0188 0.8692
vn -0.6847 -0.6212 0.3812
vn -0.6367 -0.6647 0.3908
vn -0.6966 0.5750 0.4292
vn -0.7375 -0.6351 -0.2294
vn -0.6401 -0.7343 -0.2261
vn -0.6043 -0.0208 -0.7965
vn -0.7995 -0.0219 -0.6002
vn -0.3812 -0.6212 0.6847
vn -0.3909 -0.6647 0.6367
vn -0.4292 0.5750 0.6966
vn -0.3478 -0.8707 0.3478
vn -0.3414 -0.9148 -0.2158
vn -0.4497 -0.6876 -0.5700
vn -0.1840 -0.7037 -0.6862
vn -0.4589 -0.5666 -0.6844
vn -0.3885 -0.0163 -0.9213
vn -0.7576 -0.0604 -0.6499
vn 0.2294 -0.6351 0.7375
vn 0.2261 -0.7343 0.6401
vn 0.7965 -0.0208 0.6043
vn 0.2158 -0.9148 0.3414
vn 0.5700 -0.6876 0.4497
vn 0.2408 -0.9402 -0.2408
vn 0.1343 -0.8918 -0.4319
vn 0.5860 -0.5680 -0.5779
vn 0.1484 -0.5163 -0.8435
vn 0.1840 -0.8106 -0.5559
vn 0.8647 -0.0370 -0.5010
vn -0.0000 -0.0000 -1.0000
vn 0.1833 0.7976 -0.5747
vn 0.6002 -0.0220 0.7996
vn 0.6862 -0.7037 0.1840
vn 0.6844 -0.5666 0.4589
vn 0.9213 -0.0163 0.3885
vn 0.4320 -0.8918 -0.1343
vn 0.8435 -0.5163 -0.1484
vn 0.5779 -0.5680 -0.5860
vn 0.5964 -0.5371 -0.5964
vn 0.8726 -0.0357 -0.4871
vn 0.4871 -0.0357 -0.8726
vn 0.6202 0.4803 -0.6202
vn 0.6500 -0.0604 0.7576
vn 0.5559 -0.8106 -0.1840
vn 1.0000 -0.0000 -0.0000
vn 0.5010 -0.0370 -0.8647
vn 0.5747 0.7976 -0.1833
vn -0.6967 0.5725 0.4323
vn -0.7553 0.6206 0.2105
vn -0.6107 0.4925 -0.6200
vn -0.5473 0.8090 -0.2145
vn -0.8467 0.5042 -0.1697
vn -0.6243 0.4926 -0.6063
vn -0.2105 0.6206 0.7553
vn -0.4323 0.5725 0.6967
vn -0.5305 0.6612 0.5305
vn -0.2915 0.7822 0.5506
vn -0.5506 0.7822 0.2915
vn -0.3406 0.5715 -0.7466
vn -0.1707 0.9853 -0.0004
vn -0.3081 0.5249 -0.7935
vn -0.3380 0.6924 -0.6375
vn 0.6200 0.4925 0.6107
vn 0.2146 0.8090 0.5473
vn 0.1698 0.5042 0.8467
vn 0.7466 0.5715 0.3406
vn 0.0004 0.9853 0.1707
vn 0.8079 0.5710 -0.1459
vn 0.1459 0.5710 -0.8079
vn 0.0008 1.0000 -0.0008
vn 0.6139 0.4970 -0.6133
vn 0.1313 0.5229 -0.8422
vn 0.1278 0.7667 -0.6292
vn 0.6063 0.4926 0.6243
vn 0.7934 0.5249 0.3081
vn 0.6375 0.6924 0.3380
vn 0.8422 0.5229 -0.1313
vn 0.6133 0.4970 -0.6139
vn 0.6292 0.7667 -0.1278
s 0
f 3//1 1//1 2//1 4//1
f 6//2 3//2 4//2 7//2
f 7//3 4//3 5//3 8//3
f 11//4 9//4 10//4 12//4
f 13//5 11//5 12//5 14//5
f 14//6 12//6 15//6 16//6
f 18//7 17//7 19//7 20//7
f 20//8 19//8 22//8 23//8
f 21//9 20//9 23//9 24//9
f 26//10 25//10 27//10 28//10
f 28//11 27//11 29//11 30//11
f 31//12 28//12 30//12 32//12
f 34//13 17//13 18//13 35//13
f 2//14 1//14 34//14 35//14
f 37//15 33//15 34//15 38//15
f 38//16 34//16 1//16 3//16
f 4//17 2//17 35//17 39//17
f 39//18 35//18 36//18 40//18
f 5//19 4//19 39//19 40//19
f 42//20 37//20 38//20 43//20
f 43//21 38//21 3//21 6//21
f 44//22 43//22 6//22 7//22
f 45//23 44//23 7//23 8//23
f 8//24 5//24 40//24 45//24
f 45//25 40//25 41//25 46//25
f 47//26 43//26 44//26 48//26
f 48//27 44//27 45//27 49//27
f 34//28 33//28 50//28 51//28
f 51//29 19//29 17//29 34//29
f 35//30 18//30 20//30 52//30
f 52//31 20//31 21//31 53//31
f 36//32 35//32 52//32 53//32
f 56//33 50//33 33//33 37//33
f 40//34 36//34 53//34 57//34
f 57//35 53//35 54//35 58//35
f 41//36 40//36 57//36 58//36
f 59//37 55//37 56//37 60//37
f 60//38 56//38 37//38 42//38
f 61//39 60//39 42//39 43//39
f 63//40 62//40 45//40 46//40
f 46//41 41//41 58//41 63//41
f 64//42 60//42 61//42 65//42
f 65//43 61//43 43//43 47//43
f 66//44 65//44 47//44 48//44
f 67//45 66//45 48//45 49//45
f 49//46 45//46 62//46 67//46
f 51//47 50//47 68//47 69//47
f 69//48 22//48 19//48 51//48
f 70//49 23//49 22//49 69//49
f 71//50 24//50 23//50 70//50
f 53//51 21//51 24//51 71//51
f 54//52 53//52 71//52 72//52
f 56//53 55//53 73//53 74//53
f 74//54 68//54 50//54 56//54
f 75//55 69//55 68//55 74//55
f 77//56 72//56 71//56 76//56
f 58//57 54//57 72//57 77//57
f 78//58 73//58 55//58 59//58
f 79//59 74//59 73//59 78//59
f 79//60 78//60 59//60 60//60
f 83//61 77//61 76//61 82//61
f 83//62 82//62 62//62 63//62
f 63//63 58//63 77//63 83//63
f 84//64 79//64 60//64 64//64
f 85//65 80//65 79//65 84//65
f 85//66 84//66 64//66 65//66
f 86//67 81//67 80//67 85//67
f 86//68 85//68 65//68 66//68
f 87//69 82//69 81//69 86//69
f 87//70 86//70 66//70 67//70
f 67//71 62//71 82//71 87//71
f 70//72 69//72 88//72 89//72
f 71//73 70//73 89//73 90//73
f 75//74 74//74 91//74 92//74
f 92//75 88//75 69//75 75//75
f 93//76 89//76 88//76 92//76
f 94//77 90//77 89//77 93//77
f 76//78 71//78 90//78 94//78
f 95//79 91//79 74//79 79//79
f 96//80 92//80 91//80 95//80
f 96//81 95//81 79//81 80//81
f 97//82 93//82 92//82 96//82
f 97//83 96//83 80//83 81//83
f 98//84 94//84 93//84 97//84
f 98//85 97//85 81//85 82//85
f 82//86 76//86 94//86 98//86
f 100//87 25//87 26//87 101//87
f 10//88 9//88 100//88 101//88
f 102//89 99//89 100//89 103//89
f 103//90 100//90 9//90 11//90
f 12//91 10//91 101//91 104//91
f 105//92 102//92 103//92 106//92
f 106//93 103//93 11//93 13//93
f 107//94 106//94 13//94 14//94
f 108//95 106//95 107//95 109//95
f 100//96 99//96 110//96 111//96
f 111//97 27//97 25//97 100//97
f 101//98 26//98 28//98 112//98
f 113//99 110//99 99//99 102//99
f 114//100 113//100 102//100 105//100
f 115//101 114//101 105//101 106//101
f 116//102 114//102 115//102 117//102
f 117//103 115//103 106//103 108//103
f 118//104 117//104 108//104 109//104
f 119//105 117//105 118//105 120//105
f 111//106 110//106 121//106 122//106
f 122//107 29//107 27//107 111//107
f 123//108 30//108 29//108 122//108
f 124//109 121//109 110//109 113//109
f 125//110 122//110 121//110 124//110
f 126//111 124//111 113//111 114//111
f 129//112 126//112 114//112 116//112
f 130//113 127//113 126//113 129//113
f 130//114 129//114 116//114 117//114
f 132//115 130//115 117//115 119//115
f 133//116 131//116 130//116 132//116
f 133//117 132//117 119//117 120//117
f 120//118 118//118 131//118 133//118
f 123//119 122//119 134//119 135//119
f 125//120 124//120 136//120 137//120
f 137//121 134//121 122//121 125//121
f 138//122 135//122 134//122 137//122
f 139//123 136//123 124//123 126//123
f 140//124 137//124 136//124 139//124
f 140//125 139//125 126//125 127//125
f 142//126 140//126 127//126 130//126
f 143//127 141//127 140//127 142//127
f 143//128 142//128 130//128 131//128
f 131//129 128//129 141//129 143//129
f 138//130 137//130 144//130 145//130
f 146//131 144//131 137//131 140//131
f 147//132 145//132 144//132 146//132
f 147//133 146//133 140//133 141//133
f 141//134 138//134 145//134 147//134
f 104//135 101//135 148//135 149//135
f 15//136 12//136 104//136 149//136
f 151//137 107//137 14//137 16//137
f 16//138 15//138 149//138 151//138
f 151//139 149//139 150//139 152//139
f 109//140 107//140 151//140 153//140
f 112//141 28//141 31//141 154//141
f 148//142 101//142 112//142 154//142
f 149//143 148//143 154//143 156//143
f 156//144 154//144 155//144 157//144
f 150//145 149//145 156//145 157//145
f 159//146 158//146 151//146 152//146
f 152//147 150//147 157//147 159//147
f 160//148 118//148 109//148 153//148
f 153//149 151//149 158//149 160//149
f 161//150 32//150 30//150 123//150
f 154//151 31//151 32//151 161//151
f 155//152 154//152 161//152 162//152
f 164//153 162//153 161//153 163//153
f 157//154 155//154 162//154 164//154
f 166//155 164//155 163//155 165//155
f 166//156 165//156 158//156 159//156
f 159//157 157//157 164//157 166//157
f 167//158 165//158 128//158 131//158
f 167//159 131//159 118//159 160//159
f 160//160 158//160 165//160 167//160
f 161//161 123//161 135//161 168//161
f 169//162 168//162 135//162 138//162
f 163//163 161//163 168//163 169//163
f 170//164 169//164 138//164 141//164
f 170//165 141//165 128//165 165//165
f 165//166 163//166 169//166 170//166
