# Blender 3.5.1
# www.blender.org
mtllib animation30012.mtl
o Cube
v -5.419163 39.110386 11.270962
v -5.941999 39.724678 11.223149
v -6.013803 40.218750 11.321038
v -5.955327 40.828125 11.241342
v -5.864029 41.176361 11.116887
v -5.371350 39.724678 11.793797
v -5.469239 40.218750 11.865602
v -5.389543 40.828125 11.807126
v -5.265089 41.176361 11.715828
v -5.598382 39.521553 11.450181
v -5.773926 40.218750 11.625726
v -5.694230 40.828125 11.546029
v -5.480716 41.379486 11.332515
v -5.290094 41.792110 11.141892
v -5.941999 39.158199 10.656668
v -6.013804 39.060310 10.162598
v -5.955327 39.140007 9.553223
v -5.864029 39.264462 9.204986
v -5.371350 38.587551 10.656668
v -5.598382 38.931168 10.859793
v -5.469239 38.515743 10.162598
v -5.773926 38.755623 10.162598
v -5.389543 38.574223 9.553223
v -5.694230 38.835320 9.553223
v -5.265089 38.665520 9.204986
v -5.480716 39.048832 9.001861
v -5.290094 39.239456 8.589236
v -6.454409 40.449318 10.487290
v -6.454409 40.544342 10.487290
v -6.454409 39.894058 9.932028
v -6.480634 40.235218 10.146131
v -6.481791 40.597092 10.162598
v -6.454409 39.894058 9.837005
v -6.481791 40.218750 9.784258
v -6.483720 40.600735 9.780612
v -6.078927 39.556683 10.824665
v -6.337016 40.235218 10.723039
v -6.256986 40.779732 10.723039
v -5.934622 41.402691 10.711679
v -5.834873 41.742859 10.468359
v -6.337016 39.658310 10.146131
v -6.432779 40.043068 10.338278
v -6.360354 40.901779 10.162598
v -6.080646 41.437500 10.162598
v -5.859215 41.768414 10.162598
v -6.256986 39.658310 9.601617
v -6.360354 40.218750 9.479570
v -6.307800 40.813564 9.567781
v -5.988635 41.435074 9.579141
v -5.866904 41.776482 9.799544
v -5.934622 39.669666 8.978656
v -6.080645 40.218750 8.943848
v -5.988635 40.802208 8.946274
v -5.900538 41.230331 9.151016
v -5.834873 39.912987 8.638490
v -5.859215 40.218750 8.612936
v -5.866904 40.581802 8.604865
v -5.825413 39.318428 11.062918
v -5.696344 41.582611 10.874609
v -5.507751 41.863956 10.711679
v -5.529549 42.011925 10.162598
v -5.743564 41.636581 9.393294
v -5.536083 41.917397 9.579141
v -5.696344 39.506737 8.798736
v -5.743564 40.988052 8.744766
v -5.540439 41.445961 8.935389
v -5.337314 41.827576 9.126011
v -5.507751 39.669666 8.517391
v -5.529549 40.218750 8.369422
v -5.536083 40.802208 8.463951
v -5.337314 41.255337 8.553771
v -4.804869 39.158199 11.793797
v -4.804869 38.587551 11.223149
v -5.007994 38.931168 11.450181
v -4.310799 39.060310 11.865602
v -4.310799 38.515743 11.321038
v -4.310799 38.755623 11.625726
v -3.701424 39.140007 11.807126
v -3.701424 38.574223 11.241342
v -3.701424 38.835320 11.546029
v -3.353187 39.264462 11.715828
v -3.353187 38.665520 11.116887
v -3.150062 39.048832 11.332515
v -2.737437 39.239456 11.141892
v -4.635492 40.449318 12.306208
v -4.635492 40.544342 12.306208
v -4.972866 39.556683 11.930726
v -4.871240 40.235218 12.188815
v -4.871240 40.779732 12.108786
v -4.859880 41.402691 11.786421
v -4.616560 41.742859 11.686672
v -5.211119 39.318428 11.677212
v -5.022810 41.582611 11.548142
v -4.859880 41.863956 11.359550
v -4.080229 39.894058 12.306208
v -4.294332 40.235218 12.332433
v -4.310799 40.597092 12.333590
v -4.294332 39.658310 12.188815
v -4.486479 40.043068 12.284578
v -4.310799 40.901779 12.212152
v -4.310799 41.437500 11.932445
v -4.310799 41.768414 11.711014
v -4.310799 42.011925 11.381348
v -3.985206 39.894058 12.306208
v -3.932459 40.218750 12.333590
v -3.928813 40.600735 12.335519
v -3.749818 39.658310 12.108786
v -3.627771 40.218750 12.212152
v -3.715982 40.813564 12.159599
v -3.727341 41.435074 11.840434
v -3.947745 41.776482 11.718703
v -3.541495 41.636581 11.595364
v -3.727341 41.917397 11.387882
v -3.126856 39.669666 11.786421
v -3.092049 40.218750 11.932445
v -3.094475 40.802208 11.840434
v -3.299217 41.230331 11.752337
v -2.946937 39.506737 11.548142
v -2.892967 40.988052 11.595364
v -3.083589 41.445961 11.392239
v -3.274211 41.827576 11.189114
v -2.786691 39.912987 11.686672
v -2.761137 40.218750 11.711014
v -2.753066 40.581802 11.718703
v -2.665592 39.669666 11.359550
v -2.517623 40.218750 11.381348
v -2.612152 40.802208 11.387882
v -2.701972 41.255337 11.189114
v -4.972866 38.450623 10.824665
v -5.211119 38.704136 11.062918
v -4.635492 38.075138 9.932029
v -4.871240 38.192532 10.146132
v -4.635492 38.075138 9.837005
v -4.871240 38.272564 9.601617
v -4.859880 38.594925 8.978656
v -5.022810 38.833206 8.798736
v -4.616560 38.694675 8.638490
v -4.859880 39.021797 8.517391
v -4.080230 38.075138 10.487291
v -4.294332 38.192532 10.723039
v -4.294332 38.048916 10.146132
v -4.486480 38.096771 10.338279
v -4.310799 38.047756 9.784258
v -4.310799 38.169193 9.479570
v -4.310799 38.448902 8.943848
v -4.310799 38.670334 8.612936
v -4.310799 39.000000 8.369422
v -3.985206 38.075138 10.487291
v -3.749818 38.272564 10.723039
v -3.932459 38.047756 10.162598
v -3.627771 38.169193 10.162598
v -3.928813 38.045830 9.780612
v -3.715982 38.221748 9.567781
v -3.727342 38.540913 8.946274
v -3.541495 38.785984 8.744766
v -3.947745 38.662643 8.604865
v -3.727342 38.993465 8.463951
v -3.126856 38.594925 10.711679
v -2.946937 38.833206 10.874609
v -3.092049 38.448902 10.162598
v -3.094475 38.540913 9.579141
v -2.892967 38.785984 9.393294
v -3.299217 38.629009 9.151016
v -3.083589 38.989109 8.935389
v -3.274211 39.192234 8.553771
v -2.786691 38.694675 10.468359
v -2.665592 39.021797 10.711679
v -2.761137 38.670334 10.162598
v -2.517623 39.000000 10.162598
v -2.753066 38.662643 9.799544
v -2.612152 38.993465 9.579141
v -2.701972 39.192234 9.126011
v -4.898495 42.198715 10.750295
v -4.680918 42.389313 10.532718
v -5.057304 42.290390 10.162598
v -4.752616 42.430943 10.162598
v -4.929681 42.246376 9.540525
v -4.732894 42.419651 9.735186
v -5.120460 41.661587 8.719761
v -4.918470 41.934906 8.931271
v -4.898495 39.631054 8.182631
v -5.057304 40.218750 8.090960
v -4.929681 40.840820 8.134972
v -4.918470 41.450077 8.446443
v -4.714210 41.801651 8.579698
v -4.680918 39.848629 7.992036
v -4.752616 40.218750 7.950406
v -4.732894 40.646160 7.961696
v -4.310799 42.290390 10.909103
v -4.310799 42.430943 10.604416
v -4.310799 42.555061 10.162598
v -4.310799 42.324570 9.330154
v -4.310799 42.475681 9.634842
v -4.310799 42.130569 8.943848
v -4.310799 39.472244 8.090960
v -4.310799 41.051193 8.056779
v -4.310799 41.437500 8.250779
v -4.310799 41.852875 8.528473
v -4.310799 39.776932 7.950406
v -4.310799 40.218750 7.826288
v -4.310799 40.746506 7.905667
v -3.688727 42.246376 10.781480
v -3.883387 42.419651 10.584694
v -3.478355 42.324570 10.162598
v -3.783043 42.475681 10.162598
v -3.657541 42.288860 9.509340
v -3.831411 42.448963 9.683209
v -3.443845 41.708809 8.672540
v -3.668751 41.981636 8.902938
v -3.688727 39.599869 8.134972
v -3.478355 40.218750 8.056779
v -3.657541 40.872009 8.092485
v -3.668751 41.478409 8.399713
v -3.850095 41.830307 8.551040
v -3.883387 39.796654 7.961696
v -3.783043 40.218750 7.905667
v -3.831411 40.698139 7.932384
v -2.867961 41.661587 10.972260
v -3.079471 41.934906 10.770269
v -3.092049 42.130569 10.162598
v -2.820741 41.708809 9.295644
v -3.051139 41.981636 9.520551
v -2.867961 39.409088 8.719761
v -2.820741 41.085705 8.672540
v -3.023866 41.505684 8.875665
v -3.226991 41.859234 9.078790
v -3.079471 39.611076 8.446443
v -3.092049 40.218750 8.250779
v -3.051139 40.860798 8.399713
v -3.226991 41.302559 8.522115
v -2.330832 39.631054 10.750295
v -2.239160 40.218750 10.909103
v -2.283173 40.840820 10.781480
v -2.594644 41.450077 10.770269
v -2.727899 41.801651 10.566010
v -2.239160 39.472244 10.162598
v -2.204980 41.051193 10.162598
v -2.398980 41.437500 10.162598
v -2.676674 41.852875 10.162598
v -2.283173 39.599869 9.540525
v -2.204980 40.218750 9.330154
v -2.240687 40.872009 9.509340
v -2.547913 41.478409 9.520551
v -2.699241 41.830307 9.701894
v -2.594644 39.611076 8.931271
v -2.398980 40.218750 8.943848
v -2.547913 40.860798 8.902938
v -2.670316 41.302559 9.078790
v -2.727899 39.815338 8.579698
v -2.676674 40.218750 8.528473
v -2.699241 40.679455 8.551040
v -2.140237 39.848629 10.532718
v -2.098607 40.218750 10.604416
v -2.109896 40.646160 10.584694
v -2.098607 39.776932 10.162598
v -1.974489 40.218750 10.162598
v -2.053868 40.746506 10.162598
v -2.109896 39.796654 9.735187
v -2.053868 40.218750 9.634842
v -2.080586 40.698139 9.683209
vn -0.6367 -0.4351 0.6367
vn -0.5467 -0.3230 0.7726
vn -0.5703 -0.0612 0.8192
vn -0.7057 -0.0638 0.7057
vn -0.8192 -0.0612 0.5703
vn -0.7726 -0.3230 0.5467
vn -0.5460 0.2975 0.7832
vn -0.6720 0.3113 0.6720
vn -0.7832 0.2975 0.5460
vn -0.5091 0.4737 0.7187
vn -0.5944 0.5416 0.5944
vn -0.7187 0.4737 0.5091
vn -0.5703 -0.8192 0.0612
vn -0.5467 -0.7726 0.3230
vn -0.6367 -0.6367 0.4351
vn -0.7057 -0.7057 0.0638
vn -0.7726 -0.5467 0.3230
vn -0.8192 -0.5703 0.0612
vn -0.5460 -0.7832 -0.2975
vn -0.6720 -0.6720 -0.3113
vn -0.7832 -0.5460 -0.2975
vn -0.5091 -0.7187 -0.4737
vn -0.5944 -0.5944 -0.5416
vn -0.7187 -0.5091 -0.4737
vn -0.9907 -0.0960 0.0960
vn -0.9521 -0.0057 0.3059
vn -0.9306 0.1935 0.3106
vn -0.9694 0.2386 0.0583
vn -0.9306 -0.3106 -0.1935
vn -0.9521 -0.3059 0.0057
vn -0.9694 -0.0583 -0.2386
vn -0.9528 0.2147 -0.2147
vn -0.8342 -0.3899 0.3899
vn -0.9051 -0.0977 0.4138
vn -0.8677 0.3107 0.3881
vn -0.7763 0.5082 0.3729
vn -0.9051 -0.4138 0.0977
vn -0.9397 -0.2419 0.2419
vn -0.8872 0.4573 0.0608
vn -0.8799 0.4712 0.0608
vn -0.7001 0.6577 0.2781
vn -0.7245 0.6862 0.0652
vn -0.8677 -0.3881 -0.3107
vn -0.8872 -0.0608 -0.4573
vn -0.8891 0.3237 -0.3237
vn -0.8056 0.5078 -0.3053
vn -0.7144 0.6757 -0.1819
vn -0.7763 -0.3729 -0.5082
vn -0.8799 -0.0608 -0.4712
vn -0.8056 0.3053 -0.5078
vn -0.7453 0.4715 -0.4715
vn -0.7001 -0.2781 -0.6577
vn -0.7245 -0.0652 -0.6862
vn -0.7144 0.1819 -0.6757
vn -0.5774 -0.5774 0.5773
vn -0.6878 -0.5133 0.5133
vn -0.6465 0.5896 0.4842
vn -0.5126 0.6888 0.5126
vn -0.5516 0.7470 0.3712
vn -0.5122 0.8569 0.0583
vn -0.5505 0.7788 -0.3007
vn -0.6556 0.6050 -0.4518
vn -0.6465 -0.4842 -0.5896
vn -0.6113 0.5596 -0.5596
vn -0.6556 0.4518 -0.6050
vn -0.5194 0.7153 -0.4676
vn -0.5126 -0.5126 -0.6888
vn -0.5516 -0.3712 -0.7470
vn -0.5122 -0.0583 -0.8569
vn -0.5505 0.3007 -0.7788
vn -0.5194 0.4676 -0.7153
vn -0.4351 -0.6367 0.6367
vn -0.3230 -0.7726 0.5467
vn -0.0612 -0.8192 0.5703
vn -0.0638 -0.7057 0.7057
vn -0.0612 -0.5703 0.8192
vn -0.3230 -0.5467 0.7726
vn 0.2975 -0.7832 0.5460
vn 0.3113 -0.6720 0.6720
vn 0.2975 -0.5460 0.7832
vn 0.4737 -0.7187 0.5091
vn 0.5416 -0.5944 0.5944
vn 0.4737 -0.5091 0.7187
vn -0.3899 -0.3899 0.8342
vn -0.4138 -0.0977 0.9051
vn -0.3059 -0.0057 0.9521
vn -0.3106 0.1935 0.9306
vn -0.3881 0.3107 0.8677
vn -0.3729 0.5082 0.7763
vn -0.5133 -0.5133 0.6878
vn -0.4842 0.5896 0.6465
vn -0.2781 0.6577 0.7001
vn -0.3712 0.7470 0.5516
vn -0.0960 -0.0960 0.9907
vn -0.0583 0.2386 0.9694
vn -0.0977 -0.4138 0.9051
vn -0.0057 -0.3059 0.9521
vn -0.2419 -0.2419 0.9397
vn -0.0608 0.4573 0.8872
vn -0.0608 0.4712 0.8799
vn -0.0652 0.6862 0.7245
vn -0.0583 0.8569 0.5122
vn 0.1935 -0.3106 0.9306
vn 0.2386 -0.0583 0.9694
vn 0.2147 0.2147 0.9528
vn 0.3107 -0.3881 0.8677
vn 0.4573 -0.0608 0.8872
vn 0.3237 0.3237 0.8891
vn 0.3053 0.5077 0.8056
vn 0.1819 0.6757 0.7144
vn 0.3007 0.7788 0.5505
vn 0.4518 0.6050 0.6556
vn 0.5082 -0.3729 0.7763
vn 0.4712 -0.0608 0.8799
vn 0.5078 0.3053 0.8056
vn 0.4715 0.4715 0.7453
vn 0.5896 -0.4842 0.6465
vn 0.5596 0.5596 0.6113
vn 0.6051 0.4518 0.6556
vn 0.4676 0.7153 0.5194
vn 0.6577 -0.2781 0.7001
vn 0.6862 -0.0652 0.7245
vn 0.6757 0.1819 0.7144
vn 0.6888 -0.5126 0.5126
vn 0.7470 -0.3712 0.5516
vn 0.8569 -0.0583 0.5122
vn 0.7788 0.3007 0.5505
vn 0.7153 0.4676 0.5194
vn -0.3899 -0.8342 0.3899
vn -0.5133 -0.6878 0.5133
vn -0.4138 -0.9051 0.0977
vn -0.3106 -0.9306 -0.1935
vn -0.3059 -0.9521 0.0057
vn -0.3881 -0.8677 -0.3107
vn -0.3729 -0.7763 -0.5082
vn -0.4842 -0.6465 -0.5896
vn -0.2781 -0.7001 -0.6577
vn -0.3712 -0.5516 -0.7470
vn -0.0977 -0.9051 0.4138
vn -0.0960 -0.9907 0.0960
vn -0.0057 -0.9521 0.3059
vn -0.2419 -0.9397 0.2419
vn -0.0583 -0.9694 -0.2386
vn -0.0608 -0.8872 -0.4573
vn -0.0608 -0.8799 -0.4712
vn -0.0652 -0.7245 -0.6862
vn -0.0583 -0.5122 -0.8569
vn 0.1935 -0.9306 0.3106
vn 0.3107 -0.8677 0.3881
vn 0.2386 -0.9694 0.0583
vn 0.4573 -0.8872 0.0608
vn 0.2147 -0.9528 -0.2147
vn 0.3237 -0.8891 -0.3237
vn 0.3053 -0.8056 -0.5078
vn 0.1819 -0.7144 -0.6757
vn 0.3007 -0.5505 -0.7788
vn 0.4518 -0.6556 -0.6050
vn 0.5082 -0.7763 0.3729
vn 0.5896 -0.6465 0.4842
vn 0.4712 -0.8799 0.0608
vn 0.5078 -0.8056 -0.3053
vn 0.4715 -0.7453 -0.4715
vn 0.5596 -0.6113 -0.5596
vn 0.6051 -0.6556 -0.4518
vn 0.4676 -0.5194 -0.7153
vn 0.6577 -0.7001 0.2781
vn 0.7470 -0.5516 0.3712
vn 0.6862 -0.7245 0.0652
vn 0.8569 -0.5122 0.0583
vn 0.6757 -0.7144 -0.1819
vn 0.7788 -0.5505 -0.3007
vn 0.7153 -0.5194 -0.4676
vn -0.3747 0.8481 0.3747
vn -0.4894 0.8703 0.0554
vn -0.3045 0.9025 0.3045
vn -0.3587 0.9316 0.0587
vn -0.3934 0.8621 -0.3193
vn -0.3331 0.9137 -0.2325
vn -0.3762 0.7762 -0.5059
vn -0.4943 0.6147 -0.6147
vn -0.3747 -0.3747 -0.8481
vn -0.4894 -0.0554 -0.8703
vn -0.3934 0.3193 -0.8621
vn -0.3762 0.5059 -0.7762
vn -0.2953 0.6756 -0.6756
vn -0.3045 -0.3045 -0.9025
vn -0.3587 -0.0587 -0.9316
vn -0.3331 0.2325 -0.9138
vn -0.0554 0.8703 0.4894
vn -0.0588 0.9316 0.3587
vn -0.0554 0.9969 0.0554
vn -0.0523 0.9465 -0.3183
vn -0.0480 0.8820 -0.4688
vn -0.0475 0.8756 -0.4807
vn -0.0554 -0.4894 -0.8703
vn -0.0475 0.4807 -0.8756
vn -0.0480 0.4688 -0.8820
vn -0.0503 0.7062 -0.7062
vn -0.0587 -0.3587 -0.9316
vn -0.0554 -0.0554 -0.9969
vn -0.0523 0.3183 -0.9465
vn 0.3193 0.8621 0.3934
vn 0.2325 0.9138 0.3331
vn 0.3183 0.9465 0.0523
vn 0.4688 0.8820 0.0480
vn 0.2712 0.9235 -0.2712
vn 0.3435 0.8741 -0.3435
vn 0.3134 0.8022 -0.5081
vn 0.3193 -0.3934 -0.8621
vn 0.3134 0.5081 -0.8022
vn 0.3435 0.3435 -0.8741
vn 0.2176 0.6902 -0.6902
vn 0.4620 0.6271 -0.6271
vn 0.2325 -0.3331 -0.9138
vn 0.3183 -0.0523 -0.9465
vn 0.4688 -0.0480 -0.8820
vn 0.2712 0.2712 -0.9235
vn 0.5059 0.7762 0.3762
vn 0.6147 0.6147 0.4943
vn 0.4807 0.8756 0.0475
vn 0.5081 0.8022 -0.3134
vn 0.4738 0.7423 -0.4738
vn 0.6271 0.6271 -0.4620
vn 0.5773 0.5774 -0.5774
vn 0.5059 -0.3762 -0.7762
vn 0.6147 -0.4943 -0.6147
vn 0.4807 -0.0475 -0.8756
vn 0.5081 0.3134 -0.8022
vn 0.4738 0.4738 -0.7423
vn 0.6271 0.4620 -0.6271
vn 0.8481 -0.3747 0.3747
vn 0.8703 -0.0554 0.4894
vn 0.8621 0.3193 0.3934
vn 0.7762 0.5059 0.3762
vn 0.6756 0.6756 0.2953
vn 0.8703 -0.4894 0.0554
vn 0.8756 0.4807 0.0475
vn 0.8820 0.4688 0.0480
vn 0.7062 0.7062 0.0503
vn 0.8621 -0.3934 -0.3193
vn 0.8022 0.5081 -0.3134
vn 0.8741 0.3435 -0.3435
vn 0.6902 0.6902 -0.2176
vn 0.7762 -0.3762 -0.5059
vn 0.8756 -0.0475 -0.4807
vn 0.8820 -0.0480 -0.4688
vn 0.8022 0.3134 -0.5081
vn 0.7423 0.4738 -0.4738
vn 0.6756 -0.2953 -0.6756
vn 0.7062 -0.0503 -0.7062
vn 0.6902 0.2176 -0.6902
vn 0.9025 -0.3045 0.3045
vn 0.9316 -0.0587 0.3587
vn 0.9138 0.2326 0.3331
vn 0.9316 -0.3587 0.0587
vn 0.9969 -0.0554 0.0554
vn 0.9465 0.3183 0.0523
vn 0.9137 -0.3331 -0.2325
vn 0.9465 -0.0523 -0.3183
vn 0.9235 0.2712 -0.2712
s 1
f 10//1 6//2 7//3 11//4
f 3//5 2//6 10//1 11//4
f 11//4 7//3 8//7 12//8
f 4//9 3//5 11//4 12//8
f 12//8 8//7 9//10 13//11
f 5//12 4//9 12//8 13//11
f 21//13 19//14 20//15 22//16
f 22//16 20//15 15//17 16//18
f 23//19 21//13 22//16 24//20
f 24//20 22//16 16//18 17//21
f 25//22 23//19 24//20 26//23
f 26//23 24//20 17//21 18//24
f 31//25 28//26 29//27 32//28
f 33//29 30//30 31//25 34//31
f 34//31 31//25 32//28 35//32
f 36//33 2//6 3//5 37//34
f 37//34 3//5 4//9 38//35
f 29//27 28//26 37//34 38//35
f 38//35 4//9 5//12 39//36
f 16//18 15//17 36//33 41//37
f 41//37 36//33 37//34 42//38
f 31//25 30//30 41//37 42//38
f 42//38 37//34 28//26 31//25
f 32//28 29//27 38//35 43//39
f 43//39 38//35 39//36 44//40
f 44//40 39//36 40//41 45//42
f 17//21 16//18 41//37 46//43
f 46//43 41//37 30//30 33//29
f 47//44 46//43 33//29 34//31
f 48//45 47//44 34//31 35//32
f 35//32 32//28 43//39 48//45
f 48//45 43//39 44//40 49//46
f 49//46 44//40 45//42 50//47
f 18//24 17//21 46//43 51//48
f 51//48 46//43 47//44 52//49
f 52//49 47//44 48//45 53//50
f 53//50 48//45 49//46 54//51
f 55//52 51//48 52//49 56//53
f 56//53 52//49 53//50 57//54
f 20//15 1//55 10//1 58//56
f 36//33 15//17 20//15 58//56
f 58//56 10//1 2//6 36//33
f 39//36 5//12 13//11 59//57
f 59//57 13//11 14//58 60//59
f 40//41 39//36 59//57 60//59
f 45//42 40//41 60//59 61//60
f 63//61 62//62 49//46 50//47
f 50//47 45//42 61//60 63//61
f 64//63 26//23 18//24 51//48
f 66//64 65//65 53//50 54//51
f 54//51 49//46 62//62 66//64
f 66//64 62//62 63//61 67//66
f 27//67 26//23 64//63 68//68
f 68//68 64//63 51//48 55//52
f 69//69 68//68 55//52 56//53
f 70//70 69//69 56//53 57//54
f 57//54 53//50 65//65 70//70
f 70//70 65//65 66//64 71//71
f 74//72 73//73 76//74 77//75
f 77//75 75//76 72//77 74//72
f 77//75 76//74 79//78 80//79
f 80//79 78//80 75//76 77//75
f 80//79 79//78 82//81 83//82
f 83//82 81//83 78//80 80//79
f 7//3 6//2 87//84 88//85
f 88//85 85//86 86//87 89//88
f 8//7 7//3 88//85 89//88
f 9//10 8//7 89//88 90//89
f 74//72 72//77 87//84 92//90
f 10//1 1//55 74//72 92//90
f 92//90 87//84 6//2 10//1
f 13//11 9//10 90//89 93//91
f 93//91 90//89 91//92 94//93
f 14//58 13//11 93//91 94//93
f 86//87 85//86 96//94 97//95
f 87//84 72//77 75//76 98//96
f 98//96 95//97 96//94 99//98
f 88//85 87//84 98//96 99//98
f 99//98 96//94 85//86 88//85
f 89//88 86//87 97//95 100//99
f 90//89 89//88 100//99 101//100
f 91//92 90//89 101//100 102//101
f 94//93 91//92 102//101 103//102
f 96//94 95//97 104//103 105//104
f 97//95 96//94 105//104 106//105
f 98//96 75//76 78//80 107//106
f 107//106 104//103 95//97 98//96
f 108//107 105//104 104//103 107//106
f 109//108 106//105 105//104 108//107
f 100//99 97//95 106//105 109//108
f 101//100 100//99 109//108 110//109
f 102//101 101//100 110//109 111//110
f 113//111 111//110 110//109 112//112
f 103//102 102//101 111//110 113//111
f 107//106 78//80 81//83 114//113
f 108//107 107//106 114//113 115//114
f 109//108 108//107 115//114 116//115
f 110//109 109//108 116//115 117//116
f 118//117 114//113 81//83 83//82
f 120//118 117//116 116//115 119//119
f 112//112 110//109 117//116 120//118
f 113//111 112//112 120//118 121//120
f 115//114 114//113 122//121 123//122
f 116//115 115//114 123//122 124//123
f 118//117 83//82 84//124 125//125
f 125//125 122//121 114//113 118//117
f 126//126 123//122 122//121 125//125
f 127//127 124//123 123//122 126//126
f 119//119 116//115 124//123 127//127
f 120//118 119//119 127//127 128//128
f 129//129 73//73 74//72 130//130
f 20//15 19//14 129//129 130//130
f 130//130 74//72 1//55 20//15
f 132//131 129//129 19//14 21//13
f 133//132 131//133 132//131 134//134
f 134//134 132//131 21//13 23//19
f 135//135 134//134 23//19 25//22
f 136//136 135//135 25//22 26//23
f 137//137 135//135 136//136 138//138
f 138//138 136//136 26//23 27//67
f 140//139 76//74 73//73 129//129
f 141//140 139//141 140//139 142//142
f 132//131 131//133 141//140 142//142
f 142//142 140//139 129//129 132//131
f 143//143 141//140 131//133 133//132
f 144//144 143//143 133//132 134//134
f 145//145 144//144 134//134 135//135
f 146//146 145//145 135//135 137//137
f 147//147 146//146 137//137 138//138
f 140//139 139//141 148//148 149//149
f 149//149 79//78 76//74 140//139
f 150//150 148//148 139//141 141//140
f 151//151 149//149 148//148 150//150
f 152//152 150//150 141//140 143//143
f 153//153 151//151 150//150 152//152
f 153//153 152//152 143//143 144//144
f 154//154 153//153 144//144 145//145
f 156//155 154//154 145//145 146//146
f 157//156 155//157 154//154 156//155
f 157//156 156//155 146//146 147//147
f 158//158 82//81 79//78 149//149
f 159//159 83//82 82//81 158//158
f 160//160 158//158 149//149 151//151
f 161//161 160//160 151//151 153//153
f 163//162 161//161 153//153 154//154
f 164//163 162//164 161//161 163//162
f 164//163 163//162 154//154 155//157
f 165//165 164//163 155//157 157//156
f 159//159 158//158 166//166 167//167
f 167//167 84//124 83//82 159//159
f 168//168 166//166 158//158 160//160
f 169//169 167//167 166//166 168//168
f 170//170 168//168 160//160 161//161
f 171//171 169//169 168//168 170//170
f 171//171 170//170 161//161 162//164
f 172//172 171//171 162//164 164//163
f 60//59 14//58 94//93 173//173
f 61//60 60//59 173//173 175//174
f 175//174 173//173 174//175 176//176
f 63//61 61//60 175//174 177//177
f 177//177 175//174 176//176 178//178
f 180//179 179//180 66//64 67//66
f 67//66 63//61 177//177 180//179
f 181//181 138//138 27//67 68//68
f 182//182 181//181 68//68 69//69
f 183//183 182//182 69//69 70//70
f 184//184 183//183 70//70 71//71
f 71//71 66//64 179//180 184//184
f 184//184 179//180 180//179 185//185
f 186//186 181//181 182//182 187//187
f 187//187 182//182 183//183 188//188
f 173//173 94//93 103//102 189//189
f 174//175 173//173 189//189 190//190
f 176//176 174//175 190//190 191//191
f 193//192 192//193 177//177 178//178
f 178//178 176//176 191//191 193//192
f 180//179 177//177 192//193 194//194
f 195//195 147//147 138//138 181//181
f 197//196 196//197 183//183 184//184
f 198//198 197//196 184//184 185//185
f 185//185 180//179 194//194 198//198
f 199//199 195//195 181//181 186//186
f 200//200 199//199 186//186 187//187
f 201//201 200//200 187//187 188//188
f 188//188 183//183 196//197 201//201
f 189//189 103//102 113//111 202//202
f 190//190 189//189 202//202 203//203
f 205//204 203//203 202//202 204//205
f 191//191 190//190 203//203 205//204
f 207//206 205//204 204//205 206//207
f 207//206 206//207 192//193 193//192
f 193//192 191//191 205//204 207//206
f 194//194 192//193 206//207 209//208
f 210//209 157//156 147//147 195//195
f 213//210 212//211 196//197 197//196
f 214//212 209//208 208//213 213//210
f 214//212 213//210 197//196 198//198
f 198//198 194//194 209//208 214//212
f 215//214 210//209 195//195 199//199
f 216//215 211//216 210//209 215//214
f 216//215 215//214 199//199 200//200
f 217//217 212//211 211//216 216//215
f 217//217 216//215 200//200 201//201
f 201//201 196//197 212//211 217//217
f 219//218 121//120 120//118 218//219
f 202//202 113//111 121//120 219//218
f 204//205 202//202 219//218 220//220
f 206//207 204//205 220//220 222//221
f 226//222 222//221 221//223 225//224
f 226//222 225//224 208//213 209//208
f 209//208 206//207 222//221 226//222
f 227//225 223//226 164//163 165//165
f 227//225 165//165 157//156 210//209
f 228//227 227//225 210//209 211//216
f 229//228 228//227 211//216 212//211
f 230//229 225//224 224//230 229//228
f 230//229 229//228 212//211 213//210
f 213//210 208//213 225//224 230//229
f 231//231 125//125 84//124 167//167
f 232//232 126//126 125//125 231//231
f 233//233 127//127 126//126 232//232
f 234//234 128//128 127//127 233//233
f 218//219 120//118 128//128 234//234
f 219//218 218//219 234//234 235//235
f 236//236 231//231 167//167 169//169
f 238//237 234//234 233//233 237//238
f 239//239 235//235 234//234 238//237
f 220//220 219//218 235//235 239//239
f 240//240 236//236 169//169 171//171
f 243//241 238//237 237//238 242//242
f 244//243 239//239 238//237 243//241
f 244//243 243//241 221//223 222//221
f 222//221 220//220 239//239 244//243
f 245//244 240//240 171//171 172//172
f 245//244 172//172 164//163 223//226
f 246//245 241//246 240//240 245//244
f 247//247 242//242 241//246 246//245
f 248//248 243//241 242//242 247//247
f 248//248 247//247 224//230 225//224
f 225//224 221//223 243//241 248//248
f 249//249 245//244 223//226 227//225
f 250//250 246//245 245//244 249//249
f 250//250 249//249 227//225 228//227
f 251//251 247//247 246//245 250//250
f 251//251 250//250 228//227 229//228
f 229//228 224//230 247//247 251//251
f 232//232 231//231 252//252 253//253
f 233//233 232//232 253//253 254//254
f 255//255 252//252 231//231 236//236
f 256//256 253//253 252//252 255//255
f 257//257 254//254 253//253 256//256
f 237//238 233//233 254//254 257//257
f 258//258 255//255 236//236 240//240
f 259//259 256//256 255//255 258//258
f 259//259 258//258 240//240 241//246
f 260//260 257//257 256//256 259//259
f 260//260 259//259 241//246 242//242
f 242//242 237//238 257//257 260//260
