# Blender 3.5.1
# www.blender.org
mtllib animation3007.mtl
o Cube
v -5.312810 39.791924 10.589424
v -5.380635 40.218750 10.684150
v -5.344610 40.702869 10.634299
v -5.380635 39.697197 10.162598
v -5.582151 40.218750 10.162598
v -5.397510 40.874847 10.161367
v -5.243920 41.153996 9.957422
v -5.344610 39.747047 9.678479
v -5.397510 40.219982 9.506501
v -5.337096 40.784027 9.597320
v -5.243920 41.153996 9.829843
v -5.243920 40.423927 9.227354
v -5.243920 40.551506 9.227354
v -4.737625 39.791924 11.164609
v -4.832351 40.218750 11.232434
v -4.782500 40.702869 11.196409
v -4.310799 39.697197 11.232434
v -4.310799 40.218750 11.433949
v -4.309568 40.874847 11.249309
v -4.105623 41.153992 11.095719
v -3.826680 39.747047 11.196409
v -3.654702 40.219982 11.249309
v -3.745521 40.784027 11.188894
v -3.978044 41.153992 11.095719
v -3.375555 40.423927 11.095719
v -3.375555 40.551506 11.095719
v -4.737625 39.216740 10.589424
v -4.832351 39.148914 10.162598
v -4.782500 39.184937 9.678479
v -4.310799 39.148914 10.684150
v -4.310799 38.947399 10.162598
v -4.309568 39.132038 9.506501
v -4.105623 39.285629 9.227354
v -3.826680 39.184937 10.634299
v -3.654702 39.132038 10.161367
v -3.745521 39.192451 9.597320
v -3.978044 39.285629 9.227354
v -3.375555 39.285629 9.957422
v -3.375555 39.285629 9.829843
v -4.940750 39.588799 10.792549
v -5.137039 40.218750 10.988837
v -4.993004 40.905994 10.844804
v -4.797258 41.278053 10.649057
v -5.137039 39.392509 10.162598
v -5.203508 41.109119 10.363672
v -4.968299 41.338890 10.161367
v -4.993004 39.536545 9.475354
v -5.203508 40.017677 9.272229
v -5.066292 40.957756 9.423593
v -4.885970 41.273308 9.597320
v -4.797258 39.732288 9.103293
v -4.968299 40.219982 9.042457
v -4.885970 40.784027 9.108038
v -4.660042 41.168751 9.212596
v -4.310799 39.392509 10.988837
v -4.511873 41.109119 11.055307
v -4.309568 41.338890 10.820099
v -4.263747 41.676155 10.115545
v -4.029253 41.745441 9.881053
v -4.511873 39.326038 9.272229
v -4.263747 41.550163 9.610244
v -4.029253 41.745441 9.851383
v -4.309568 39.561249 9.042457
v -4.263747 40.265800 8.705191
v -4.263747 40.771103 8.831186
v -4.310799 41.217030 9.164317
v -4.029253 40.500294 8.635907
v -4.029253 40.529964 8.635907
v -3.623555 39.536545 10.844804
v -3.420430 40.017677 11.055307
v -3.571794 40.957756 10.918091
v -3.745521 41.273308 10.737769
v -3.420430 39.326038 10.363672
v -3.758445 41.550163 10.115545
v -3.999584 41.745441 9.881053
v -3.571794 39.463257 9.423593
v -3.498013 41.031536 9.349813
v -3.748798 41.412289 9.600597
v -3.999584 41.745441 9.851383
v -3.745521 39.643578 9.108038
v -3.758445 40.265800 8.831186
v -3.748798 40.780750 8.969059
v -3.904263 41.209164 9.172184
v -3.999584 40.500294 8.635907
v -3.999584 40.529964 8.635907
v -3.251495 39.732288 10.649057
v -3.190658 40.219982 10.820099
v -3.256239 40.784027 10.737769
v -3.360797 41.168751 10.511841
v -3.190658 39.561249 10.161367
v -2.853392 40.265800 10.115545
v -2.979387 40.771103 10.115545
v -3.312518 41.217030 10.162598
v -3.256239 39.643578 9.597320
v -2.979387 40.265800 9.610244
v -3.117260 40.780750 9.600597
v -3.320385 41.209164 9.756063
v -3.360797 39.869507 9.212596
v -3.312518 40.218750 9.164317
v -3.320385 40.625286 9.172184
v -2.784108 40.500294 9.881053
v -2.784108 40.529964 9.881053
v -2.784108 40.500294 9.851383
v -2.784108 40.529964 9.851383
vn -0.8485 -0.5260 0.0584
vn -0.7709 -0.4504 0.4504
vn -0.8485 -0.0584 0.5260
vn -0.9984 -0.0404 0.0404
vn -0.8151 0.3237 0.4805
vn -0.9096 0.4036 0.0984
vn -0.8151 -0.4805 -0.3237
vn -0.9096 -0.0984 -0.4036
vn -0.8464 0.3766 -0.3766
vn -0.7357 0.6756 -0.0477
vn -0.7092 0.6524 -0.2674
vn -0.7357 0.0477 -0.6756
vn -0.7092 0.2674 -0.6524
vn -0.5260 -0.0584 0.8485
vn -0.4504 -0.4504 0.7709
vn -0.0584 -0.5260 0.8485
vn -0.0404 -0.0404 0.9984
vn -0.4805 0.3237 0.8151
vn -0.0984 0.4036 0.9096
vn 0.3237 -0.4805 0.8151
vn 0.4036 -0.0984 0.9096
vn 0.3766 0.3766 0.8464
vn 0.0477 0.6756 0.7357
vn 0.2674 0.6524 0.7092
vn 0.6756 0.0477 0.7357
vn 0.6524 0.2674 0.7092
vn -0.0404 -0.9984 0.0404
vn -0.0584 -0.8485 0.5260
vn -0.4504 -0.7709 0.4504
vn -0.5260 -0.8485 0.0584
vn -0.0984 -0.9096 -0.4036
vn -0.4805 -0.8151 -0.3237
vn 0.4036 -0.9096 0.0984
vn 0.3237 -0.8151 0.4805
vn 0.3766 -0.8464 -0.3766
vn 0.2674 -0.7092 -0.6524
vn 0.0477 -0.7357 -0.6756
vn 0.6524 -0.7092 -0.2674
vn 0.6756 -0.7357 -0.0477
vn -0.5773 -0.5774 0.5774
vn -0.7056 -0.0655 0.7056
vn -0.6123 0.5003 0.6123
vn -0.7056 -0.7056 0.0655
vn -0.6921 0.6412 0.3314
vn -0.4458 0.7763 0.4458
vn -0.5118 0.8509 0.1182
vn -0.6123 -0.6123 -0.5003
vn -0.6921 -0.3314 -0.6412
vn -0.4857 0.7768 -0.4007
vn -0.6087 0.5610 -0.5610
vn -0.4458 -0.4458 -0.7763
vn -0.5118 -0.1182 -0.8509
vn -0.4857 0.4007 -0.7768
vn -0.3884 0.6516 -0.6516
vn -0.0655 -0.7056 0.7056
vn -0.3314 0.6412 0.6921
vn -0.1182 0.8509 0.5118
vn -0.1822 0.9662 0.1822
vn -0.3314 -0.6921 -0.6412
vn -0.1792 0.8720 -0.4556
vn -0.1151 0.9867 0.1151
vn -0.1329 0.9167 -0.3769
vn -0.1182 -0.5118 -0.8509
vn -0.1822 -0.1822 -0.9662
vn -0.1792 0.4556 -0.8720
vn -0.0950 0.7039 -0.7039
vn -0.1151 -0.1151 -0.9867
vn -0.1329 0.3769 -0.9167
vn 0.5003 -0.6123 0.6123
vn 0.6412 -0.3314 0.6921
vn 0.4007 0.7768 0.4857
vn 0.5610 0.5610 0.6087
vn 0.6412 -0.6921 0.3314
vn 0.4556 0.8720 0.1792
vn 0.3769 0.9167 0.1329
vn 0.3608 0.8601 -0.3607
vn 0.4571 0.7629 -0.4571
vn 0.4007 -0.4857 -0.7768
vn 0.5610 -0.6087 -0.5610
vn 0.4556 -0.1792 -0.8720
vn 0.2860 0.6776 -0.6776
vn 0.5774 0.5773 -0.5773
vn 0.4571 0.4571 -0.7629
vn 0.3769 -0.1329 -0.9167
vn 0.3607 0.3607 -0.8601
vn 0.7763 -0.4458 0.4458
vn 0.8509 -0.1182 0.5118
vn 0.7768 0.4007 0.4857
vn 0.6516 0.6516 0.3884
vn 0.8509 -0.5118 0.1182
vn 0.9662 -0.1822 0.1822
vn 0.8720 0.4556 0.1792
vn 0.7039 0.7039 0.0950
vn 0.7768 -0.4857 -0.4007
vn 0.8720 -0.1792 -0.4556
vn 0.6776 0.6776 -0.2860
vn 0.7629 0.4571 -0.4571
vn 0.6516 -0.3884 -0.6516
vn 0.7039 -0.0950 -0.7039
vn 0.6776 0.2860 -0.6776
vn 0.9867 -0.1151 0.1151
vn 0.9167 0.3769 0.1329
vn 0.9167 -0.1329 -0.3769
vn 0.8601 0.3608 -0.3608
s 1
f 4//1 1//2 2//3 5//4
f 5//4 2//3 3//5 6//6
f 8//7 4//1 5//4 9//8
f 9//8 5//4 6//6 10//9
f 10//9 6//6 7//10 11//11
f 12//12 9//8 10//9 13//13
f 15//14 14//15 17//16 18//17
f 16//18 15//14 18//17 19//19
f 18//17 17//16 21//20 22//21
f 19//19 18//17 22//21 23//22
f 20//23 19//19 23//22 24//24
f 23//22 22//21 25//25 26//26
f 31//27 30//28 27//29 28//30
f 32//31 31//27 28//30 29//32
f 35//33 34//34 30//28 31//27
f 36//35 35//33 31//27 32//31
f 37//36 36//35 32//31 33//37
f 39//38 38//39 35//33 36//35
f 40//40 14//15 15//14 41//41
f 2//3 1//2 40//40 41//41
f 41//41 15//14 16//18 42//42
f 3//5 2//3 41//41 42//42
f 28//30 27//29 40//40 44//43
f 44//43 40//40 1//2 4//1
f 6//6 3//5 42//42 45//44
f 45//44 42//42 43//45 46//46
f 7//10 6//6 45//44 46//46
f 29//32 28//30 44//43 47//47
f 47//47 44//43 4//1 8//7
f 48//48 47//47 8//7 9//8
f 50//49 49//50 10//9 11//11
f 11//11 7//10 46//46 50//49
f 51//51 47//47 48//48 52//52
f 52//52 48//48 9//8 12//12
f 53//53 52//52 12//12 13//13
f 13//13 10//9 49//50 53//53
f 53//53 49//50 50//49 54//54
f 40//40 27//29 30//28 55//55
f 55//55 17//16 14//15 40//40
f 42//42 16//18 19//19 56//56
f 56//56 19//19 20//23 57//57
f 43//45 42//42 56//56 57//57
f 46//46 43//45 57//57 58//58
f 60//59 32//31 29//32 47//47
f 50//49 46//46 58//58 61//60
f 61//60 58//58 59//61 62//62
f 33//37 32//31 60//59 63//63
f 63//63 60//59 47//47 51//51
f 64//64 63//63 51//51 52//52
f 65//65 64//64 52//52 53//53
f 66//66 65//65 53//53 54//54
f 54//54 50//49 61//60 66//66
f 67//67 64//64 65//65 68//68
f 55//55 30//28 34//34 69//69
f 69//69 21//20 17//16 55//55
f 70//70 22//21 21//20 69//69
f 72//71 24//24 23//22 71//72
f 57//57 20//23 24//24 72//71
f 73//73 69//69 34//34 35//33
f 58//58 57//57 72//71 74//74
f 59//61 58//58 74//74 75//75
f 79//76 75//75 74//74 78//77
f 79//76 78//77 61//60 62//62
f 62//62 59//61 75//75 79//76
f 80//78 76//79 36//35 37//36
f 80//78 37//36 33//37 63//63
f 81//80 80//78 63//63 64//64
f 83//81 78//77 77//82 82//83
f 83//81 82//83 65//65 66//66
f 66//66 61//60 78//77 83//81
f 84//84 81//80 64//64 67//67
f 85//85 82//83 81//80 84//84
f 85//85 84//84 67//67 68//68
f 68//68 65//65 82//83 85//85
f 70//70 69//69 86//86 87//87
f 87//87 25//25 22//21 70//70
f 88//88 26//26 25//25 87//87
f 71//72 23//22 26//26 88//88
f 72//71 71//72 88//88 89//89
f 73//73 35//33 38//39 90//90
f 90//90 86//86 69//69 73//73
f 91//91 87//87 86//86 90//90
f 92//92 88//88 87//87 91//91
f 93//93 89//89 88//88 92//92
f 74//74 72//71 89//89 93//93
f 94//94 90//90 38//39 39//38
f 94//94 39//38 36//35 76//79
f 95//95 91//91 90//90 94//94
f 97//96 93//93 92//92 96//97
f 97//96 96//97 77//82 78//77
f 78//77 74//74 93//93 97//96
f 98//98 94//94 76//79 80//78
f 99//99 95//95 94//94 98//98
f 99//99 98//98 80//78 81//80
f 100//100 96//97 95//95 99//99
f 100//100 99//99 81//80 82//83
f 82//83 77//82 96//97 100//100
f 92//92 91//91 101//101 102//102
f 103//103 101//101 91//91 95//95
f 104//104 102//102 101//101 103//103
f 104//104 103//103 95//95 96//97
f 96//97 92//92 102//102 104//104
