# Blender 3.5.1
# www.blender.org
mtllib animation3008.mtl
o Cube
v -5.255971 39.871815 11.107770
v -5.299365 40.218750 11.151163
v -5.293089 40.622974 11.144888
v -5.255971 39.273579 10.509531
v -5.299365 39.230183 10.162598
v -5.293089 39.236462 9.758372
v -5.853371 40.390282 9.991064
v -5.853371 40.560993 9.991064
v -5.853371 40.390282 9.820354
v -5.853371 40.560993 9.820354
v -5.363393 39.644966 10.736382
v -5.571784 40.218750 10.771973
v -5.430334 40.826912 10.776458
v -5.304528 41.221214 10.576323
v -5.571784 39.609375 10.162598
v -5.803283 40.199795 10.181553
v -5.700914 40.789722 10.181553
v -5.369320 41.293255 10.162598
v -5.430334 39.604889 9.554438
v -5.700914 40.199795 9.591626
v -5.540932 40.828506 9.552842
v -5.337807 41.258331 9.691581
v -5.304528 39.805027 9.160133
v -5.369320 40.218750 9.088094
v -5.337807 40.689766 9.123015
v -4.657732 39.273579 11.107770
v -4.310799 39.230183 11.151163
v -3.906573 39.236462 11.144888
v -4.884584 39.644966 11.215192
v -4.920174 40.218750 11.423583
v -4.924658 40.826912 11.282133
v -4.724523 41.221214 11.156327
v -4.139265 40.390282 11.705171
v -4.139265 40.560993 11.705171
v -4.310799 39.609375 11.423583
v -4.329753 40.199795 11.655082
v -4.329753 40.789722 11.552713
v -4.310799 41.293255 11.221120
v -3.968554 40.390282 11.705171
v -3.968554 40.560993 11.705171
v -3.702638 39.604889 11.282133
v -3.739827 40.199795 11.552713
v -3.701044 40.828506 11.392731
v -3.839782 41.258331 11.189606
v -3.308334 39.805027 11.156327
v -3.236295 40.218750 11.221120
v -3.271216 40.689766 11.189606
v -4.884584 39.166157 10.736382
v -4.920174 38.957764 10.162598
v -4.924658 39.099216 9.554438
v -4.724523 39.225021 9.160133
v -4.310799 38.957764 10.771973
v -4.139265 38.676178 9.991064
v -4.329753 38.726265 10.181553
v -4.139265 38.676178 9.820354
v -4.329753 38.828632 9.591626
v -4.310799 39.160229 9.088094
v -3.702638 39.099216 10.776458
v -3.968554 38.676178 9.991064
v -3.739827 38.828632 10.181553
v -3.968554 38.676178 9.820354
v -3.701043 38.988617 9.552842
v -3.839782 39.191742 9.123015
v -3.308334 39.225021 10.576323
v -3.236295 39.160229 10.162598
v -3.271216 39.191742 9.691581
v -5.063982 39.465565 10.915781
v -5.130773 41.029224 10.982573
v -4.895123 41.424339 10.746922
v -4.659473 41.766041 10.511271
v -5.024288 41.597942 10.162598
v -4.719600 41.798306 10.162598
v -5.130773 39.398777 9.352122
v -5.191531 41.096016 9.285331
v -4.950924 41.467178 9.520982
v -4.710319 41.793159 9.756632
v -4.895123 39.634426 8.957008
v -5.024288 40.218750 8.783406
v -4.950924 40.860367 8.914171
v -4.785281 41.269772 9.111576
v -4.659473 39.870075 8.615306
v -4.719600 40.218750 8.583040
v -4.710319 40.624718 8.588188
v -4.310799 41.597942 10.876087
v -4.310799 41.798306 10.571400
v -4.310799 41.893398 10.162598
v -4.310799 41.667896 9.363171
v -4.310799 41.837280 9.667858
v -4.310799 39.505260 8.783406
v -4.310799 41.018177 8.713450
v -4.310799 41.363209 9.018138
v -4.310799 39.809948 8.583040
v -4.310799 40.218750 8.487948
v -4.310799 40.713490 8.544068
v -3.500323 39.398777 10.982573
v -3.433532 41.096016 11.043330
v -3.669182 41.467178 10.802724
v -3.904832 41.793159 10.562118
v -3.511371 41.667896 10.162598
v -3.816059 41.837280 10.162598
v -3.433532 39.338017 9.285331
v -3.671087 41.595226 9.522885
v -3.853987 41.818005 9.705786
v -3.669182 39.578625 8.914171
v -3.511371 40.218750 8.713450
v -3.671087 40.858463 8.786122
v -3.701424 41.278461 9.102885
v -3.904832 39.819229 8.588188
v -3.816059 40.218750 8.544068
v -3.853987 40.675560 8.563343
v -3.105209 39.634426 10.746922
v -2.931607 40.218750 10.876087
v -3.062372 40.860367 10.802724
v -3.259777 41.269772 10.637080
v -2.931607 39.505260 10.162598
v -2.861651 41.018177 10.162598
v -3.166339 41.363209 10.162598
v -3.062372 39.578625 9.520981
v -2.861651 40.218750 9.363171
v -2.934324 40.858463 9.522885
v -3.251086 41.278461 9.553223
v -3.259777 39.744267 9.111576
v -3.166339 40.218750 9.018138
v -3.251086 40.828125 9.102885
v -3.372774 41.156773 9.224573
v -2.763506 39.870075 10.511271
v -2.731241 40.218750 10.571400
v -2.736389 40.624718 10.562118
v -2.731241 39.809948 10.162598
v -2.636150 40.218750 10.162598
v -2.692270 40.713490 10.162598
v -2.736389 39.819229 9.756632
v -2.692270 40.218750 9.667858
v -2.711544 40.675560 9.705786
vn -0.9388 -0.1462 -0.3119
vn -0.9813 -0.1363 0.1363
vn -0.9388 0.3119 0.1462
vn -0.8929 0.3184 -0.3184
vn -0.7608 -0.4589 0.4589
vn -0.6598 -0.3597 0.6598
vn -0.7052 -0.0733 0.7052
vn -0.8951 -0.0752 0.4395
vn -0.6847 0.2498 0.6847
vn -0.7966 0.3797 0.4704
vn -0.7052 -0.7052 0.0733
vn -0.6598 -0.6598 0.3597
vn -0.8951 -0.4395 0.0752
vn -0.9628 -0.1910 0.1910
vn -0.8894 0.4233 0.1723
vn -0.6881 0.6173 0.3814
vn -0.7423 0.6667 0.0671
vn -0.6847 -0.6847 -0.2498
vn -0.7966 -0.4704 -0.3797
vn -0.8894 -0.1723 -0.4233
vn -0.8021 0.4222 -0.4222
vn -0.7142 0.6410 -0.2811
vn -0.6881 -0.3814 -0.6173
vn -0.7423 -0.0671 -0.6667
vn -0.7142 0.2811 -0.6410
vn -0.4589 -0.4589 0.7608
vn -0.4395 -0.0752 0.8951
vn -0.4704 0.3797 0.7966
vn -0.3597 -0.6598 0.6598
vn -0.0733 -0.7052 0.7052
vn -0.0752 -0.4395 0.8951
vn -0.1910 -0.1910 0.9628
vn -0.1363 -0.1363 0.9812
vn -0.1462 0.3119 0.9388
vn -0.1723 0.4233 0.8894
vn -0.3814 0.6173 0.6881
vn -0.0671 0.6667 0.7423
vn 0.3119 -0.1462 0.9388
vn 0.3184 0.3184 0.8929
vn 0.2498 -0.6847 0.6847
vn 0.3797 -0.4704 0.7966
vn 0.4233 -0.1723 0.8894
vn 0.4222 0.4222 0.8021
vn 0.2811 0.6410 0.7142
vn 0.6173 -0.3814 0.6881
vn 0.6667 -0.0671 0.7423
vn 0.6410 0.2811 0.7142
vn -0.4395 -0.8951 0.0752
vn -0.4589 -0.7608 0.4589
vn -0.4704 -0.7966 -0.3797
vn -0.0752 -0.8951 0.4395
vn -0.1910 -0.9628 0.1910
vn -0.1462 -0.9388 -0.3119
vn -0.1363 -0.9812 0.1363
vn -0.1723 -0.8894 -0.4233
vn -0.0671 -0.7423 -0.6667
vn -0.3814 -0.6881 -0.6173
vn 0.3797 -0.7966 0.4704
vn 0.3119 -0.9388 0.1462
vn 0.4233 -0.8894 0.1723
vn 0.3184 -0.8929 -0.3184
vn 0.4222 -0.8021 -0.4222
vn 0.2811 -0.7142 -0.6410
vn 0.6667 -0.7423 0.0671
vn 0.6173 -0.6881 0.3814
vn 0.6410 -0.7142 -0.2811
vn -0.5774 -0.5774 0.5773
vn -0.5904 0.5504 0.5904
vn -0.4973 0.7109 0.4973
vn -0.6264 0.7766 0.0676
vn -0.3792 0.8440 0.3792
vn -0.4364 0.8973 0.0657
vn -0.5904 -0.5904 -0.5504
vn -0.5249 0.7331 -0.4325
vn -0.6156 0.5572 -0.5572
vn -0.4120 0.8668 -0.2807
vn -0.4973 -0.4973 -0.7109
vn -0.6264 -0.0676 -0.7766
vn -0.5249 0.4325 -0.7331
vn -0.3986 0.6485 -0.6485
vn -0.3792 -0.3792 -0.8440
vn -0.4364 -0.0657 -0.8973
vn -0.4120 0.2807 -0.8668
vn -0.0676 0.7766 0.6264
vn -0.0657 0.8973 0.4364
vn -0.0507 0.9974 0.0507
vn -0.0646 0.9299 -0.3621
vn -0.0634 0.7936 -0.6051
vn -0.0676 -0.6264 -0.7766
vn -0.0576 0.7059 -0.7059
vn -0.0634 0.6051 -0.7936
vn -0.0657 -0.4364 -0.8973
vn -0.0507 -0.0507 -0.9974
vn -0.0646 0.3621 -0.9299
vn 0.5503 -0.5904 0.5904
vn 0.4325 0.7331 0.5249
vn 0.5572 0.5572 0.6156
vn 0.2807 0.8668 0.4120
vn 0.3621 0.9299 0.0646
vn 0.6051 0.7936 0.0634
vn 0.3053 0.9020 -0.3053
vn 0.4379 0.7852 -0.4379
vn 0.4325 -0.5249 -0.7331
vn 0.5572 -0.6156 -0.5572
vn 0.3605 0.6596 -0.6596
vn 0.4379 0.4379 -0.7852
vn 0.2807 -0.4121 -0.8668
vn 0.3621 -0.0646 -0.9299
vn 0.6051 -0.0634 -0.7936
vn 0.3053 0.3053 -0.9020
vn 0.7109 -0.4973 0.4973
vn 0.7766 -0.0676 0.6264
vn 0.7331 0.4325 0.5249
vn 0.6485 0.6485 0.3986
vn 0.7766 -0.6264 0.0676
vn 0.7059 0.7059 0.0576
vn 0.7936 0.6051 0.0634
vn 0.7331 -0.5249 -0.4325
vn 0.6596 0.6596 -0.3605
vn 0.7852 0.4379 -0.4379
vn 0.6485 -0.3986 -0.6485
vn 0.7059 -0.0576 -0.7059
vn 0.7936 -0.0634 -0.6051
vn 0.6596 0.3605 -0.6596
vn 0.5774 0.5773 -0.5773
vn 0.8440 -0.3792 0.3792
vn 0.8973 -0.0657 0.4364
vn 0.8668 0.2807 0.4120
vn 0.8973 -0.4364 0.0657
vn 0.9974 -0.0507 0.0507
vn 0.9299 0.3621 0.0646
vn 0.8668 -0.4120 -0.2807
vn 0.9299 -0.0646 -0.3621
vn 0.9020 0.3053 -0.3053
s 1
f 9//1 7//2 8//3 10//4
f 11//5 1//6 2//7 12//8
f 12//8 2//7 3//9 13//10
f 5//11 4//12 11//5 15//13
f 15//13 11//5 12//8 16//14
f 16//14 12//8 13//10 17//15
f 8//3 7//2 16//14 17//15
f 17//15 13//10 14//16 18//17
f 6//18 5//11 15//13 19//19
f 19//19 15//13 16//14 20//20
f 20//20 16//14 7//2 9//1
f 21//21 20//20 9//1 10//4
f 10//4 8//3 17//15 21//21
f 21//21 17//15 18//17 22//22
f 23//23 19//19 20//20 24//24
f 24//24 20//20 21//21 25//25
f 2//7 1//6 29//26 30//27
f 3//9 2//7 30//27 31//28
f 29//26 26//29 27//30 35//31
f 30//27 29//26 35//31 36//32
f 36//32 33//33 34//34 37//35
f 31//28 30//27 36//32 37//35
f 32//36 31//28 37//35 38//37
f 34//34 33//33 39//38 40//39
f 35//31 27//30 28//40 41//41
f 36//32 35//31 41//41 42//42
f 42//42 39//38 33//33 36//32
f 43//43 40//39 39//38 42//42
f 37//35 34//34 40//39 43//43
f 38//37 37//35 43//43 44//44
f 42//42 41//41 45//45 46//46
f 43//43 42//42 46//46 47//47
f 49//48 48//49 4//12 5//11
f 50//50 49//48 5//11 6//18
f 52//51 27//30 26//29 48//49
f 54//52 52//51 48//49 49//48
f 55//53 53//54 54//52 56//55
f 56//55 54//52 49//48 50//50
f 57//56 56//55 50//50 51//57
f 58//58 28//40 27//30 52//51
f 54//52 53//54 59//59 60//60
f 60//60 58//58 52//51 54//52
f 61//61 59//59 53//54 55//53
f 62//62 60//60 59//59 61//61
f 62//62 61//61 55//53 56//55
f 63//63 62//62 56//55 57//56
f 65//64 64//65 58//58 60//60
f 66//66 65//64 60//60 62//62
f 48//49 26//29 29//26 67//67
f 11//5 4//12 48//49 67//67
f 67//67 29//26 1//6 11//5
f 13//10 3//9 31//28 68//68
f 68//68 31//28 32//36 69//69
f 14//16 13//10 68//68 69//69
f 18//17 14//16 69//69 71//70
f 71//70 69//69 70//71 72//72
f 73//73 50//50 6//18 19//19
f 75//74 74//75 21//21 22//22
f 22//22 18//17 71//70 75//74
f 75//74 71//70 72//72 76//76
f 51//57 50//50 73//73 77//77
f 77//77 73//73 19//19 23//23
f 78//78 77//77 23//23 24//24
f 79//79 78//78 24//24 25//25
f 25//25 21//21 74//75 79//79
f 79//79 74//75 75//74 80//80
f 81//81 77//77 78//78 82//82
f 82//82 78//78 79//79 83//83
f 69//69 32//36 38//37 84//84
f 70//71 69//69 84//84 85//85
f 72//72 70//71 85//85 86//86
f 88//87 87//88 75//74 76//76
f 76//76 72//72 86//86 88//87
f 89//89 57//56 51//57 77//77
f 91//90 90//91 79//79 80//80
f 80//80 75//74 87//88 91//90
f 92//92 89//89 77//77 81//81
f 93//93 92//92 81//81 82//82
f 94//94 93//93 82//82 83//83
f 83//83 79//79 90//91 94//94
f 95//95 41//41 28//40 58//58
f 97//96 44//44 43//43 96//97
f 84//84 38//37 44//44 97//96
f 85//85 84//84 97//96 98//98
f 100//99 98//98 97//96 99//100
f 86//86 85//85 98//98 100//99
f 103//101 100//99 99//100 102//102
f 103//101 102//102 87//88 88//87
f 88//87 86//86 100//99 103//101
f 104//103 101//104 62//62 63//63
f 104//103 63//63 57//56 89//89
f 107//105 106//106 90//91 91//90
f 91//90 87//88 102//102 107//105
f 108//107 104//103 89//89 92//92
f 109//108 105//109 104//103 108//107
f 109//108 108//107 92//92 93//93
f 110//110 106//106 105//109 109//108
f 110//110 109//108 93//93 94//94
f 94//94 90//91 106//106 110//110
f 95//95 58//58 64//65 111//111
f 111//111 45//45 41//41 95//95
f 112//112 46//46 45//45 111//111
f 113//113 47//47 46//46 112//112
f 96//97 43//43 47//47 113//113
f 97//96 96//97 113//113 114//114
f 115//115 111//111 64//65 65//64
f 117//116 114//114 113//113 116//117
f 99//100 97//96 114//114 117//116
f 118//118 115//115 65//64 66//66
f 118//118 66//66 62//62 101//104
f 121//119 117//116 116//117 120//120
f 102//102 99//100 117//116 121//119
f 122//121 118//118 101//104 104//103
f 123//122 119//123 118//118 122//121
f 123//122 122//121 104//103 105//109
f 124//124 120//120 119//123 123//122
f 124//124 123//122 105//109 106//106
f 125//125 121//119 120//120 124//124
f 125//125 124//124 106//106 107//105
f 107//105 102//102 121//119 125//125
f 112//112 111//111 126//126 127//127
f 113//113 112//112 127//127 128//128
f 129//129 126//126 111//111 115//115
f 130//130 127//127 126//126 129//129
f 131//131 128//128 127//127 130//130
f 116//117 113//113 128//128 131//131
f 132//132 129//129 115//115 118//118
f 133//133 130//130 129//129 132//132
f 133//133 132//132 118//118 119//123
f 134//134 131//131 130//130 133//133
f 134//134 133//133 119//123 120//120
f 120//120 116//117 131//131 134//134
