# Blender 3.5.1
# www.blender.org
o Cube310
v -357.869324 72.404022 -80.212219
v -357.127594 72.200806 -79.181496
v -356.881592 71.460503 -80.286896
v -357.337921 71.969086 -79.916222
v -356.096863 72.404022 -78.439758
v -356.022186 71.460503 -79.427475
v -356.392853 71.969086 -78.971153
v -356.336945 71.392776 -79.972137
v -356.688843 71.534142 -79.620224
v -357.840729 73.239388 -79.448601
v -357.840729 73.573189 -79.448601
v -357.924866 72.943634 -79.927330
v -357.908630 73.742516 -80.000000
v -356.860474 73.239388 -78.468353
v -356.860474 73.573189 -78.468353
v -357.327362 72.906052 -78.981712
v -357.257263 73.906525 -79.051819
v -356.987366 74.623856 -79.321709
v -357.794250 72.572723 -79.545547
v -357.658295 74.242516 -80.000000
v -357.158295 74.749954 -80.000000
v -356.381744 72.943634 -78.384201
v -356.309082 73.742516 -78.400436
v -356.763519 72.572723 -78.514824
v -356.309082 74.242516 -78.650787
v -356.309082 74.749954 -79.150787
v -356.309082 75.133110 -80.000000
v -357.840729 87.426811 -79.448601
v -357.840729 87.760612 -79.448601
v -357.908630 87.257484 -80.000000
v -357.924866 88.056366 -79.927330
v -356.860474 87.426811 -78.468353
v -356.860474 87.760612 -78.468353
v -356.987366 86.376144 -79.321709
v -357.257263 87.093475 -79.051819
v -357.327362 88.093948 -78.981712
v -357.158295 86.250046 -80.000000
v -357.658295 86.757484 -80.000000
v -357.794250 88.427277 -79.545547
v -356.309082 87.257484 -78.400436
v -356.381744 88.056366 -78.384201
v -356.309082 86.250046 -79.150787
v -356.309082 86.757484 -78.650787
v -356.763519 88.427277 -78.514824
v -356.309082 85.866890 -80.000000
v -357.869324 88.595978 -80.212219
v -357.127594 88.799194 -79.181496
v -357.337921 89.030914 -79.916222
v -356.881592 89.539497 -80.286896
v -356.096863 88.595978 -78.439758
v -356.392853 89.030914 -78.971153
v -356.022186 89.539497 -79.427475
v -356.688843 89.465858 -79.620224
v -356.336945 89.607224 -79.972137
v -357.869324 72.404022 -80.787781
v -356.881592 71.460503 -80.713104
v -357.337921 71.969086 -81.083778
v -357.127594 72.200806 -81.818504
v -356.336945 71.392776 -81.027863
v -356.688843 71.534142 -81.379776
v -356.022186 71.460503 -81.572525
v -356.392853 71.969086 -82.028847
v -356.096863 72.404022 -82.560242
v -357.924866 72.943634 -81.072670
v -357.908630 73.742516 -81.000000
v -357.840729 73.239388 -81.551399
v -357.840729 73.573189 -81.551399
v -357.794250 72.572723 -81.454453
v -357.658295 74.242516 -81.000000
v -357.158295 74.749954 -81.000000
v -357.327362 72.906052 -82.018288
v -357.257263 73.906525 -81.948181
v -356.987366 74.623856 -81.678291
v -356.860474 73.239388 -82.531647
v -356.860474 73.573189 -82.531647
v -356.309082 75.133110 -81.000000
v -356.763519 72.572723 -82.485176
v -356.309082 74.242516 -82.349213
v -356.309082 74.749954 -81.849213
v -356.381744 72.943634 -82.615799
v -356.309082 73.742516 -82.599564
v -357.908630 87.257484 -81.000000
v -357.924866 88.056366 -81.072670
v -357.840729 87.426811 -81.551399
v -357.840729 87.760612 -81.551399
v -357.158295 86.250046 -81.000000
v -357.658295 86.757484 -81.000000
v -357.794250 88.427277 -81.454453
v -356.987366 86.376144 -81.678291
v -357.257263 87.093475 -81.948181
v -357.327362 88.093948 -82.018288
v -356.860474 87.426811 -82.531647
v -356.860474 87.760612 -82.531647
v -356.309082 85.866890 -81.000000
v -356.309082 86.250046 -81.849213
v -356.309082 86.757484 -82.349213
v -356.763519 88.427277 -82.485176
v -356.309082 87.257484 -82.599564
v -356.381744 88.056366 -82.615799
v -357.869324 88.595978 -80.787781
v -357.337921 89.030914 -81.083778
v -356.881592 89.539497 -80.713104
v -357.127594 88.799194 -81.818504
v -356.688843 89.465858 -81.379776
v -356.336945 89.607224 -81.027863
v -356.392853 89.030914 -82.028847
v -356.022186 89.539497 -81.572525
v -356.096863 88.595978 -82.560242
v -355.521301 72.404022 -78.439758
v -355.595978 71.460503 -79.427475
v -355.225311 71.969086 -78.971153
v -355.281219 71.392776 -79.972137
v -354.929321 71.534142 -79.620224
v -354.490570 72.200806 -79.181496
v -354.736572 71.460503 -80.286896
v -354.280243 71.969086 -79.916222
v -353.748840 72.404022 -80.212219
v -355.236420 72.943634 -78.384201
v -355.309082 73.742516 -78.400436
v -354.854645 72.572723 -78.514824
v -355.309082 74.242516 -78.650787
v -355.309082 74.749954 -79.150787
v -355.309082 75.133110 -80.000000
v -354.757690 73.239388 -78.468353
v -354.757690 73.573189 -78.468353
v -354.290802 72.906052 -78.981712
v -354.360901 73.906525 -79.051819
v -354.630798 74.623856 -79.321709
v -353.823914 72.572723 -79.545547
v -353.959869 74.242516 -80.000000
v -354.459869 74.749954 -80.000000
v -353.777435 73.239388 -79.448601
v -353.777435 73.573189 -79.448601
v -353.693298 72.943634 -79.927330
v -353.709534 73.742516 -80.000000
v -355.309082 87.257484 -78.400436
v -355.236420 88.056366 -78.384201
v -355.309082 86.250046 -79.150787
v -355.309082 86.757484 -78.650787
v -354.854645 88.427277 -78.514824
v -355.309082 85.866890 -80.000000
v -354.757690 87.426811 -78.468353
v -354.757690 87.760612 -78.468353
v -354.630798 86.376144 -79.321709
v -354.360901 87.093475 -79.051819
v -354.290802 88.093948 -78.981712
v -354.459869 86.250046 -80.000000
v -353.959869 86.757484 -80.000000
v -353.823914 88.427277 -79.545547
v -353.777435 87.426811 -79.448601
v -353.777435 87.760612 -79.448601
v -353.709534 87.257484 -80.000000
v -353.693298 88.056366 -79.927330
v -355.521301 88.595978 -78.439758
v -355.225311 89.030914 -78.971153
v -355.595978 89.539497 -79.427475
v -354.929321 89.465858 -79.620224
v -355.281219 89.607224 -79.972137
v -354.490570 88.799194 -79.181496
v -354.280243 89.030914 -79.916222
v -354.736572 89.539497 -80.286896
v -353.748840 88.595978 -80.212219
v -355.281219 71.392776 -81.027863
v -354.929321 71.534142 -81.379776
v -355.595978 71.460503 -81.572525
v -355.225311 71.969086 -82.028847
v -355.521301 72.404022 -82.560242
v -354.736572 71.460503 -80.713104
v -354.280243 71.969086 -81.083778
v -354.490570 72.200806 -81.818504
v -353.748840 72.404022 -80.787781
v -355.309082 75.133110 -81.000000
v -354.854645 72.572723 -82.485176
v -355.309082 74.242516 -82.349213
v -355.309082 74.749954 -81.849213
v -355.236420 72.943634 -82.615799
v -355.309082 73.742516 -82.599564
v -353.823914 72.572723 -81.454453
v -353.959869 74.242516 -81.000000
v -354.459869 74.749954 -81.000000
v -354.290802 72.906052 -82.018288
v -354.360901 73.906525 -81.948181
v -354.630798 74.623856 -81.678291
v -354.757690 73.239388 -82.531647
v -354.757690 73.573189 -82.531647
v -353.693298 72.943634 -81.072670
v -353.709534 73.742516 -81.000000
v -353.777435 73.239388 -81.551399
v -353.777435 73.573189 -81.551399
v -355.309082 85.866890 -81.000000
v -355.309082 86.250046 -81.849213
v -355.309082 86.757484 -82.349213
v -354.854645 88.427277 -82.485176
v -355.309082 87.257484 -82.599564
v -355.236420 88.056366 -82.615799
v -354.459869 86.250046 -81.000000
v -353.959869 86.757484 -81.000000
v -353.823914 88.427277 -81.454453
v -354.630798 86.376144 -81.678291
v -354.360901 87.093475 -81.948181
v -354.290802 88.093948 -82.018288
v -354.757690 87.426811 -82.531647
v -354.757690 87.760612 -82.531647
v -353.709534 87.257484 -81.000000
v -353.693298 88.056366 -81.072670
v -353.777435 87.426811 -81.551399
v -353.777435 87.760612 -81.551399
v -354.929321 89.465858 -81.379776
v -355.281219 89.607224 -81.027863
v -355.225311 89.030914 -82.028847
v -355.595978 89.539497 -81.572525
v -355.521301 88.595978 -82.560242
v -354.280243 89.030914 -81.083778
v -354.736572 89.539497 -80.713104
v -354.490570 88.799194 -81.818504
v -353.748840 88.595978 -80.787781
vn -0.2313 -0.8487 0.4757
vn -0.4757 -0.8487 0.2313
vn -0.5176 -0.6813 0.5176
vn -0.9894 0.0234 0.1432
vn -0.7835 0.0736 0.6170
vn -0.6170 0.0736 0.7835
vn -0.6153 -0.5532 0.5616
vn -0.8365 -0.5013 0.2211
vn -0.8401 -0.1350 0.5254
vn -0.7348 0.5392 0.4115
vn -0.7279 0.5483 0.4117
vn -0.1432 0.0234 0.9894
vn -0.2211 -0.5013 0.8365
vn -0.5616 -0.5532 0.6153
vn -0.5255 -0.1350 0.8400
vn -0.4115 0.5393 0.7348
vn -0.4117 0.5483 0.7279
vn -0.3316 0.8832 0.3316
vn -0.9894 -0.0234 0.1432
vn -0.7835 -0.0736 0.6170
vn -0.6170 -0.0736 0.7835
vn -0.7279 -0.5483 0.4117
vn -0.7348 -0.5393 0.4115
vn -0.8401 0.1350 0.5254
vn -0.1432 -0.0234 0.9894
vn -0.4117 -0.5483 0.7279
vn -0.4115 -0.5393 0.7348
vn -0.5255 0.1350 0.8401
vn -0.3316 -0.8832 0.3316
vn -0.6153 0.5532 0.5616
vn -0.8365 0.5013 0.2211
vn -0.2211 0.5013 0.8365
vn -0.5616 0.5532 0.6153
vn -0.5176 0.6813 0.5176
vn -0.2313 0.8487 0.4757
vn -0.4757 0.8487 0.2313
vn -0.7443 -0.6678 -0.0000
vn -0.6334 -0.7738 -0.0000
vn -0.1234 -0.9924 -0.0000
vn -0.4757 -0.8487 -0.2313
vn -0.2313 -0.8487 -0.4757
vn -0.5176 -0.6813 -0.5176
vn -0.9947 -0.1024 -0.0000
vn -0.9998 0.0203 -0.0000
vn -0.9894 0.0234 -0.1432
vn -0.8365 -0.5013 -0.2211
vn -0.8942 0.4477 -0.0000
vn -0.7123 0.7019 -0.0000
vn -0.6153 -0.5532 -0.5616
vn -0.8401 -0.1350 -0.5254
vn -0.6170 0.0736 -0.7835
vn -0.7348 0.5393 -0.4115
vn -0.7279 0.5483 -0.4117
vn -0.7835 0.0736 -0.6170
vn -0.4113 0.9115 -0.0000
vn -0.5616 -0.5532 -0.6153
vn -0.4117 0.5483 -0.7279
vn -0.3316 0.8832 -0.3316
vn -0.2211 -0.5013 -0.8365
vn -0.5255 -0.1350 -0.8401
vn -0.1432 0.0234 -0.9894
vn -0.4115 0.5393 -0.7348
vn -0.9998 -0.0203 -0.0000
vn -0.9894 -0.0234 -0.1432
vn -0.7123 -0.7019 -0.0000
vn -0.8942 -0.4477 -0.0000
vn -0.7279 -0.5483 -0.4117
vn -0.7348 -0.5392 -0.4115
vn -0.6170 -0.0736 -0.7835
vn -0.8401 0.1350 -0.5254
vn -0.7835 -0.0736 -0.6170
vn -0.4113 -0.9115 -0.0000
vn -0.3316 -0.8832 -0.3316
vn -0.4117 -0.5483 -0.7279
vn -0.4115 -0.5393 -0.7348
vn -0.1432 -0.0234 -0.9894
vn -0.5255 0.1349 -0.8401
vn -0.9947 0.1024 -0.0000
vn -0.8365 0.5013 -0.2211
vn -0.6334 0.7738 -0.0000
vn -0.7443 0.6678 -0.0000
vn -0.6153 0.5532 -0.5616
vn -0.4757 0.8487 -0.2313
vn -0.1234 0.9924 -0.0000
vn -0.5616 0.5532 -0.6153
vn -0.5176 0.6813 -0.5176
vn -0.2313 0.8487 -0.4757
vn -0.2211 0.5013 -0.8365
vn -0.0000 -0.6678 0.7443
vn -0.0000 -0.7738 0.6334
vn -0.0000 -0.9924 0.1234
vn 0.2313 -0.8487 0.4757
vn 0.4757 -0.8487 0.2313
vn 0.5176 -0.6813 0.5176
vn -0.0000 -0.1024 0.9947
vn -0.0000 0.0203 0.9998
vn 0.2211 -0.5013 0.8365
vn -0.0000 0.4477 0.8942
vn -0.0000 0.7019 0.7123
vn -0.0000 0.9115 0.4113
vn 0.1432 0.0234 0.9894
vn 0.5616 -0.5532 0.6153
vn 0.5254 -0.1350 0.8401
vn 0.7835 0.0736 0.6170
vn 0.4115 0.5393 0.7348
vn 0.4117 0.5483 0.7279
vn 0.6153 -0.5532 0.5616
vn 0.7279 0.5483 0.4117
vn 0.3316 0.8832 0.3316
vn 0.6170 0.0736 0.7835
vn 0.8365 -0.5013 0.2211
vn 0.8401 -0.1350 0.5254
vn 0.9894 0.0234 0.1432
vn 0.7348 0.5393 0.4115
vn -0.0000 -0.0203 0.9998
vn -0.0000 -0.7019 0.7123
vn -0.0000 -0.4477 0.8942
vn -0.0000 -0.9115 0.4113
vn 0.1432 -0.0234 0.9894
vn 0.4117 -0.5483 0.7279
vn 0.4115 -0.5393 0.7348
vn 0.7835 -0.0736 0.6170
vn 0.5255 0.1350 0.8400
vn 0.3316 -0.8832 0.3316
vn 0.7279 -0.5483 0.4117
vn 0.6170 -0.0736 0.7835
vn 0.7348 -0.5392 0.4115
vn 0.9894 -0.0234 0.1432
vn 0.8401 0.1350 0.5254
vn -0.0000 0.1024 0.9947
vn 0.2211 0.5013 0.8365
vn -0.0000 0.7738 0.6334
vn -0.0000 0.6678 0.7443
vn 0.2313 0.8487 0.4757
vn -0.0000 0.9924 0.1234
vn 0.5616 0.5532 0.6153
vn 0.6153 0.5532 0.5616
vn 0.5176 0.6813 0.5176
vn 0.4757 0.8487 0.2313
vn 0.8365 0.5013 0.2211
vn -0.0000 -1.0000 -0.0000
vn -0.0000 -0.9924 -0.1234
vn 0.2313 -0.8487 -0.4757
vn -0.0000 -0.6678 -0.7443
vn -0.0000 -0.7738 -0.6334
vn 0.1234 -0.9924 -0.0000
vn 0.7443 -0.6678 -0.0000
vn 0.4757 -0.8487 -0.2313
vn 0.5176 -0.6813 -0.5176
vn 0.6334 -0.7738 -0.0000
vn -0.0000 1.0000 -0.0000
vn -0.0000 0.7019 -0.7123
vn -0.0000 0.9115 -0.4113
vn 0.2211 -0.5013 -0.8365
vn -0.0000 -0.1024 -0.9947
vn -0.0000 0.0203 -0.9998
vn -0.0000 0.4477 -0.8942
vn 0.7123 0.7019 -0.0000
vn 0.4113 0.9115 -0.0000
vn 0.6153 -0.5532 -0.5616
vn 0.5616 -0.5532 -0.6153
vn 0.7279 0.5483 -0.4117
vn 0.4117 0.5483 -0.7279
vn 0.3316 0.8832 -0.3316
vn 0.5255 -0.1349 -0.8401
vn 0.7835 0.0736 -0.6170
vn 0.1432 0.0234 -0.9894
vn 0.4115 0.5393 -0.7348
vn 0.9947 -0.1024 -0.0000
vn 0.8365 -0.5013 -0.2211
vn 0.9998 0.0203 -0.0000
vn 0.8942 0.4477 -0.0000
vn 0.8401 -0.1350 -0.5254
vn 0.9894 0.0234 -0.1432
vn 0.6170 0.0736 -0.7835
vn 0.7348 0.5393 -0.4115
vn -0.0000 -0.9115 -0.4113
vn -0.0000 -0.7019 -0.7123
vn -0.0000 -0.4477 -0.8942
vn -0.0000 -0.0203 -0.9998
vn 0.4113 -0.9115 -0.0000
vn 0.7123 -0.7019 -0.0000
vn 0.3316 -0.8832 -0.3316
vn 0.7279 -0.5483 -0.4117
vn 0.4117 -0.5483 -0.7279
vn 0.4115 -0.5393 -0.7348
vn 0.7835 -0.0736 -0.6170
vn 0.1432 -0.0234 -0.9894
vn 0.5254 0.1350 -0.8401
vn 0.8942 -0.4477 -0.0000
vn 0.9998 -0.0203 -0.0000
vn 0.7348 -0.5393 -0.4115
vn 0.9894 -0.0234 -0.1432
vn 0.6170 -0.0736 -0.7835
vn 0.8401 0.1350 -0.5254
vn 0.2313 0.8487 -0.4757
vn -0.0000 0.6678 -0.7443
vn -0.0000 0.9924 -0.1234
vn 0.2211 0.5013 -0.8365
vn -0.0000 0.1024 -0.9947
vn -0.0000 0.7738 -0.6334
vn 0.7443 0.6678 -0.0000
vn 0.4757 0.8487 -0.2313
vn 0.1234 0.9924 -0.0000
vn 0.6153 0.5532 -0.5616
vn 0.5616 0.5532 -0.6153
vn 0.5176 0.6813 -0.5176
vn 0.9947 0.1024 -0.0000
vn 0.8365 0.5013 -0.2211
vn 0.6334 0.7738 -0.0000
s 0
f 8//1 6//1 7//1 9//1
f 4//2 3//2 8//2 9//2
f 9//3 7//3 2//3 4//3
f 12//4 10//4 11//4 13//4
f 16//5 14//5 15//5 17//5
f 11//6 10//6 16//6 17//6
f 4//7 2//7 16//7 19//7
f 12//8 1//8 4//8 19//8
f 19//9 16//9 10//9 12//9
f 13//10 11//10 17//10 20//10
f 20//11 17//11 18//11 21//11
f 15//12 14//12 22//12 23//12
f 7//13 5//13 22//13 24//13
f 16//14 2//14 7//14 24//14
f 24//15 22//15 14//15 16//15
f 17//16 15//16 23//16 25//16
f 18//17 17//17 25//17 26//17
f 21//18 18//18 26//18 27//18
f 30//19 28//19 29//19 31//19
f 35//20 32//20 33//20 36//20
f 29//21 28//21 35//21 36//21
f 37//22 34//22 35//22 38//22
f 38//23 35//23 28//23 30//23
f 31//24 29//24 36//24 39//24
f 33//25 32//25 40//25 41//25
f 35//26 34//26 42//26 43//26
f 43//27 40//27 32//27 35//27
f 36//28 33//28 41//28 44//28
f 45//29 42//29 34//29 37//29
f 39//30 36//30 47//30 48//30
f 46//31 31//31 39//31 48//31
f 44//32 41//32 50//32 51//32
f 47//33 36//33 44//33 51//33
f 48//34 47//34 51//34 53//34
f 53//35 51//35 52//35 54//35
f 49//36 48//36 53//36 54//36
f 56//37 3//37 4//37 57//37
f 57//38 4//38 1//38 55//38
f 59//39 8//39 3//39 56//39
f 60//40 59//40 56//40 57//40
f 61//41 59//41 60//41 62//41
f 62//42 60//42 57//42 58//42
f 55//43 1//43 12//43 64//43
f 64//44 12//44 13//44 65//44
f 66//45 64//45 65//45 67//45
f 68//46 57//46 55//46 64//46
f 65//47 13//47 20//47 69//47
f 69//48 20//48 21//48 70//48
f 58//49 57//49 68//49 71//49
f 71//50 68//50 64//50 66//50
f 72//51 71//51 66//51 67//51
f 67//52 65//52 69//52 72//52
f 72//53 69//53 70//53 73//53
f 74//54 71//54 72//54 75//54
f 70//55 21//55 27//55 76//55
f 77//56 62//56 58//56 71//56
f 79//57 78//57 72//57 73//57
f 73//58 70//58 76//58 79//58
f 63//59 62//59 77//59 80//59
f 80//60 77//60 71//60 74//60
f 81//61 80//61 74//61 75//61
f 75//62 72//62 78//62 81//62
f 82//63 30//63 31//63 83//63
f 84//64 82//64 83//64 85//64
f 86//65 37//65 38//65 87//65
f 87//66 38//66 30//66 82//66
f 89//67 86//67 87//67 90//67
f 90//68 87//68 82//68 84//68
f 91//69 90//69 84//69 85//69
f 85//70 83//70 88//70 91//70
f 92//71 90//71 91//71 93//71
f 94//72 45//72 37//72 86//72
f 95//73 94//73 86//73 89//73
f 96//74 95//74 89//74 90//74
f 98//75 96//75 90//75 92//75
f 99//76 98//76 92//76 93//76
f 93//77 91//77 97//77 99//77
f 83//78 31//78 46//78 100//78
f 101//79 88//79 83//79 100//79
f 100//80 46//80 48//80 101//80
f 101//81 48//81 49//81 102//81
f 91//82 88//82 101//82 103//82
f 105//83 104//83 101//83 102//83
f 102//84 49//84 54//84 105//84
f 106//85 97//85 91//85 103//85
f 103//86 101//86 104//86 106//86
f 106//87 104//87 105//87 107//87
f 99//88 97//88 106//88 108//88
f 7//89 6//89 110//89 111//89
f 111//90 109//90 5//90 7//90
f 112//91 110//91 6//91 8//91
f 113//92 111//92 110//92 112//92
f 113//93 112//93 115//93 116//93
f 116//94 114//94 111//94 113//94
f 22//95 5//95 109//95 118//95
f 23//96 22//96 118//96 119//96
f 120//97 118//97 109//97 111//97
f 25//98 23//98 119//98 121//98
f 26//99 25//99 121//99 122//99
f 27//100 26//100 122//100 123//100
f 119//101 118//101 124//101 125//101
f 120//102 111//102 114//102 126//102
f 126//103 124//103 118//103 120//103
f 127//104 125//104 124//104 126//104
f 121//105 119//105 125//105 127//105
f 122//106 121//106 127//106 128//106
f 129//107 126//107 114//107 116//107
f 131//108 128//108 127//108 130//108
f 123//109 122//109 128//109 131//109
f 127//110 126//110 132//110 133//110
f 129//111 116//111 117//111 134//111
f 134//112 132//112 126//112 129//112
f 135//113 133//113 132//113 134//113
f 130//114 127//114 133//114 135//114
f 41//115 40//115 136//115 137//115
f 43//116 42//116 138//116 139//116
f 139//117 136//117 40//117 43//117
f 141//118 138//118 42//118 45//118
f 137//119 136//119 142//119 143//119
f 139//120 138//120 144//120 145//120
f 145//121 142//121 136//121 139//121
f 146//122 143//122 142//122 145//122
f 140//123 137//123 143//123 146//123
f 147//124 144//124 138//124 141//124
f 148//125 145//125 144//125 147//125
f 146//126 145//126 150//126 151//126
f 152//127 150//127 145//127 148//127
f 153//128 151//128 150//128 152//128
f 149//129 146//129 151//129 153//129
f 50//130 41//130 137//130 154//130
f 155//131 154//131 137//131 140//131
f 51//132 50//132 154//132 155//132
f 52//133 51//133 155//133 156//133
f 158//134 156//134 155//134 157//134
f 54//135 52//135 156//135 158//135
f 155//136 140//136 146//136 159//136
f 160//137 159//137 146//137 149//137
f 157//138 155//138 159//138 160//138
f 158//139 157//139 160//139 161//139
f 160//140 149//140 153//140 162//140
f 163//141 112//141 8//141 59//141
f 165//142 163//142 59//142 61//142
f 166//143 164//143 163//143 165//143
f 166//144 165//144 61//144 62//144
f 167//145 166//145 62//145 63//145
f 168//146 115//146 112//146 163//146
f 169//147 116//147 115//147 168//147
f 169//148 168//148 163//148 164//148
f 170//149 169//149 164//149 166//149
f 171//150 117//150 116//150 169//150
f 76//151 27//151 123//151 172//151
f 175//152 174//152 78//152 79//152
f 79//153 76//153 172//153 175//153
f 176//154 173//154 166//154 167//154
f 176//155 167//155 63//155 80//155
f 177//156 176//156 80//156 81//156
f 81//157 78//157 174//157 177//157
f 180//158 131//158 130//158 179//158
f 172//159 123//159 131//159 180//159
f 181//160 178//160 169//160 170//160
f 181//161 170//161 166//161 173//161
f 183//162 180//162 179//162 182//162
f 183//163 182//163 174//163 175//163
f 175//164 172//164 180//164 183//164
f 184//165 181//165 173//165 176//165
f 185//166 182//166 181//166 184//166
f 185//167 184//167 176//167 177//167
f 177//168 174//168 182//168 185//168
f 186//169 134//169 117//169 171//169
f 186//170 171//170 169//170 178//170
f 187//171 135//171 134//171 186//171
f 179//172 130//172 135//172 187//172
f 188//173 186//173 178//173 181//173
f 189//174 187//174 186//174 188//174
f 189//175 188//175 181//175 182//175
f 182//176 179//176 187//176 189//176
f 190//141 141//141 45//141 94//141
f 191//177 190//177 94//177 95//177
f 192//178 191//178 95//178 96//178
f 194//179 192//179 96//179 98//179
f 195//180 194//180 98//180 99//180
f 196//181 147//181 141//181 190//181
f 197//182 148//182 147//182 196//182
f 199//183 196//183 190//183 191//183
f 200//184 197//184 196//184 199//184
f 200//185 199//185 191//185 192//185
f 202//186 200//186 192//186 194//186
f 203//187 201//187 200//187 202//187
f 203//188 202//188 194//188 195//188
f 195//189 193//189 201//189 203//189
f 204//190 152//190 148//190 197//190
f 205//191 153//191 152//191 204//191
f 206//192 204//192 197//192 200//192
f 207//193 205//193 204//193 206//193
f 207//194 206//194 200//194 201//194
f 201//195 198//195 205//195 207//195
f 105//151 54//151 158//151 209//151
f 211//196 209//196 208//196 210//196
f 211//197 210//197 106//197 107//197
f 107//198 105//198 209//198 211//198
f 212//199 210//199 193//199 195//199
f 212//200 195//200 99//200 108//200
f 108//201 106//201 210//201 212//201
f 214//202 161//202 160//202 213//202
f 214//203 213//203 208//203 209//203
f 209//204 158//204 161//204 214//204
f 215//205 213//205 198//205 201//205
f 215//206 201//206 193//206 210//206
f 210//207 208//207 213//207 215//207
f 216//208 162//208 153//208 205//208
f 216//209 205//209 198//209 213//209
f 213//210 160//210 162//210 216//210
