# Blender 3.5.1
# www.blender.org
o Cube320
v -782.617371 55.479977 -80.460381
v -782.797852 56.000000 -80.279877
v -782.786011 57.000000 -80.291771
v -782.601501 57.511791 -80.476242
v -782.601501 103.488213 -80.476242
v -782.786011 104.000000 -80.291771
v -782.797852 105.000000 -80.279877
v -782.617371 105.520027 -80.460381
v -782.617371 55.479977 -80.539619
v -782.797852 56.000000 -80.720123
v -782.786011 57.000000 -80.708229
v -782.601501 57.511791 -80.523758
v -782.601501 103.488213 -80.523758
v -782.786011 104.000000 -80.708229
v -782.797852 105.000000 -80.720123
v -782.617371 105.520027 -80.539619
v -782.538147 55.479977 -80.460381
v -782.357666 56.000000 -80.279877
v -782.369507 57.000000 -80.291771
v -782.554016 57.511791 -80.476242
v -782.554016 103.488213 -80.476242
v -782.369507 104.000000 -80.291771
v -782.357666 105.000000 -80.279877
v -782.538147 105.520027 -80.460381
v -782.538147 55.479977 -80.539619
v -782.357666 56.000000 -80.720123
v -782.369507 57.000000 -80.708229
v -782.554016 57.511791 -80.523758
v -782.554016 103.488213 -80.523758
v -782.369507 104.000000 -80.708229
v -782.357666 105.000000 -80.720123
v -782.538147 105.520027 -80.539619
vn -0.9447 -0.3279 -0.0000
vn -0.9999 0.0119 -0.0000
vn -0.9408 0.3391 -0.0000
vn -0.9408 -0.3391 -0.0000
vn -0.9999 -0.0119 -0.0000
vn -0.9447 0.3279 -0.0000
vn -0.0000 -0.3279 0.9447
vn -0.0000 0.0119 0.9999
vn -0.0000 0.3391 0.9408
vn -0.0000 -0.3391 0.9408
vn -0.0000 -0.0119 0.9999
vn -0.0000 0.3279 0.9447
vn -0.0000 -1.0000 -0.0000
vn 0.9447 -0.3279 -0.0000
vn -0.0000 -0.3279 -0.9447
vn 0.9999 0.0119 -0.0000
vn -0.0000 0.0119 -0.9999
vn 0.9408 0.3391 -0.0000
vn -0.0000 0.3391 -0.9408
vn -0.0000 1.0000 -0.0000
vn 0.9408 -0.3391 -0.0000
vn -0.0000 -0.3391 -0.9408
vn 0.9999 -0.0119 -0.0000
vn -0.0000 -0.0119 -0.9999
vn 0.9447 0.3279 -0.0000
vn -0.0000 0.3279 -0.9447
s 0
f 9//1 1//1 2//1 10//1
f 10//2 2//2 3//2 11//2
f 11//3 3//3 4//3 12//3
f 13//4 5//4 6//4 14//4
f 14//5 6//5 7//5 15//5
f 15//6 7//6 8//6 16//6
f 2//7 1//7 17//7 18//7
f 3//8 2//8 18//8 19//8
f 4//9 3//9 19//9 20//9
f 6//10 5//10 21//10 22//10
f 7//11 6//11 22//11 23//11
f 8//12 7//12 23//12 24//12
f 25//13 17//13 1//13 9//13
f 26//14 18//14 17//14 25//14
f 26//15 25//15 9//15 10//15
f 27//16 19//16 18//16 26//16
f 27//17 26//17 10//17 11//17
f 28//18 20//18 19//18 27//18
f 28//19 27//19 11//19 12//19
f 12//20 4//20 20//20 28//20
f 29//13 21//13 5//13 13//13
f 30//21 22//21 21//21 29//21
f 30//22 29//22 13//22 14//22
f 31//23 23//23 22//23 30//23
f 31//24 30//24 14//24 15//24
f 32//25 24//25 23//25 31//25
f 32//26 31//26 15//26 16//26
f 16//20 8//20 24//20 32//20
